M48
;Layer_Color=9474304
;FILE_FORMAT=4:4
METRIC,LZ
;TYPE=PLATED
T1F00S00C0.3048
T2F00S00C1.0200
%
T01
X0001397Y000381
X00029548Y00060463
X0004826Y0006096
X0007366Y0007874
X0008636Y000762
X0008382Y0010033
X00083632Y00110177
X0008128Y0012319
X0008763Y0012827
X00098044Y0009144
X0011303Y0008001
X0012573Y0011484
X0017145
X00200454Y00115062
X0022733Y00116078
X0023749
X0024765
Y0010033
X00237733Y00100087
X00227573
X0022606Y0007385
X00224536Y0006115
X00262382Y0005969
X0028956Y00084074
X00285496Y0009271
X00274956Y00102863
X00274464Y00110944
X00274496Y0012812
X00263652Y00127667
X00298613Y00141133
X0033147Y0010287
X0034163Y00108712
Y00078198
X0037221Y00089274
Y00107054
X0039888Y00100704
X00399034Y00087884
X00399239Y00113602
X00437567
X0043053Y00135318
X0042799Y0009017
X0043561Y00082738
X00466497
X0046482Y00095374
X0047498Y00142812
X0045212Y0002413
Y0001016
X00403606Y00029242
X0052197Y0002794
X005334Y0002775
X0018542Y0008001
X0054737Y0002775
X005588Y0002794
X0057277
X0058547
X00610183Y00028653
X006223Y0002794
X00635
X006477
X006604
X006731
X0061043Y001026
Y001166
Y001306
X0059643
X00582598Y00130433
X0058243Y001166
Y001026
X0059643
Y001166
X00597165Y00175525
X00609842Y00175548
X0062357Y0017526
X006359Y0017563
X006477Y0017526
X0066093Y0017579
X0067363Y00176
X005842Y0017526
X0057277
X0056007
X0054737
X005334
X0052197Y00175768
X0050927Y0015948
X0049784Y0018923
X0044704Y0018796
X0036936Y00158972
X00291953Y00160635
X0024892Y00158463
X00222445Y00155997
X0010414Y0015621
X00073637Y00159998
X0006096Y0015494
X0004445Y0016129
X0003175Y0016383
X0001905
X0000762
T02
X0001524Y000127
X0004064
X0006604
X0009144
X0011684
X0014224
X0016764
X0019304
X0021844
X0024384
X0026924
X0029464
X0032004
X0034544
X0037084
X0039624
X0042164
Y001905
X0039624
X0037084
X0034544
X0032004
X0029464
X0026924
X0024384
X0021844
X0019304
X0016764
X0014224
X0011684
X0009144
X0006604
X0004064
X0001524
M30
