G04*
G04 #@! TF.GenerationSoftware,Altium Limited,Altium Designer,23.1.1 (15)*
G04*
G04 Layer_Color=65535*
%FSLAX44Y44*%
%MOMM*%
G71*
G04*
G04 #@! TF.SameCoordinates,EB36885D-2DDF-469F-ABB7-EBECF6A50CA0*
G04*
G04*
G04 #@! TF.FilePolarity,Positive*
G04*
G01*
G75*
%ADD10C,0.2000*%
%ADD11C,0.2500*%
%ADD12C,0.0889*%
%ADD13C,0.1270*%
%ADD14C,0.1524*%
D10*
X74660Y78980D02*
G03*
X74660Y78980I-1000J0D01*
G01*
X348120Y148590D02*
G03*
X348120Y148590I-1000J0D01*
G01*
X61960Y155970D02*
G03*
X61960Y155970I-1000J0D01*
G01*
X83550Y125730D02*
G03*
X83550Y125730I-1000J0D01*
G01*
X460130Y111889D02*
Y134489D01*
X439030Y111889D02*
Y134489D01*
Y104393D02*
X460130D01*
Y75059D02*
Y97659D01*
X439030Y75059D02*
Y97659D01*
Y67563D02*
X460130D01*
X640Y203850D02*
X436240D01*
Y177150D02*
Y203850D01*
X640Y177150D02*
X436240D01*
X640D02*
Y203850D01*
X27940Y177150D02*
Y203850D01*
X124840Y150750D02*
X172340D01*
Y103250D02*
Y150750D01*
X124840Y103250D02*
X172340D01*
X124840D02*
Y150750D01*
X319020Y96280D02*
X328370D01*
Y66280D02*
Y74530D01*
Y88030D02*
Y96280D01*
X319020Y66280D02*
X328370D01*
X314370Y78530D02*
Y84030D01*
X749280Y10850D02*
Y192350D01*
X492780Y10850D02*
X500280D01*
X681880D02*
X749280D01*
X492780Y167000D02*
Y192350D01*
Y10850D02*
Y36200D01*
Y192350D02*
X500280D01*
X681880D02*
X749280D01*
X257740Y82450D02*
X262990D01*
X211990D02*
X217240D01*
X211990Y128200D02*
Y133450D01*
Y82450D02*
Y87700D01*
X257740Y133450D02*
X262990D01*
X211990D02*
X217240D01*
X262990Y128200D02*
Y133450D01*
Y82450D02*
Y87700D01*
X431305Y81535D02*
Y116585D01*
X366255Y81535D02*
X431305D01*
X366255D02*
Y116585D01*
X431305D01*
X51280Y137350D02*
Y142050D01*
Y61150D02*
Y65850D01*
X24530Y61150D02*
X51280D01*
X24530Y142050D02*
X51280D01*
X640Y26050D02*
X436240D01*
Y-650D02*
Y26050D01*
X640Y-650D02*
X436240D01*
X640D02*
Y26050D01*
X27940Y-650D02*
Y26050D01*
X318960Y129300D02*
X328310D01*
Y99300D02*
Y107550D01*
Y121050D02*
Y129300D01*
X318960Y99300D02*
X328310D01*
X314310Y111550D02*
Y117050D01*
X124840Y99950D02*
X172340D01*
Y52450D02*
Y99950D01*
X124840Y52450D02*
X172340D01*
X124840D02*
Y99950D01*
D11*
X16490Y172250D02*
G03*
X16490Y172250I-1250J0D01*
G01*
X99840Y112000D02*
G03*
X99840Y112000I-1250J0D01*
G01*
X674880Y202100D02*
G03*
X674880Y202100I-1250J0D01*
G01*
X272990Y92700D02*
G03*
X272990Y92700I-1250J0D01*
G01*
X435030Y132010D02*
G03*
X435030Y132010I-1250J0D01*
G01*
X57530Y114850D02*
G03*
X57530Y114850I-1250J0D01*
G01*
X16490Y31750D02*
G03*
X16490Y31750I-1250J0D01*
G01*
X100310Y53340D02*
G03*
X100310Y53340I-1250J0D01*
G01*
D12*
X470154Y12954D02*
G03*
X470154Y12954I-254J0D01*
G01*
Y7366D02*
G03*
X470154Y7366I-254J0D01*
G01*
X255524Y148844D02*
G03*
X255524Y148844I-254J0D01*
G01*
Y143256D02*
G03*
X255524Y143256I-254J0D01*
G01*
X100838Y110744D02*
G03*
X100838Y110744I-254J0D01*
G01*
X95250D02*
G03*
X95250Y110744I-254J0D01*
G01*
X282194Y137414D02*
G03*
X282194Y137414I-254J0D01*
G01*
Y131826D02*
G03*
X282194Y131826I-254J0D01*
G01*
X20421Y44578D02*
G03*
X20421Y44578I-254J0D01*
G01*
Y50166D02*
G03*
X20421Y50166I-254J0D01*
G01*
X38354Y148336D02*
G03*
X38354Y148336I-254J0D01*
G01*
Y153924D02*
G03*
X38354Y153924I-254J0D01*
G01*
X71120Y144780D02*
G03*
X71120Y144780I-254J0D01*
G01*
X76708D02*
G03*
X76708Y144780I-254J0D01*
G01*
X478028Y88900D02*
G03*
X478028Y88900I-254J0D01*
G01*
X472440D02*
G03*
X472440Y88900I-254J0D01*
G01*
X363474Y151384D02*
G03*
X363474Y151384I-254J0D01*
G01*
Y145796D02*
G03*
X363474Y145796I-254J0D01*
G01*
X93980Y69850D02*
G03*
X93980Y69850I-254J0D01*
G01*
X99568D02*
G03*
X99568Y69850I-254J0D01*
G01*
X449834Y58166D02*
G03*
X449834Y58166I-254J0D01*
G01*
Y63754D02*
G03*
X449834Y63754I-254J0D01*
G01*
X297180Y116840D02*
G03*
X297180Y116840I-254J0D01*
G01*
X302768D02*
G03*
X302768Y116840I-254J0D01*
G01*
X198120Y132080D02*
G03*
X198120Y132080I-254J0D01*
G01*
X203708D02*
G03*
X203708Y132080I-254J0D01*
G01*
X302768Y90170D02*
G03*
X302768Y90170I-254J0D01*
G01*
X297180D02*
G03*
X297180Y90170I-254J0D01*
G01*
X282194Y148844D02*
G03*
X282194Y148844I-254J0D01*
G01*
Y143256D02*
G03*
X282194Y143256I-254J0D01*
G01*
X239268Y62230D02*
G03*
X239268Y62230I-254J0D01*
G01*
X233680D02*
G03*
X233680Y62230I-254J0D01*
G01*
X250698D02*
G03*
X250698Y62230I-254J0D01*
G01*
X245110D02*
G03*
X245110Y62230I-254J0D01*
G01*
X470154Y26924D02*
G03*
X470154Y26924I-254J0D01*
G01*
Y21336D02*
G03*
X470154Y21336I-254J0D01*
G01*
X95250Y139700D02*
G03*
X95250Y139700I-254J0D01*
G01*
X100838D02*
G03*
X100838Y139700I-254J0D01*
G01*
X228854Y143256D02*
G03*
X228854Y143256I-254J0D01*
G01*
Y148844D02*
G03*
X228854Y148844I-254J0D01*
G01*
X397764Y145796D02*
G03*
X397764Y145796I-254J0D01*
G01*
Y151384D02*
G03*
X397764Y151384I-254J0D01*
G01*
D13*
X68460Y87980D02*
Y99980D01*
X78860Y87980D02*
Y99980D01*
X316620Y155090D02*
X333620D01*
X316620Y142090D02*
X333620D01*
X484632Y118872D02*
Y124968D01*
X465328Y118872D02*
Y124968D01*
X292735Y108712D02*
Y114808D01*
X278765Y108712D02*
Y114808D01*
X66160Y134970D02*
Y146970D01*
X55760Y134970D02*
Y146970D01*
X78860Y110840D02*
Y122840D01*
X68460Y110840D02*
Y122840D01*
X344678Y116332D02*
Y122428D01*
X363982Y116332D02*
Y122428D01*
X344678Y76962D02*
Y83058D01*
X363982Y76962D02*
Y83058D01*
D14*
X81281Y89748D02*
X86359D01*
Y92287D01*
X85513Y93134D01*
X82127D01*
X81281Y92287D01*
Y89748D01*
Y98212D02*
Y94826D01*
X83820D01*
X82974Y96519D01*
Y97366D01*
X83820Y98212D01*
X85513D01*
X86359Y97366D01*
Y95673D01*
X85513Y94826D01*
X299721Y144358D02*
X304799D01*
Y146897D01*
X303953Y147744D01*
X300567D01*
X299721Y146897D01*
Y144358D01*
Y152822D02*
X300567Y151129D01*
X302260Y149436D01*
X303953D01*
X304799Y150283D01*
Y151976D01*
X303953Y152822D01*
X303106D01*
X302260Y151976D01*
Y149436D01*
X446194Y147319D02*
Y142241D01*
X448734D01*
X449580Y143087D01*
Y146473D01*
X448734Y147319D01*
X446194D01*
X451273Y142241D02*
X452966D01*
X452119D01*
Y147319D01*
X451273Y146473D01*
X462281Y83398D02*
X467359D01*
Y85937D01*
X466513Y86784D01*
X463127D01*
X462281Y85937D01*
Y83398D01*
X467359Y91862D02*
Y88476D01*
X463974Y91862D01*
X463127D01*
X462281Y91016D01*
Y89323D01*
X463127Y88476D01*
X2541Y171450D02*
Y169757D01*
Y170604D01*
X6773D01*
X7619Y169757D01*
Y168911D01*
X6773Y168064D01*
X7619Y173143D02*
Y174836D01*
Y173989D01*
X2541D01*
X3387Y173143D01*
X141819Y153671D02*
Y158749D01*
X144358D01*
X145204Y157903D01*
Y156210D01*
X144358Y155364D01*
X141819D01*
X143512D02*
X145204Y153671D01*
X150283Y157903D02*
X149436Y158749D01*
X147744D01*
X146897Y157903D01*
Y157056D01*
X147744Y156210D01*
X149436D01*
X150283Y155364D01*
Y154517D01*
X149436Y153671D01*
X147744D01*
X146897Y154517D01*
X151976Y158749D02*
X155361D01*
X153668D01*
Y153671D01*
X331954Y59267D02*
Y62653D01*
X331107Y63499D01*
X329414D01*
X328568Y62653D01*
Y59267D01*
X329414Y58421D01*
X331107D01*
X330261Y60114D02*
X331954Y58421D01*
X331107D02*
X331954Y59267D01*
X333646Y62653D02*
X334493Y63499D01*
X336186D01*
X337032Y62653D01*
Y61806D01*
X336186Y60960D01*
X335339D01*
X336186D01*
X337032Y60114D01*
Y59267D01*
X336186Y58421D01*
X334493D01*
X333646Y59267D01*
X485139Y182035D02*
X480061D01*
X481754Y183728D01*
X480061Y185421D01*
X485139D01*
X480061Y187114D02*
X485139D01*
Y189653D01*
X484293Y190499D01*
X480907D01*
X480061Y189653D01*
Y187114D01*
X485139Y192192D02*
Y193885D01*
Y193038D01*
X480061D01*
X480907Y192192D01*
X265852Y71121D02*
Y75353D01*
X265005Y76199D01*
X263313D01*
X262466Y75353D01*
Y71121D01*
X257388Y76199D02*
X260774D01*
X257388Y72814D01*
Y71967D01*
X258234Y71121D01*
X259927D01*
X260774Y71967D01*
X369994Y69849D02*
Y65617D01*
X370841Y64771D01*
X372534D01*
X373380Y65617D01*
Y69849D01*
X375073Y64771D02*
X376766D01*
X375919D01*
Y69849D01*
X375073Y69003D01*
X5504Y151129D02*
X3811D01*
X4657D01*
Y146897D01*
X3811Y146051D01*
X2964D01*
X2118Y146897D01*
X10582Y146051D02*
X7196D01*
X10582Y149436D01*
Y150283D01*
X9736Y151129D01*
X8043D01*
X7196Y150283D01*
X474134Y146473D02*
X473287Y147319D01*
X471595D01*
X470748Y146473D01*
Y143087D01*
X471595Y142241D01*
X473287D01*
X474134Y143087D01*
X475826Y146473D02*
X476673Y147319D01*
X478366D01*
X479212Y146473D01*
Y145626D01*
X478366Y144780D01*
X479212Y143934D01*
Y143087D01*
X478366Y142241D01*
X476673D01*
X475826Y143087D01*
Y143934D01*
X476673Y144780D01*
X475826Y145626D01*
Y146473D01*
X476673Y144780D02*
X478366D01*
X272627Y109644D02*
X271781Y108797D01*
Y107105D01*
X272627Y106258D01*
X276013D01*
X276859Y107105D01*
Y108797D01*
X276013Y109644D01*
X276859Y113876D02*
X271781D01*
X274320Y111336D01*
Y114722D01*
X455929Y3812D02*
X450851D01*
Y6351D01*
X451697Y7198D01*
X453390D01*
X454236Y6351D01*
Y3812D01*
Y5505D02*
X455929Y7198D01*
Y8890D02*
Y10583D01*
Y9737D01*
X450851D01*
X451697Y8890D01*
X455929Y16508D02*
Y13122D01*
X452544Y16508D01*
X451697D01*
X450851Y15662D01*
Y13969D01*
X451697Y13122D01*
X251038Y152401D02*
Y157479D01*
X253577D01*
X254424Y156633D01*
Y154940D01*
X253577Y154094D01*
X251038D01*
X252731D02*
X254424Y152401D01*
X256116Y153247D02*
X256963Y152401D01*
X258656D01*
X259502Y153247D01*
Y156633D01*
X258656Y157479D01*
X256963D01*
X256116Y156633D01*
Y155786D01*
X256963Y154940D01*
X259502D01*
X93558Y95927D02*
X92711Y96773D01*
X91018D01*
X90172Y95927D01*
Y92541D01*
X91018Y91695D01*
X92711D01*
X93558Y92541D01*
X95250Y91695D02*
X96943D01*
X96097D01*
Y96773D01*
X95250Y95927D01*
X102868Y91695D02*
X99482D01*
X102868Y95080D01*
Y95927D01*
X102022Y96773D01*
X100329D01*
X99482Y95927D01*
X56728Y128269D02*
Y123191D01*
X59267D01*
X60114Y124037D01*
Y127423D01*
X59267Y128269D01*
X56728D01*
X61806Y127423D02*
X62653Y128269D01*
X64346D01*
X65192Y127423D01*
Y126576D01*
X64346Y125730D01*
X63499D01*
X64346D01*
X65192Y124884D01*
Y124037D01*
X64346Y123191D01*
X62653D01*
X61806Y124037D01*
X81281Y112608D02*
X86359D01*
Y115147D01*
X85513Y115994D01*
X82127D01*
X81281Y115147D01*
Y112608D01*
X86359Y120226D02*
X81281D01*
X83820Y117686D01*
Y121072D01*
X2541Y32174D02*
Y30481D01*
Y31327D01*
X6773D01*
X7619Y30481D01*
Y29634D01*
X6773Y28788D01*
X3387Y33866D02*
X2541Y34713D01*
Y36406D01*
X3387Y37252D01*
X4234D01*
X5080Y36406D01*
Y35559D01*
Y36406D01*
X5926Y37252D01*
X6773D01*
X7619Y36406D01*
Y34713D01*
X6773Y33866D01*
X330624Y132927D02*
Y136313D01*
X329777Y137159D01*
X328084D01*
X327238Y136313D01*
Y132927D01*
X328084Y132081D01*
X329777D01*
X328931Y133774D02*
X330624Y132081D01*
X329777D02*
X330624Y132927D01*
X335702Y132081D02*
X332316D01*
X335702Y135466D01*
Y136313D01*
X334856Y137159D01*
X333163D01*
X332316Y136313D01*
X129123Y49529D02*
Y44451D01*
X131662D01*
X132509Y45297D01*
Y46144D01*
X131662Y46990D01*
X129123D01*
X131662D01*
X132509Y47836D01*
Y48683D01*
X131662Y49529D01*
X129123D01*
X136741D02*
X135048D01*
X134201Y48683D01*
Y45297D01*
X135048Y44451D01*
X136741D01*
X137587Y45297D01*
Y48683D01*
X136741Y49529D01*
X141819D02*
X140126D01*
X139280Y48683D01*
Y45297D01*
X140126Y44451D01*
X141819D01*
X142665Y45297D01*
Y48683D01*
X141819Y49529D01*
X144358D02*
X147744D01*
X146051D01*
Y44451D01*
X149436D02*
X152822Y47836D01*
X154515Y49529D02*
Y45297D01*
X155361Y44451D01*
X157054D01*
X157900Y45297D01*
Y49529D01*
X162979Y48683D02*
X162132Y49529D01*
X160439D01*
X159593Y48683D01*
Y47836D01*
X160439Y46990D01*
X162132D01*
X162979Y46144D01*
Y45297D01*
X162132Y44451D01*
X160439D01*
X159593Y45297D01*
X164671Y44451D02*
Y49529D01*
X167211D01*
X168057Y48683D01*
Y46990D01*
X167211Y46144D01*
X164671D01*
X166364D02*
X168057Y44451D01*
X338667Y119380D02*
X337821Y118534D01*
Y116841D01*
X338667Y115994D01*
X342053D01*
X342899Y116841D01*
Y118534D01*
X342053Y119380D01*
X342899Y121073D02*
Y122766D01*
Y121919D01*
X337821D01*
X338667Y121073D01*
Y79164D02*
X337821Y78317D01*
Y76624D01*
X338667Y75778D01*
X342053D01*
X342899Y76624D01*
Y78317D01*
X342053Y79164D01*
X342899Y84242D02*
Y80856D01*
X339514Y84242D01*
X338667D01*
X337821Y83396D01*
Y81703D01*
X338667Y80856D01*
X272204Y127423D02*
X271357Y128269D01*
X269664D01*
X268818Y127423D01*
Y124037D01*
X269664Y123191D01*
X271357D01*
X272204Y124037D01*
X273896Y127423D02*
X274743Y128269D01*
X276436D01*
X277282Y127423D01*
Y126576D01*
X276436Y125730D01*
X275589D01*
X276436D01*
X277282Y124884D01*
Y124037D01*
X276436Y123191D01*
X274743D01*
X273896Y124037D01*
X34984Y46526D02*
X34138Y45679D01*
Y43987D01*
X34984Y43140D01*
X38370D01*
X39216Y43987D01*
Y45679D01*
X38370Y46526D01*
X34138Y51604D02*
Y48219D01*
X36677D01*
X35831Y49911D01*
Y50758D01*
X36677Y51604D01*
X38370D01*
X39216Y50758D01*
Y49065D01*
X38370Y48219D01*
X18627Y150284D02*
X17781Y149437D01*
Y147745D01*
X18627Y146898D01*
X22013D01*
X22859Y147745D01*
Y149437D01*
X22013Y150284D01*
X17781Y155362D02*
X18627Y153669D01*
X20320Y151976D01*
X22013D01*
X22859Y152823D01*
Y154516D01*
X22013Y155362D01*
X21166D01*
X20320Y154516D01*
Y151976D01*
X80857Y143934D02*
X80011Y143087D01*
Y141395D01*
X80857Y140548D01*
X84243D01*
X85089Y141395D01*
Y143087D01*
X84243Y143934D01*
X80011Y145626D02*
Y149012D01*
X80857D01*
X84243Y145626D01*
X85089D01*
X474134Y74083D02*
X473287Y74929D01*
X471595D01*
X470748Y74083D01*
Y70697D01*
X471595Y69851D01*
X473287D01*
X474134Y70697D01*
X475826D02*
X476673Y69851D01*
X478366D01*
X479212Y70697D01*
Y74083D01*
X478366Y74929D01*
X476673D01*
X475826Y74083D01*
Y73236D01*
X476673Y72390D01*
X479212D01*
X378037Y145628D02*
X377191Y144781D01*
Y143089D01*
X378037Y142242D01*
X381423D01*
X382269Y143089D01*
Y144781D01*
X381423Y145628D01*
X382269Y147320D02*
Y149013D01*
Y148167D01*
X377191D01*
X378037Y147320D01*
Y151552D02*
X377191Y152399D01*
Y154092D01*
X378037Y154938D01*
X381423D01*
X382269Y154092D01*
Y152399D01*
X381423Y151552D01*
X378037D01*
X85937Y67734D02*
X85091Y66888D01*
Y65195D01*
X85937Y64349D01*
X89323D01*
X90169Y65195D01*
Y66888D01*
X89323Y67734D01*
X90169Y69427D02*
Y71120D01*
Y70273D01*
X85091D01*
X85937Y69427D01*
X90169Y73659D02*
Y75352D01*
Y74505D01*
X85091D01*
X85937Y73659D01*
X435609Y56728D02*
X430531D01*
Y59267D01*
X431377Y60114D01*
X433070D01*
X433916Y59267D01*
Y56728D01*
Y58421D02*
X435609Y60114D01*
X431377Y61806D02*
X430531Y62653D01*
Y64346D01*
X431377Y65192D01*
X432224D01*
X433070Y64346D01*
Y63499D01*
Y64346D01*
X433916Y65192D01*
X434763D01*
X435609Y64346D01*
Y62653D01*
X434763Y61806D01*
X295488Y130811D02*
Y135889D01*
X298027D01*
X298874Y135043D01*
Y133350D01*
X298027Y132504D01*
X295488D01*
X297181D02*
X298874Y130811D01*
X303106D02*
Y135889D01*
X300566Y133350D01*
X303952D01*
X196428Y146051D02*
Y151129D01*
X198967D01*
X199814Y150283D01*
Y148590D01*
X198967Y147744D01*
X196428D01*
X198121D02*
X199814Y146051D01*
X204892Y151129D02*
X201506D01*
Y148590D01*
X203199Y149436D01*
X204046D01*
X204892Y148590D01*
Y146897D01*
X204046Y146051D01*
X202353D01*
X201506Y146897D01*
X295488Y71121D02*
Y76199D01*
X298027D01*
X298874Y75353D01*
Y73660D01*
X298027Y72814D01*
X295488D01*
X297181D02*
X298874Y71121D01*
X303952Y76199D02*
X302259Y75353D01*
X300566Y73660D01*
Y71967D01*
X301413Y71121D01*
X303106D01*
X303952Y71967D01*
Y72814D01*
X303106Y73660D01*
X300566D01*
X277708Y152401D02*
Y157479D01*
X280247D01*
X281094Y156633D01*
Y154940D01*
X280247Y154094D01*
X277708D01*
X279401D02*
X281094Y152401D01*
X282786Y157479D02*
X286172D01*
Y156633D01*
X282786Y153247D01*
Y152401D01*
X224791Y66462D02*
X229869D01*
Y63923D01*
X229023Y63076D01*
X227330D01*
X226484Y63923D01*
Y66462D01*
Y64769D02*
X224791Y63076D01*
X229023Y61384D02*
X229869Y60537D01*
Y58844D01*
X229023Y57998D01*
X228176D01*
X227330Y58844D01*
X226484Y57998D01*
X225637D01*
X224791Y58844D01*
Y60537D01*
X225637Y61384D01*
X226484D01*
X227330Y60537D01*
X228176Y61384D01*
X229023D01*
X227330Y60537D02*
Y58844D01*
X261364Y90298D02*
X266443D01*
Y87759D01*
X265596Y86912D01*
X263903D01*
X263057Y87759D01*
Y90298D01*
Y88605D02*
X261364Y86912D01*
Y85220D02*
Y83527D01*
Y84373D01*
X266443D01*
X265596Y85220D01*
Y80988D02*
X266443Y80141D01*
Y78448D01*
X265596Y77602D01*
X262211D01*
X261364Y78448D01*
Y80141D01*
X262211Y80988D01*
X265596D01*
X455929Y21168D02*
X450851D01*
Y23708D01*
X451697Y24554D01*
X453390D01*
X454236Y23708D01*
Y21168D01*
Y22861D02*
X455929Y24554D01*
Y26247D02*
Y27940D01*
Y27093D01*
X450851D01*
X451697Y26247D01*
X455929Y30479D02*
Y32172D01*
Y31325D01*
X450851D01*
X451697Y30479D01*
X90172Y153671D02*
Y158749D01*
X92711D01*
X93558Y157903D01*
Y156210D01*
X92711Y155364D01*
X90172D01*
X91865D02*
X93558Y153671D01*
X95250D02*
X96943D01*
X96097D01*
Y158749D01*
X95250Y157903D01*
X99482D02*
X100329Y158749D01*
X102022D01*
X102868Y157903D01*
Y157056D01*
X102022Y156210D01*
X101175D01*
X102022D01*
X102868Y155364D01*
Y154517D01*
X102022Y153671D01*
X100329D01*
X99482Y154517D01*
X225214Y152401D02*
Y157479D01*
X227754D01*
X228600Y156633D01*
Y154940D01*
X227754Y154094D01*
X225214D01*
X226907D02*
X228600Y152401D01*
X230293D02*
X231986D01*
X231139D01*
Y157479D01*
X230293Y156633D01*
X416559Y144358D02*
X411481D01*
Y146897D01*
X412327Y147744D01*
X414020D01*
X414866Y146897D01*
Y144358D01*
Y146051D02*
X416559Y147744D01*
Y152822D02*
Y149436D01*
X413174Y152822D01*
X412327D01*
X411481Y151976D01*
Y150283D01*
X412327Y149436D01*
X19644Y28194D02*
X18798Y29040D01*
Y30733D01*
X19644Y31580D01*
X20490D01*
X21337Y30733D01*
Y29887D01*
Y30733D01*
X22183Y31580D01*
X23030D01*
X23876Y30733D01*
Y29040D01*
X23030Y28194D01*
X18798Y33272D02*
X22183D01*
X23876Y34965D01*
X22183Y36658D01*
X18798D01*
X19644Y38351D02*
X18798Y39197D01*
Y40890D01*
X19644Y41736D01*
X20490D01*
X21337Y40890D01*
Y40044D01*
Y40890D01*
X22183Y41736D01*
X23030D01*
X23876Y40890D01*
Y39197D01*
X23030Y38351D01*
X415544Y30734D02*
X418083D01*
X416814D01*
Y38352D01*
X415544Y37082D01*
X426970Y38352D02*
X421892D01*
Y34543D01*
X424431Y35812D01*
X425701D01*
X426970Y34543D01*
Y32004D01*
X425701Y30734D01*
X423162D01*
X421892Y32004D01*
X390144Y37082D02*
X391414Y38352D01*
X393953D01*
X395222Y37082D01*
Y32004D01*
X393953Y30734D01*
X391414D01*
X390144Y32004D01*
Y37082D01*
X402840Y30734D02*
X397761D01*
X402840Y35812D01*
Y37082D01*
X401570Y38352D01*
X399031D01*
X397761Y37082D01*
X363474D02*
X364744Y38352D01*
X367283D01*
X368552Y37082D01*
Y32004D01*
X367283Y30734D01*
X364744D01*
X363474Y32004D01*
Y37082D01*
X371091D02*
X372361Y38352D01*
X374900D01*
X376170Y37082D01*
Y32004D01*
X374900Y30734D01*
X372361D01*
X371091Y32004D01*
Y37082D01*
X338074D02*
X339344Y38352D01*
X341883D01*
X343152Y37082D01*
Y32004D01*
X341883Y30734D01*
X339344D01*
X338074Y32004D01*
Y37082D01*
X349500Y30734D02*
Y38352D01*
X345691Y34543D01*
X350770D01*
X313944Y30734D02*
X316483D01*
X315214D01*
Y38352D01*
X313944Y37082D01*
X325370Y38352D02*
X322831Y37082D01*
X320292Y34543D01*
Y32004D01*
X321562Y30734D01*
X324101D01*
X325370Y32004D01*
Y33273D01*
X324101Y34543D01*
X320292D01*
X289814Y30734D02*
X292353D01*
X291084D01*
Y38352D01*
X289814Y37082D01*
X296162Y38352D02*
X301240D01*
Y37082D01*
X296162Y32004D01*
Y30734D01*
X263144Y37082D02*
X264414Y38352D01*
X266953D01*
X268222Y37082D01*
Y32004D01*
X266953Y30734D01*
X264414D01*
X263144Y32004D01*
Y37082D01*
X275840Y38352D02*
X270762D01*
Y34543D01*
X273301Y35812D01*
X274570D01*
X275840Y34543D01*
Y32004D01*
X274570Y30734D01*
X272031D01*
X270762Y32004D01*
X237744Y30734D02*
X240283D01*
X239014D01*
Y38352D01*
X237744Y37082D01*
X244092D02*
X245361Y38352D01*
X247901D01*
X249170Y37082D01*
Y35812D01*
X247901Y34543D01*
X249170Y33273D01*
Y32004D01*
X247901Y30734D01*
X245361D01*
X244092Y32004D01*
Y33273D01*
X245361Y34543D01*
X244092Y35812D01*
Y37082D01*
X245361Y34543D02*
X247901D01*
X212344Y30734D02*
X214883D01*
X213614D01*
Y38352D01*
X212344Y37082D01*
X218692Y32004D02*
X219961Y30734D01*
X222501D01*
X223770Y32004D01*
Y37082D01*
X222501Y38352D01*
X219961D01*
X218692Y37082D01*
Y35812D01*
X219961Y34543D01*
X223770D01*
X186942Y37082D02*
X185673Y38352D01*
X183134D01*
X181864Y37082D01*
Y32004D01*
X183134Y30734D01*
X185673D01*
X186942Y32004D01*
Y34543D01*
X184403D01*
X189482Y30734D02*
Y38352D01*
X194560Y30734D01*
Y38352D01*
X197099D02*
Y30734D01*
X200908D01*
X202177Y32004D01*
Y37082D01*
X200908Y38352D01*
X197099D01*
X166622Y30734D02*
X161544D01*
X166622Y35812D01*
Y37082D01*
X165353Y38352D01*
X162814D01*
X161544Y37082D01*
X169161Y30734D02*
X171701D01*
X170431D01*
Y38352D01*
X169161Y37082D01*
X132334Y30734D02*
Y38352D01*
X136143D01*
X137412Y37082D01*
Y34543D01*
X136143Y33273D01*
X132334D01*
X134873D02*
X137412Y30734D01*
X139951Y38352D02*
X145030Y30734D01*
Y38352D02*
X139951Y30734D01*
X147569Y37082D02*
X148839Y38352D01*
X151378D01*
X152647Y37082D01*
Y32004D01*
X151378Y30734D01*
X148839D01*
X147569Y32004D01*
Y37082D01*
X106934Y38352D02*
X112012D01*
X109473D01*
Y30734D01*
X114551Y38352D02*
X119630Y30734D01*
Y38352D02*
X114551Y30734D01*
X122169Y37082D02*
X123439Y38352D01*
X125978D01*
X127247Y37082D01*
Y32004D01*
X125978Y30734D01*
X123439D01*
X122169Y32004D01*
Y37082D01*
X89152Y30734D02*
X84074D01*
X89152Y35812D01*
Y37082D01*
X87883Y38352D01*
X85344D01*
X84074Y37082D01*
X96770Y30734D02*
X91692D01*
X96770Y35812D01*
Y37082D01*
X95500Y38352D01*
X92961D01*
X91692Y37082D01*
X65022Y30734D02*
X59944D01*
X65022Y35812D01*
Y37082D01*
X63753Y38352D01*
X61214D01*
X59944Y37082D01*
X67561D02*
X68831Y38352D01*
X71370D01*
X72640Y37082D01*
Y35812D01*
X71370Y34543D01*
X70101D01*
X71370D01*
X72640Y33273D01*
Y32004D01*
X71370Y30734D01*
X68831D01*
X67561Y32004D01*
X35812Y37082D02*
X34543Y38352D01*
X32004D01*
X30734Y37082D01*
Y32004D01*
X32004Y30734D01*
X34543D01*
X35812Y32004D01*
Y34543D01*
X33273D01*
X38352Y30734D02*
Y38352D01*
X43430Y30734D01*
Y38352D01*
X45969D02*
Y30734D01*
X49778D01*
X51047Y32004D01*
Y37082D01*
X49778Y38352D01*
X45969D01*
X9142Y164082D02*
X7873Y165352D01*
X5334D01*
X4064Y164082D01*
Y159004D01*
X5334Y157734D01*
X7873D01*
X9142Y159004D01*
Y161543D01*
X6603D01*
X11681Y157734D02*
Y165352D01*
X16760Y157734D01*
Y165352D01*
X19299D02*
Y157734D01*
X23108D01*
X24377Y159004D01*
Y164082D01*
X23108Y165352D01*
X19299D01*
X413004Y172971D02*
Y167893D01*
X415543Y165354D01*
X418082Y167893D01*
Y172971D01*
X420621D02*
X423161D01*
X421891D01*
Y165354D01*
X420621D01*
X423161D01*
X426969D02*
Y172971D01*
X432048Y165354D01*
Y172971D01*
X439665D02*
X434587D01*
Y169163D01*
X437126Y170432D01*
X438396D01*
X439665Y169163D01*
Y166624D01*
X438396Y165354D01*
X435857D01*
X434587Y166624D01*
X442205Y172971D02*
Y167893D01*
X444744Y165354D01*
X447283Y167893D01*
Y172971D01*
X390144Y165354D02*
X392683D01*
X391414D01*
Y172971D01*
X390144Y171702D01*
X396492D02*
X397761Y172971D01*
X400301D01*
X401570Y171702D01*
Y170432D01*
X400301Y169163D01*
X399031D01*
X400301D01*
X401570Y167893D01*
Y166624D01*
X400301Y165354D01*
X397761D01*
X396492Y166624D01*
X366012Y171702D02*
X364743Y172971D01*
X362204D01*
X360934Y171702D01*
Y166624D01*
X362204Y165354D01*
X364743D01*
X366012Y166624D01*
Y169163D01*
X363473D01*
X368551Y165354D02*
Y172971D01*
X373630Y165354D01*
Y172971D01*
X376169D02*
Y165354D01*
X379978D01*
X381247Y166624D01*
Y171702D01*
X379978Y172971D01*
X376169D01*
X339344Y165354D02*
X341883D01*
X340614D01*
Y172971D01*
X339344Y171702D01*
X350770Y165354D02*
X345692D01*
X350770Y170432D01*
Y171702D01*
X349501Y172971D01*
X346962D01*
X345692Y171702D01*
X313944Y165354D02*
X316483D01*
X315214D01*
Y172971D01*
X313944Y171702D01*
X324101Y165354D02*
Y172971D01*
X320292Y169163D01*
X325370D01*
X293622Y165354D02*
X288544D01*
X293622Y170432D01*
Y171702D01*
X292353Y172971D01*
X289814D01*
X288544Y171702D01*
X296161Y172971D02*
X301240D01*
Y171702D01*
X296161Y166624D01*
Y165354D01*
X268222D02*
X263144D01*
X268222Y170432D01*
Y171702D01*
X266953Y172971D01*
X264414D01*
X263144Y171702D01*
X275840Y172971D02*
X273301Y171702D01*
X270762Y169163D01*
Y166624D01*
X272031Y165354D01*
X274570D01*
X275840Y166624D01*
Y167893D01*
X274570Y169163D01*
X270762D01*
X242822Y165354D02*
X237744D01*
X242822Y170432D01*
Y171702D01*
X241553Y172971D01*
X239014D01*
X237744Y171702D01*
X250440Y172971D02*
X245361D01*
Y169163D01*
X247901Y170432D01*
X249170D01*
X250440Y169163D01*
Y166624D01*
X249170Y165354D01*
X246631D01*
X245361Y166624D01*
X212344Y171702D02*
X213614Y172971D01*
X216153D01*
X217422Y171702D01*
Y170432D01*
X216153Y169163D01*
X214883D01*
X216153D01*
X217422Y167893D01*
Y166624D01*
X216153Y165354D01*
X213614D01*
X212344Y166624D01*
X219961Y171702D02*
X221231Y172971D01*
X223770D01*
X225040Y171702D01*
Y170432D01*
X223770Y169163D01*
X222501D01*
X223770D01*
X225040Y167893D01*
Y166624D01*
X223770Y165354D01*
X221231D01*
X219961Y166624D01*
X186944Y171702D02*
X188214Y172971D01*
X190753D01*
X192022Y171702D01*
Y170432D01*
X190753Y169163D01*
X189483D01*
X190753D01*
X192022Y167893D01*
Y166624D01*
X190753Y165354D01*
X188214D01*
X186944Y166624D01*
X199640Y165354D02*
X194562D01*
X199640Y170432D01*
Y171702D01*
X198370Y172971D01*
X195831D01*
X194562Y171702D01*
X161544D02*
X162814Y172971D01*
X165353D01*
X166622Y171702D01*
Y170432D01*
X165353Y169163D01*
X164083D01*
X165353D01*
X166622Y167893D01*
Y166624D01*
X165353Y165354D01*
X162814D01*
X161544Y166624D01*
X174240Y172971D02*
X169161D01*
Y169163D01*
X171701Y170432D01*
X172970D01*
X174240Y169163D01*
Y166624D01*
X172970Y165354D01*
X170431D01*
X169161Y166624D01*
X136144Y171702D02*
X137414Y172971D01*
X139953D01*
X141222Y171702D01*
Y170432D01*
X139953Y169163D01*
X138683D01*
X139953D01*
X141222Y167893D01*
Y166624D01*
X139953Y165354D01*
X137414D01*
X136144Y166624D01*
X147570Y165354D02*
Y172971D01*
X143762Y169163D01*
X148840D01*
X112014Y171702D02*
X113284Y172971D01*
X115823D01*
X117092Y171702D01*
Y170432D01*
X115823Y169163D01*
X114553D01*
X115823D01*
X117092Y167893D01*
Y166624D01*
X115823Y165354D01*
X113284D01*
X112014Y166624D01*
X119632D02*
X120901Y165354D01*
X123440D01*
X124710Y166624D01*
Y171702D01*
X123440Y172971D01*
X120901D01*
X119632Y171702D01*
Y170432D01*
X120901Y169163D01*
X124710D01*
X85344Y171702D02*
X86614Y172971D01*
X89153D01*
X90422Y171702D01*
Y170432D01*
X89153Y169163D01*
X87883D01*
X89153D01*
X90422Y167893D01*
Y166624D01*
X89153Y165354D01*
X86614D01*
X85344Y166624D01*
X98040Y172971D02*
X95501Y171702D01*
X92962Y169163D01*
Y166624D01*
X94231Y165354D01*
X96770D01*
X98040Y166624D01*
Y167893D01*
X96770Y169163D01*
X92962D01*
X65022Y172971D02*
X59944D01*
Y165354D01*
X65022D01*
X59944Y169163D02*
X62483D01*
X67561Y165354D02*
Y172971D01*
X72640Y165354D01*
Y172971D01*
X30734Y171702D02*
X32004Y172971D01*
X34543D01*
X35812Y171702D01*
Y170432D01*
X34543Y169163D01*
X33273D01*
X34543D01*
X35812Y167893D01*
Y166624D01*
X34543Y165354D01*
X32004D01*
X30734Y166624D01*
X38352Y172971D02*
Y167893D01*
X40891Y165354D01*
X43430Y167893D01*
Y172971D01*
X45969Y171702D02*
X47239Y172971D01*
X49778D01*
X51047Y171702D01*
Y170432D01*
X49778Y169163D01*
X48508D01*
X49778D01*
X51047Y167893D01*
Y166624D01*
X49778Y165354D01*
X47239D01*
X45969Y166624D01*
M02*
