G04*
G04 #@! TF.GenerationSoftware,Altium Limited,Altium Designer,23.1.1 (15)*
G04*
G04 Layer_Color=32768*
%FSLAX44Y44*%
%MOMM*%
G71*
G04*
G04 #@! TF.SameCoordinates,EB36885D-2DDF-469F-ABB7-EBECF6A50CA0*
G04*
G04*
G04 #@! TF.FilePolarity,Positive*
G04*
G01*
G75*
%ADD14C,0.1524*%
D14*
X202946Y116586D02*
Y119125D01*
Y117856D01*
X195329D01*
X196598Y116586D01*
Y122934D02*
X195329Y124204D01*
Y126743D01*
X196598Y128012D01*
X201676D01*
X202946Y126743D01*
Y124204D01*
X201676Y122934D01*
X196598D01*
X195329Y130552D02*
X202946D01*
X200407D01*
X195329Y135630D01*
X199137Y131821D01*
X202946Y135630D01*
X288036Y97281D02*
X280418D01*
X284227Y93472D01*
Y98550D01*
X288036Y101089D02*
X286766D01*
Y102359D01*
X288036D01*
Y101089D01*
X280418Y107437D02*
Y112516D01*
X281688D01*
X286766Y107437D01*
X288036D01*
X280418Y115055D02*
X286766D01*
X288036Y116325D01*
Y118864D01*
X286766Y120133D01*
X280418D01*
Y127751D02*
Y122673D01*
X284227D01*
Y125212D01*
Y122673D01*
X288036D01*
X472694Y133352D02*
Y138430D01*
X477772Y133352D01*
X479042D01*
X480312Y134621D01*
Y137160D01*
X479042Y138430D01*
X472694Y125734D02*
Y130812D01*
X477772Y125734D01*
X479042D01*
X480312Y127004D01*
Y129543D01*
X479042Y130812D01*
X480312Y123195D02*
X473964D01*
X472694Y121925D01*
Y119386D01*
X473964Y118117D01*
X480312D01*
Y110499D02*
Y115577D01*
X476503D01*
Y113038D01*
Y115577D01*
X472694D01*
X22607Y155253D02*
X23876Y156523D01*
X26416D01*
X27685Y155253D01*
Y150175D01*
X26416Y148905D01*
X23876D01*
X22607Y150175D01*
Y155253D01*
X30224Y148905D02*
Y150175D01*
X31494D01*
Y148905D01*
X30224D01*
X36572D02*
X39111D01*
X37842D01*
Y156523D01*
X36572Y155253D01*
X42920Y156523D02*
Y150175D01*
X44190Y148905D01*
X46729D01*
X47999Y150175D01*
Y156523D01*
X55616D02*
X50538D01*
Y152714D01*
X53077D01*
X50538D01*
Y148905D01*
X459996Y55628D02*
X465074D01*
Y59437D01*
X462535Y58168D01*
X461265D01*
X459996Y59437D01*
Y61976D01*
X461265Y63246D01*
X463804D01*
X465074Y61976D01*
X452378Y55628D02*
X454917Y56898D01*
X457457Y59437D01*
Y61976D01*
X456187Y63246D01*
X453648D01*
X452378Y61976D01*
Y60707D01*
X453648Y59437D01*
X457457D01*
X449839Y56898D02*
X448569Y55628D01*
X446030D01*
X444761Y56898D01*
Y61976D01*
X446030Y63246D01*
X448569D01*
X449839Y61976D01*
Y56898D01*
X413004Y150876D02*
X410465D01*
X411734D01*
Y143258D01*
X413004Y144528D01*
X406656Y143258D02*
Y150876D01*
Y148337D01*
X401578Y143258D01*
X405387Y147067D01*
X401578Y150876D01*
X100643Y85343D02*
X101912Y84073D01*
Y81534D01*
X100643Y80265D01*
X95565D01*
X94295Y81534D01*
Y84073D01*
X95565Y85343D01*
X100643D01*
X94295Y77726D02*
X95565D01*
Y76456D01*
X94295D01*
Y77726D01*
Y71378D02*
Y68839D01*
Y70108D01*
X101912D01*
X100643Y71378D01*
X101912Y65030D02*
X95565D01*
X94295Y63760D01*
Y61221D01*
X95565Y59951D01*
X101912D01*
Y52334D02*
Y57412D01*
X98104D01*
Y54873D01*
Y57412D01*
X94295D01*
X238759Y64769D02*
X240029Y63499D01*
Y60960D01*
X238759Y59691D01*
X233681D01*
X232411Y60960D01*
Y63499D01*
X233681Y64769D01*
X238759D01*
X470857Y73407D02*
X469588Y74676D01*
Y77216D01*
X470857Y78485D01*
X475935D01*
X477205Y77216D01*
Y74676D01*
X475935Y73407D01*
X470857D01*
X477205Y81024D02*
X475935D01*
Y82294D01*
X477205D01*
Y81024D01*
Y87372D02*
Y89911D01*
Y88642D01*
X469588D01*
X470857Y87372D01*
X469588Y93720D02*
X475935D01*
X477205Y94990D01*
Y97529D01*
X475935Y98799D01*
X469588D01*
Y106416D02*
Y101338D01*
X473396D01*
Y103877D01*
Y101338D01*
X477205D01*
X243585Y143764D02*
Y151382D01*
X239776Y147573D01*
X244854D01*
X247393Y151382D02*
X252472D01*
Y150112D01*
X247393Y145034D01*
Y143764D01*
X255011D02*
Y145034D01*
X256281D01*
Y143764D01*
X255011D01*
X266437Y151382D02*
X261359D01*
Y147573D01*
X263898Y148842D01*
X265168D01*
X266437Y147573D01*
Y145034D01*
X265168Y143764D01*
X262629D01*
X261359Y145034D01*
X268977Y151382D02*
Y143764D01*
Y146303D01*
X274055Y151382D01*
X270246Y147573D01*
X274055Y143764D01*
X250189Y64769D02*
X251459Y63499D01*
Y60960D01*
X250189Y59691D01*
X245111D01*
X243841Y60960D01*
Y63499D01*
X245111Y64769D01*
X250189D01*
X77783Y160273D02*
X79053Y159003D01*
Y156464D01*
X77783Y155195D01*
X72705D01*
X71435Y156464D01*
Y159003D01*
X72705Y160273D01*
X77783D01*
X71435Y152656D02*
X72705D01*
Y151386D01*
X71435D01*
Y152656D01*
Y146308D02*
Y143769D01*
Y145038D01*
X79053D01*
X77783Y146308D01*
X79053Y139960D02*
X72705D01*
X71435Y138690D01*
Y136151D01*
X72705Y134881D01*
X79053D01*
Y127264D02*
Y132342D01*
X75244D01*
Y129803D01*
Y132342D01*
X71435D01*
X356616Y107948D02*
Y102870D01*
X351538Y107948D01*
X350268D01*
X348998Y106679D01*
Y104140D01*
X350268Y102870D01*
X356616Y115566D02*
Y110487D01*
X351538Y115566D01*
X350268D01*
X348998Y114296D01*
Y111757D01*
X350268Y110487D01*
X348998Y118105D02*
X355346D01*
X356616Y119375D01*
Y121914D01*
X355346Y123183D01*
X348998D01*
Y130801D02*
Y125723D01*
X352807D01*
Y128262D01*
Y125723D01*
X356616D01*
X378713Y144467D02*
X377444Y143197D01*
X374904D01*
X373635Y144467D01*
Y149545D01*
X374904Y150815D01*
X377444D01*
X378713Y149545D01*
Y144467D01*
X371096Y150815D02*
Y149545D01*
X369826D01*
Y150815D01*
X371096D01*
X364748D02*
X362209D01*
X363478D01*
Y143197D01*
X364748Y144467D01*
X358400Y143197D02*
Y149545D01*
X357130Y150815D01*
X354591D01*
X353321Y149545D01*
Y143197D01*
X345704D02*
X350782D01*
Y147006D01*
X348243D01*
X350782D01*
Y150815D01*
X93667Y93981D02*
X92397Y95250D01*
Y97790D01*
X93667Y99059D01*
X98745D01*
X100015Y97790D01*
Y95250D01*
X98745Y93981D01*
X93667D01*
X100015Y101598D02*
X98745D01*
Y102868D01*
X100015D01*
Y101598D01*
Y107946D02*
Y110485D01*
Y109216D01*
X92397D01*
X93667Y107946D01*
X92397Y114294D02*
X98745D01*
X100015Y115564D01*
Y118103D01*
X98745Y119373D01*
X92397D01*
Y126990D02*
Y121912D01*
X96206D01*
Y124451D01*
Y121912D01*
X100015D01*
X297434Y105664D02*
Y103125D01*
Y104394D01*
X305051D01*
X303782Y105664D01*
Y99316D02*
X305051Y98046D01*
Y95507D01*
X303782Y94238D01*
X298704D01*
X297434Y95507D01*
Y98046D01*
X298704Y99316D01*
X303782D01*
X305051Y91699D02*
X297434D01*
X299973D01*
X305051Y86620D01*
X301243Y90429D01*
X297434Y86620D01*
X297433Y130497D02*
X296164Y129228D01*
X293624D01*
X292355Y130497D01*
Y135575D01*
X293624Y136845D01*
X296164D01*
X297433Y135575D01*
Y130497D01*
X289816Y136845D02*
Y135575D01*
X288546D01*
Y136845D01*
X289816D01*
X283468D02*
X280928D01*
X282198D01*
Y129228D01*
X283468Y130497D01*
X277120Y129228D02*
Y135575D01*
X275850Y136845D01*
X273311D01*
X272041Y135575D01*
Y129228D01*
X264424D02*
X269502D01*
Y133036D01*
X266963D01*
X269502D01*
Y136845D01*
X356616Y68578D02*
Y63500D01*
X351538Y68578D01*
X350268D01*
X348998Y67309D01*
Y64770D01*
X350268Y63500D01*
X356616Y76196D02*
Y71118D01*
X351538Y76196D01*
X350268D01*
X348998Y74926D01*
Y72387D01*
X350268Y71118D01*
X348998Y78735D02*
X355346D01*
X356616Y80005D01*
Y82544D01*
X355346Y83813D01*
X348998D01*
Y91431D02*
Y86353D01*
X352807D01*
Y88892D01*
Y86353D01*
X356616D01*
X271524Y143764D02*
X266446D01*
X271524Y148842D01*
Y150112D01*
X270255Y151382D01*
X267716D01*
X266446Y150112D01*
X279142Y143764D02*
X274063D01*
X279142Y148842D01*
Y150112D01*
X277872Y151382D01*
X275333D01*
X274063Y150112D01*
X281681Y143764D02*
Y145034D01*
X282951D01*
Y143764D01*
X281681D01*
X288029D02*
X290568D01*
X289299D01*
Y151382D01*
X288029Y150112D01*
X294377Y151382D02*
Y143764D01*
Y146303D01*
X299455Y151382D01*
X295647Y147573D01*
X299455Y143764D01*
X468630Y6351D02*
X463552D01*
X468630Y11430D01*
Y12699D01*
X467361Y13969D01*
X464822D01*
X463552Y12699D01*
X476248Y6351D02*
X471170D01*
X476248Y11430D01*
Y12699D01*
X474978Y13969D01*
X472439D01*
X471170Y12699D01*
X244094Y148336D02*
X241555D01*
X242824D01*
Y140718D01*
X244094Y141988D01*
X237746Y140718D02*
Y148336D01*
Y145797D01*
X232668Y140718D01*
X236476Y144527D01*
X232668Y148336D01*
X302006Y101346D02*
Y103885D01*
Y102616D01*
X294389D01*
X295658Y101346D01*
Y107694D02*
X294389Y108963D01*
Y111503D01*
X295658Y112772D01*
X300736D01*
X302006Y111503D01*
Y108963D01*
X300736Y107694D01*
X295658D01*
X294389Y115311D02*
X302006D01*
X299467D01*
X294389Y120390D01*
X298197Y116581D01*
X302006Y120390D01*
X468630Y20321D02*
X463552D01*
X468630Y25400D01*
Y26669D01*
X467361Y27939D01*
X464822D01*
X463552Y26669D01*
X476248Y20321D02*
X471170D01*
X476248Y25400D01*
Y26669D01*
X474978Y27939D01*
X472439D01*
X471170Y26669D01*
X100076Y124206D02*
Y126745D01*
Y125476D01*
X92458D01*
X93728Y124206D01*
Y130554D02*
X92458Y131824D01*
Y134363D01*
X93728Y135632D01*
X98806D01*
X100076Y134363D01*
Y131824D01*
X98806Y130554D01*
X93728D01*
X92458Y138172D02*
X100076D01*
X97537D01*
X92458Y143250D01*
X96267Y139441D01*
X100076Y143250D01*
X4674Y51495D02*
X5944Y52765D01*
X8483D01*
X9752Y51495D01*
Y46417D01*
X8483Y45147D01*
X5944D01*
X4674Y46417D01*
Y51495D01*
X12292Y45147D02*
Y46417D01*
X13561D01*
Y45147D01*
X12292D01*
X18640D02*
X21179D01*
X19909D01*
Y52765D01*
X18640Y51495D01*
X24987Y52765D02*
Y46417D01*
X26257Y45147D01*
X28796D01*
X30066Y46417D01*
Y52765D01*
X37683D02*
X32605D01*
Y48956D01*
X35144D01*
X32605D01*
Y45147D01*
M02*
