G04*
G04 #@! TF.GenerationSoftware,Altium Limited,Altium Designer,23.1.1 (15)*
G04*
G04 Layer_Color=16711935*
%FSLAX44Y44*%
%MOMM*%
G71*
G04*
G04 #@! TF.SameCoordinates,EB36885D-2DDF-469F-ABB7-EBECF6A50CA0*
G04*
G04*
G04 #@! TF.FilePolarity,Positive*
G04*
G01*
G75*
%ADD10C,0.2000*%
%ADD13C,0.1270*%
D10*
X74660Y78980D02*
G03*
X74660Y78980I-1000J0D01*
G01*
X348120Y148590D02*
G03*
X348120Y148590I-1000J0D01*
G01*
X61960Y155970D02*
G03*
X61960Y155970I-1000J0D01*
G01*
X83550Y125730D02*
G03*
X83550Y125730I-1000J0D01*
G01*
X640Y203850D02*
X436240D01*
Y177150D02*
Y203850D01*
X640Y177150D02*
X436240D01*
X640D02*
Y203850D01*
X124840Y150750D02*
X172340D01*
Y103250D02*
Y150750D01*
X124840Y103250D02*
X172340D01*
X124840D02*
Y150750D01*
X328370Y66280D02*
Y96280D01*
X314370Y66280D02*
X328370D01*
X314370D02*
Y96280D01*
X328370D01*
X749280Y10850D02*
Y192350D01*
X492780Y10850D02*
X749280D01*
X492780D02*
Y192350D01*
X749280D01*
X211990Y82450D02*
X262990D01*
X211990D02*
Y133450D01*
X262990D01*
Y82450D02*
Y133450D01*
X431305Y81535D02*
Y116585D01*
X366255Y81535D02*
X431305D01*
X366255D02*
Y116585D01*
X431305D01*
X51280Y61150D02*
Y142050D01*
X-6020Y61150D02*
X51280D01*
X-6020D02*
Y142050D01*
X51280D01*
X-220Y58600D02*
Y144600D01*
X640Y26050D02*
X436240D01*
Y-650D02*
Y26050D01*
X640Y-650D02*
X436240D01*
X640D02*
Y26050D01*
X328310Y99300D02*
Y129300D01*
X314310Y99300D02*
X328310D01*
X314310D02*
Y129300D01*
X328310D01*
X124840Y99950D02*
X172340D01*
Y52450D02*
Y99950D01*
X124840Y52450D02*
X172340D01*
X124840D02*
Y99950D01*
D13*
X69660Y87980D02*
Y99980D01*
X77660D01*
Y87980D02*
Y99980D01*
X69660Y87980D02*
X77660D01*
X316620Y142090D02*
X333620D01*
X316620D02*
Y155090D01*
X333620D01*
Y142090D02*
Y155090D01*
X64960Y134970D02*
Y146970D01*
X56960Y134970D02*
X64960D01*
X56960D02*
Y146970D01*
X64960D01*
X77660Y110840D02*
Y122840D01*
X69660Y110840D02*
X77660D01*
X69660D02*
Y122840D01*
X77660D01*
M02*
