G04*
G04 #@! TF.GenerationSoftware,Altium Limited,Altium Designer,23.1.1 (15)*
G04*
G04 Layer_Color=16711935*
%FSLAX44Y44*%
%MOMM*%
G71*
G04*
G04 #@! TF.SameCoordinates,EB36885D-2DDF-469F-ABB7-EBECF6A50CA0*
G04*
G04*
G04 #@! TF.FilePolarity,Positive*
G04*
G01*
G75*
%ADD10C,0.2000*%
%ADD13C,0.1270*%
%ADD14C,0.1524*%
D10*
X-360Y204850D02*
X437240D01*
Y176150D02*
Y204850D01*
X-360Y176150D02*
X437240D01*
X-360D02*
Y204850D01*
X103590Y151750D02*
X193590D01*
Y102250D02*
Y151750D01*
X103590Y102250D02*
X193590D01*
X103590D02*
Y151750D01*
X306270Y97280D02*
X336470D01*
Y65280D02*
Y97280D01*
X306270Y65280D02*
X336470D01*
X306270D02*
Y97280D01*
X750280Y5600D02*
Y197600D01*
X487530Y5600D02*
X750280D01*
X487530D02*
Y197600D01*
X750280D01*
X207740Y78200D02*
X267240D01*
X207740D02*
Y137700D01*
X267240D01*
Y78200D02*
Y137700D01*
X432305Y60089D02*
Y138032D01*
X365255Y60089D02*
X432305D01*
X365255D02*
Y138032D01*
X432305D01*
X52280Y58600D02*
Y144600D01*
X-7020Y58600D02*
X52280D01*
X-7020D02*
Y144600D01*
X52280D01*
X-360Y27050D02*
X437240D01*
Y-1650D02*
Y27050D01*
X-360Y-1650D02*
X437240D01*
X-360D02*
Y27050D01*
X306210Y130300D02*
X336410D01*
Y98300D02*
Y130300D01*
X306210Y98300D02*
X336410D01*
X306210D02*
Y130300D01*
X103590Y100950D02*
X193590D01*
Y51450D02*
Y100950D01*
X103590Y51450D02*
X193590D01*
X103590D02*
Y100950D01*
D13*
X449580Y125730D02*
X454660D01*
X444500D02*
X449580D01*
Y124460D02*
Y125730D01*
Y119380D02*
Y124460D01*
Y88900D02*
X454660D01*
X444500D02*
X449580D01*
Y87630D02*
Y88900D01*
Y82550D02*
Y87630D01*
D14*
X226610Y200255D02*
X223278D01*
X224944D01*
Y191924D01*
X223278Y190258D01*
X221611D01*
X219945Y191924D01*
X229942Y190258D02*
X233274D01*
X231608D01*
Y200255D01*
X229942Y198589D01*
X150114Y126758D02*
Y136755D01*
X155112D01*
X156778Y135089D01*
Y131756D01*
X155112Y130090D01*
X150114D01*
X153446D02*
X156778Y126758D01*
X166775Y135089D02*
X165109Y136755D01*
X161777D01*
X160111Y135089D01*
Y133422D01*
X161777Y131756D01*
X165109D01*
X166775Y130090D01*
Y128424D01*
X165109Y126758D01*
X161777D01*
X160111Y128424D01*
X170107Y136755D02*
X176772D01*
X173440D01*
Y126758D01*
X329558Y81210D02*
Y87875D01*
X327892Y89541D01*
X324560D01*
X322894Y87875D01*
Y81210D01*
X324560Y79544D01*
X327892D01*
X326226Y82876D02*
X329558Y79544D01*
X327892D02*
X329558Y81210D01*
X332891Y87875D02*
X334557Y89541D01*
X337889D01*
X339555Y87875D01*
Y86208D01*
X337889Y84542D01*
X336223D01*
X337889D01*
X339555Y82876D01*
Y81210D01*
X337889Y79544D01*
X334557D01*
X332891Y81210D01*
X618552Y100076D02*
X628549D01*
X625216Y96744D01*
X628549Y93412D01*
X618552D01*
X628549Y90079D02*
X618552D01*
Y85081D01*
X620218Y83415D01*
X626883D01*
X628549Y85081D01*
Y90079D01*
X618552Y80083D02*
Y76750D01*
Y78416D01*
X628549D01*
X626883Y80083D01*
X235966Y98195D02*
Y106526D01*
X234300Y108192D01*
X230968D01*
X229302Y106526D01*
Y98195D01*
X219305Y108192D02*
X225969D01*
X219305Y101528D01*
Y99861D01*
X220971Y98195D01*
X224303D01*
X225969Y99861D01*
X408535Y97536D02*
X400204D01*
X398538Y95870D01*
Y92538D01*
X400204Y90872D01*
X408535D01*
X398538Y87539D02*
Y84207D01*
Y85873D01*
X408535D01*
X406869Y87539D01*
X32385Y93430D02*
Y96762D01*
Y95096D01*
X24054D01*
X22388Y96762D01*
Y98428D01*
X24054Y100095D01*
X22388Y83433D02*
Y90098D01*
X29052Y83433D01*
X30719D01*
X32385Y85099D01*
Y88432D01*
X30719Y90098D01*
X476250Y91450D02*
X477519Y92719D01*
Y95259D01*
X476250Y96528D01*
X471171D01*
X469902Y95259D01*
Y92719D01*
X471171Y91450D01*
X476250Y88911D02*
X477519Y87641D01*
Y85102D01*
X476250Y83832D01*
X474980D01*
X473710Y85102D01*
X472441Y83832D01*
X471171D01*
X469902Y85102D01*
Y87641D01*
X471171Y88911D01*
X472441D01*
X473710Y87641D01*
X474980Y88911D01*
X476250D01*
X473710Y87641D02*
Y85102D01*
X284480Y142230D02*
X283211Y140961D01*
Y138421D01*
X284480Y137152D01*
X289559D01*
X290828Y138421D01*
Y140961D01*
X289559Y142230D01*
X290828Y148578D02*
X283211D01*
X287020Y144769D01*
Y149848D01*
X96520Y134866D02*
X95251Y133597D01*
Y131057D01*
X96520Y129788D01*
X101599D01*
X102868Y131057D01*
Y133597D01*
X101599Y134866D01*
X102868Y137405D02*
Y139945D01*
Y138675D01*
X95251D01*
X96520Y137405D01*
X102868Y148832D02*
Y143753D01*
X97790Y148832D01*
X96520D01*
X95251Y147562D01*
Y145023D01*
X96520Y143753D01*
X226610Y22455D02*
X223278D01*
X224944D01*
Y14124D01*
X223278Y12458D01*
X221611D01*
X219945Y14124D01*
X229942Y20789D02*
X231608Y22455D01*
X234941D01*
X236607Y20789D01*
Y19123D01*
X234941Y17456D01*
X233274D01*
X234941D01*
X236607Y15790D01*
Y14124D01*
X234941Y12458D01*
X231608D01*
X229942Y14124D01*
X329498Y114230D02*
Y120895D01*
X327832Y122561D01*
X324500D01*
X322834Y120895D01*
Y114230D01*
X324500Y112564D01*
X327832D01*
X326166Y115896D02*
X329498Y112564D01*
X327832D02*
X329498Y114230D01*
X339495Y112564D02*
X332831D01*
X339495Y119228D01*
Y120895D01*
X337829Y122561D01*
X334497D01*
X332831Y120895D01*
X150114Y85955D02*
Y75958D01*
X155112D01*
X156778Y77624D01*
Y79290D01*
X155112Y80956D01*
X150114D01*
X155112D01*
X156778Y82622D01*
Y84289D01*
X155112Y85955D01*
X150114D01*
X165109D02*
X161777D01*
X160111Y84289D01*
Y77624D01*
X161777Y75958D01*
X165109D01*
X166775Y77624D01*
Y84289D01*
X165109Y85955D01*
X175106D02*
X171774D01*
X170107Y84289D01*
Y77624D01*
X171774Y75958D01*
X175106D01*
X176772Y77624D01*
Y84289D01*
X175106Y85955D01*
X180104D02*
X186769D01*
X183437D01*
Y75958D01*
X190101D02*
X196765Y82622D01*
X200098Y85955D02*
Y77624D01*
X201764Y75958D01*
X205096D01*
X206762Y77624D01*
Y85955D01*
X216759Y84289D02*
X215093Y85955D01*
X211761D01*
X210095Y84289D01*
Y82622D01*
X211761Y80956D01*
X215093D01*
X216759Y79290D01*
Y77624D01*
X215093Y75958D01*
X211761D01*
X210095Y77624D01*
X220091Y75958D02*
Y85955D01*
X225090D01*
X226756Y84289D01*
Y80956D01*
X225090Y79290D01*
X220091D01*
X223424D02*
X226756Y75958D01*
X351791Y120650D02*
X350521Y119380D01*
Y116841D01*
X351791Y115572D01*
X356869D01*
X358139Y116841D01*
Y119380D01*
X356869Y120650D01*
X358139Y123189D02*
Y125728D01*
Y124459D01*
X350521D01*
X351791Y123189D01*
Y79400D02*
X350521Y78131D01*
Y75592D01*
X351791Y74322D01*
X356869D01*
X358139Y75592D01*
Y78131D01*
X356869Y79400D01*
X358139Y87018D02*
Y81940D01*
X353060Y87018D01*
X351791D01*
X350521Y85748D01*
Y83209D01*
X351791Y81940D01*
X251470Y133350D02*
X252739Y132081D01*
X255279D01*
X256548Y133350D01*
Y138429D01*
X255279Y139698D01*
X252739D01*
X251470Y138429D01*
X248931Y133350D02*
X247661Y132081D01*
X245122D01*
X243852Y133350D01*
Y134620D01*
X245122Y135890D01*
X246392D01*
X245122D01*
X243852Y137159D01*
Y138429D01*
X245122Y139698D01*
X247661D01*
X248931Y138429D01*
X50637Y48642D02*
X49368Y49911D01*
X46829D01*
X45559Y48642D01*
Y43563D01*
X46829Y42294D01*
X49368D01*
X50637Y43563D01*
X58255Y49911D02*
X53176D01*
Y46103D01*
X55716Y47372D01*
X56985D01*
X58255Y46103D01*
Y43563D01*
X56985Y42294D01*
X54446D01*
X53176Y43563D01*
X68570Y152400D02*
X67301Y153669D01*
X64761D01*
X63492Y152400D01*
Y147321D01*
X64761Y146052D01*
X67301D01*
X68570Y147321D01*
X76188Y153669D02*
X73649Y152400D01*
X71109Y149860D01*
Y147321D01*
X72379Y146052D01*
X74918D01*
X76188Y147321D01*
Y148591D01*
X74918Y149860D01*
X71109D01*
X76199Y144630D02*
X77469Y145899D01*
Y148438D01*
X76199Y149708D01*
X71121D01*
X69851Y148438D01*
Y145899D01*
X71121Y144630D01*
X77469Y142090D02*
Y137012D01*
X76199D01*
X71121Y142090D01*
X69851D01*
X473710Y119370D02*
X472441Y118101D01*
Y115561D01*
X473710Y114292D01*
X478789D01*
X480058Y115561D01*
Y118101D01*
X478789Y119370D01*
Y121909D02*
X480058Y123179D01*
Y125718D01*
X478789Y126988D01*
X473710D01*
X472441Y125718D01*
Y123179D01*
X473710Y121909D01*
X474980D01*
X476250Y123179D01*
Y126988D01*
X339098Y147320D02*
X340367Y146051D01*
X342907D01*
X344176Y147320D01*
Y152399D01*
X342907Y153668D01*
X340367D01*
X339098Y152399D01*
X336559Y153668D02*
X334019D01*
X335289D01*
Y146051D01*
X336559Y147320D01*
X330211D02*
X328941Y146051D01*
X326402D01*
X325132Y147320D01*
Y152399D01*
X326402Y153668D01*
X328941D01*
X330211Y152399D01*
Y147320D01*
X97790Y43189D02*
X99059Y44458D01*
Y46997D01*
X97790Y48267D01*
X92711D01*
X91442Y46997D01*
Y44458D01*
X92711Y43189D01*
X91442Y40649D02*
Y38110D01*
Y39380D01*
X99059D01*
X97790Y40649D01*
X91442Y34302D02*
Y31762D01*
Y33032D01*
X99059D01*
X97790Y34302D01*
M02*
