G04*
G04 #@! TF.GenerationSoftware,Altium Limited,Altium Designer,23.1.1 (15)*
G04*
G04 Layer_Physical_Order=1*
G04 Layer_Color=255*
%FSLAX44Y44*%
%MOMM*%
G71*
G04*
G04 #@! TF.SameCoordinates,EB36885D-2DDF-469F-ABB7-EBECF6A50CA0*
G04*
G04*
G04 #@! TF.FilePolarity,Positive*
G04*
G01*
G75*
%ADD14C,0.1524*%
%ADD16R,0.4000X0.4800*%
%ADD17R,1.0400X0.4600*%
G04:AMPARAMS|DCode=18|XSize=1.01mm|YSize=1.47mm|CornerRadius=0.1263mm|HoleSize=0mm|Usage=FLASHONLY|Rotation=90.000|XOffset=0mm|YOffset=0mm|HoleType=Round|Shape=RoundedRectangle|*
%AMROUNDEDRECTD18*
21,1,1.0100,1.2175,0,0,90.0*
21,1,0.7575,1.4700,0,0,90.0*
1,1,0.2525,0.6088,0.3787*
1,1,0.2525,0.6088,-0.3787*
1,1,0.2525,-0.6088,-0.3787*
1,1,0.2525,-0.6088,0.3787*
%
%ADD18ROUNDEDRECTD18*%
%ADD19R,1.6000X1.4000*%
%ADD20R,0.8000X0.6000*%
%ADD21R,0.9000X1.5000*%
%ADD22R,1.5000X0.9000*%
%ADD23R,0.9000X0.9000*%
%ADD24C,0.2700*%
%ADD25R,0.8721X1.0043*%
G04:AMPARAMS|DCode=26|XSize=1.0043mm|YSize=0.8721mm|CornerRadius=0.4361mm|HoleSize=0mm|Usage=FLASHONLY|Rotation=270.000|XOffset=0mm|YOffset=0mm|HoleType=Round|Shape=RoundedRectangle|*
%AMROUNDEDRECTD26*
21,1,1.0043,0.0000,0,0,270.0*
21,1,0.1322,0.8721,0,0,270.0*
1,1,0.8721,0.0000,-0.0661*
1,1,0.8721,0.0000,0.0661*
1,1,0.8721,0.0000,0.0661*
1,1,0.8721,0.0000,-0.0661*
%
%ADD26ROUNDEDRECTD26*%
G04:AMPARAMS|DCode=27|XSize=1.0043mm|YSize=3.1821mm|CornerRadius=0.4369mm|HoleSize=0mm|Usage=FLASHONLY|Rotation=270.000|XOffset=0mm|YOffset=0mm|HoleType=Round|Shape=RoundedRectangle|*
%AMROUNDEDRECTD27*
21,1,1.0043,2.3084,0,0,270.0*
21,1,0.1306,3.1821,0,0,270.0*
1,1,0.8737,-1.1542,-0.0653*
1,1,0.8737,-1.1542,0.0653*
1,1,0.8737,1.1542,0.0653*
1,1,0.8737,1.1542,-0.0653*
%
%ADD27ROUNDEDRECTD27*%
%ADD28R,1.3000X1.6500*%
%ADD29R,1.9000X1.8000*%
%ADD30R,1.9000X1.0000*%
%ADD31R,1.5500X1.4250*%
%ADD32R,1.3800X0.4500*%
G04:AMPARAMS|DCode=33|XSize=1.5mm|YSize=1.3mm|CornerRadius=0.1625mm|HoleSize=0mm|Usage=FLASHONLY|Rotation=0.000|XOffset=0mm|YOffset=0mm|HoleType=Round|Shape=RoundedRectangle|*
%AMROUNDEDRECTD33*
21,1,1.5000,0.9750,0,0,0.0*
21,1,1.1750,1.3000,0,0,0.0*
1,1,0.3250,0.5875,-0.4875*
1,1,0.3250,-0.5875,-0.4875*
1,1,0.3250,-0.5875,0.4875*
1,1,0.3250,0.5875,0.4875*
%
%ADD33ROUNDEDRECTD33*%
G04:AMPARAMS|DCode=34|XSize=1mm|YSize=1.1mm|CornerRadius=0.125mm|HoleSize=0mm|Usage=FLASHONLY|Rotation=180.000|XOffset=0mm|YOffset=0mm|HoleType=Round|Shape=RoundedRectangle|*
%AMROUNDEDRECTD34*
21,1,1.0000,0.8500,0,0,180.0*
21,1,0.7500,1.1000,0,0,180.0*
1,1,0.2500,-0.3750,0.4250*
1,1,0.2500,0.3750,0.4250*
1,1,0.2500,0.3750,-0.4250*
1,1,0.2500,-0.3750,-0.4250*
%
%ADD34ROUNDEDRECTD34*%
G04:AMPARAMS|DCode=35|XSize=0.7mm|YSize=0.9mm|CornerRadius=0.0875mm|HoleSize=0mm|Usage=FLASHONLY|Rotation=90.000|XOffset=0mm|YOffset=0mm|HoleType=Round|Shape=RoundedRectangle|*
%AMROUNDEDRECTD35*
21,1,0.7000,0.7250,0,0,90.0*
21,1,0.5250,0.9000,0,0,90.0*
1,1,0.1750,0.3625,0.2625*
1,1,0.1750,0.3625,-0.2625*
1,1,0.1750,-0.3625,-0.2625*
1,1,0.1750,-0.3625,0.2625*
%
%ADD35ROUNDEDRECTD35*%
%ADD36R,0.9000X0.7000*%
G04:AMPARAMS|DCode=37|XSize=0.7mm|YSize=0.9mm|CornerRadius=0.0875mm|HoleSize=0mm|Usage=FLASHONLY|Rotation=180.000|XOffset=0mm|YOffset=0mm|HoleType=Round|Shape=RoundedRectangle|*
%AMROUNDEDRECTD37*
21,1,0.7000,0.7250,0,0,180.0*
21,1,0.5250,0.9000,0,0,180.0*
1,1,0.1750,-0.2625,0.3625*
1,1,0.1750,0.2625,0.3625*
1,1,0.1750,0.2625,-0.3625*
1,1,0.1750,-0.2625,-0.3625*
%
%ADD37ROUNDEDRECTD37*%
%ADD38R,0.7000X0.9000*%
%ADD42C,3.0150*%
%ADD49R,1.5700X1.5700*%
%ADD50C,1.5700*%
%ADD51C,0.2540*%
%ADD52C,0.6096*%
G36*
X434340Y182880D02*
X405550Y154090D01*
X398050D01*
Y154630D01*
X392280D01*
Y148590D01*
Y142550D01*
X392351D01*
X392837Y141377D01*
X391160Y139700D01*
X387350D01*
Y118110D01*
X361709D01*
X361619Y118170D01*
X360205Y118451D01*
X348455D01*
X347041Y118170D01*
X346951Y118110D01*
X342900D01*
X326390Y134620D01*
X326390Y158750D01*
X364312Y158750D01*
Y157968D01*
X365080Y156112D01*
X365808Y155384D01*
X365469Y154022D01*
X364973Y153923D01*
X364022Y153288D01*
X363516D01*
X362771Y153701D01*
X361677Y154432D01*
X360345Y154697D01*
X357990D01*
Y148590D01*
Y142483D01*
X360345D01*
X361677Y142748D01*
X362771Y143479D01*
X363516Y143892D01*
X364022D01*
X364973Y143257D01*
X366095Y143034D01*
X373345D01*
X374467Y143257D01*
X375418Y143892D01*
X376053Y144843D01*
X376276Y145965D01*
Y151215D01*
X376053Y152337D01*
X375418Y153288D01*
X374467Y153923D01*
X373345Y154146D01*
X373041D01*
X372943Y155416D01*
X373639Y156112D01*
X374408Y157968D01*
Y158750D01*
X377190D01*
X399659Y181218D01*
X400042Y181321D01*
X402288Y182618D01*
X404122Y184452D01*
X405419Y186698D01*
X405522Y187082D01*
X407670Y189230D01*
Y198120D01*
X410160Y200610D01*
X415832D01*
X416172Y199340D01*
X415260Y198814D01*
X413326Y196880D01*
X411958Y194510D01*
X411250Y191868D01*
Y191770D01*
X432030D01*
Y191868D01*
X431322Y194510D01*
X429954Y196880D01*
X428020Y198814D01*
X427108Y199340D01*
X427448Y200610D01*
X434340D01*
Y182880D01*
D02*
G37*
G36*
X27013Y166995D02*
X26228Y165100D01*
X31750D01*
Y163830D01*
X33020D01*
Y158308D01*
X34915Y159093D01*
X36487Y160665D01*
X36830Y161492D01*
Y156790D01*
X36558Y156972D01*
X35225Y157237D01*
X32870D01*
Y151130D01*
Y145023D01*
X35225D01*
X36558Y145288D01*
X37178Y145702D01*
X46740Y136140D01*
X41300D01*
Y126475D01*
X40030D01*
Y125205D01*
X29740D01*
Y116810D01*
X30480D01*
Y95250D01*
X31980D01*
Y93390D01*
X31440D01*
Y89870D01*
X40880D01*
X50320D01*
Y93390D01*
X49780D01*
Y95250D01*
X52070D01*
Y65053D01*
X51425Y65697D01*
X49530Y66482D01*
Y60960D01*
Y55438D01*
X51425Y56223D01*
X52070Y56867D01*
Y53340D01*
X24130D01*
X23719Y52929D01*
X23042D01*
X21920Y52705D01*
X20970Y52070D01*
X20492Y51355D01*
X19754Y52459D01*
X18625Y53214D01*
X17292Y53479D01*
X14937D01*
Y47372D01*
X13667D01*
Y46102D01*
X6560D01*
Y44747D01*
X6825Y43415D01*
X7580Y42285D01*
X8142Y41910D01*
X2590D01*
Y78560D01*
X5240D01*
Y69120D01*
X14280D01*
X23320D01*
Y78560D01*
X26320D01*
Y84830D01*
X14280D01*
Y86100D01*
X13010D01*
Y93640D01*
X2590D01*
Y101560D01*
X13010D01*
Y113100D01*
X14280D01*
Y114370D01*
X26320D01*
Y124640D01*
X23320D01*
Y134080D01*
X14280D01*
X5240D01*
Y124640D01*
X2590D01*
Y161372D01*
X2883Y160665D01*
X4455Y159093D01*
X6350Y158308D01*
Y163830D01*
X7620D01*
Y165100D01*
X13142D01*
X12357Y166995D01*
X11713Y167640D01*
X14957D01*
X14313Y166995D01*
X13528Y165100D01*
X24572D01*
X23787Y166995D01*
X23143Y167640D01*
X27657D01*
X27013Y166995D01*
D02*
G37*
G36*
X323850Y158750D02*
Y138430D01*
X306070D01*
X303661Y140838D01*
Y142138D01*
X302893Y143993D01*
X301473Y145413D01*
X299618Y146181D01*
X298319D01*
X295004Y149496D01*
Y156547D01*
X296232Y157776D01*
X297001Y159631D01*
Y161639D01*
X296232Y163494D01*
X294813Y164914D01*
X292957Y165683D01*
X290949D01*
X289094Y164914D01*
X287673Y163494D01*
X286905Y161639D01*
Y161290D01*
X253213D01*
X253200Y161322D01*
X251779Y162743D01*
X249924Y163511D01*
X247916D01*
X246061Y162743D01*
X244641Y161322D01*
X244627Y161290D01*
X99060D01*
X87630Y149860D01*
Y135890D01*
X79767Y128027D01*
X78930Y127681D01*
X77660Y127840D01*
Y127840D01*
X77660Y127840D01*
X69660D01*
Y126810D01*
X54610Y111760D01*
X50320D01*
Y113330D01*
X40880D01*
Y115870D01*
X50320D01*
Y118900D01*
X53340Y121920D01*
Y142240D01*
X64770D01*
X67344Y144815D01*
X68331Y144005D01*
X67818Y143237D01*
X67553Y141905D01*
Y139550D01*
X79767D01*
Y141905D01*
X79502Y143237D01*
X78771Y144331D01*
X78358Y145076D01*
Y145582D01*
X78993Y146533D01*
X79216Y147655D01*
Y154905D01*
X78993Y156027D01*
X78740Y156406D01*
Y157480D01*
X96520Y175260D01*
X307340D01*
X323850Y158750D01*
D02*
G37*
G36*
X412750Y80010D02*
X420370Y72390D01*
X420370Y58420D01*
X417830Y55880D01*
X379730D01*
X373380Y62230D01*
Y76200D01*
X370840Y78740D01*
X361709D01*
X361619Y78800D01*
X360205Y79081D01*
X348455D01*
X347948Y78980D01*
X347819Y79003D01*
X347733Y79237D01*
X348163Y79923D01*
X348663Y80388D01*
X353060D01*
Y88240D01*
X344208D01*
Y84635D01*
X344353Y83909D01*
X343240Y82995D01*
X342634Y83246D01*
X340626D01*
X339090Y82610D01*
X337820Y83186D01*
Y96520D01*
X344170Y102870D01*
X345522D01*
X345841Y102392D01*
X347041Y101590D01*
X348455Y101309D01*
X360205D01*
X361619Y101590D01*
X362818Y102392D01*
X363620Y103591D01*
X363901Y105005D01*
Y107361D01*
X365630Y109090D01*
X366707Y108370D01*
X366687Y108324D01*
X370939D01*
Y112576D01*
X370893Y112557D01*
X370173Y113633D01*
X372611Y116071D01*
X387350D01*
X388130Y116226D01*
X388792Y116668D01*
X389234Y117330D01*
X389389Y118110D01*
Y132849D01*
X390740Y134200D01*
X391943Y133607D01*
X391900Y133280D01*
X397510D01*
Y140185D01*
X397251Y140711D01*
X398780Y142240D01*
X412750D01*
Y80010D01*
D02*
G37*
G36*
X253990Y128700D02*
Y128402D01*
X253762Y127850D01*
X253340Y127428D01*
X252788Y127200D01*
X252192D01*
X251640Y127428D01*
X251218Y127850D01*
X250990Y128402D01*
Y128700D01*
Y136700D01*
X253990D01*
Y128700D01*
D02*
G37*
G36*
X248990D02*
Y128402D01*
X248762Y127850D01*
X248340Y127428D01*
X247788Y127200D01*
X247192D01*
X246640Y127428D01*
X246218Y127850D01*
X245990Y128402D01*
Y128700D01*
Y136700D01*
X248990D01*
Y128700D01*
D02*
G37*
G36*
X243990D02*
Y128402D01*
X243762Y127850D01*
X243340Y127428D01*
X242788Y127200D01*
X242192D01*
X241640Y127428D01*
X241218Y127850D01*
X240990Y128402D01*
Y128700D01*
Y136700D01*
X243990D01*
X243990Y128700D01*
D02*
G37*
G36*
X238990D02*
Y128402D01*
X238762Y127850D01*
X238340Y127428D01*
X237788Y127200D01*
X237192D01*
X236640Y127428D01*
X236218Y127850D01*
X235990Y128402D01*
Y128700D01*
Y136700D01*
X238990D01*
Y128700D01*
D02*
G37*
G36*
X233990D02*
Y128402D01*
X233762Y127850D01*
X233340Y127428D01*
X232788Y127200D01*
X232192D01*
X231640Y127428D01*
X231218Y127850D01*
X230990Y128402D01*
Y128700D01*
X230990D01*
Y136700D01*
X233990D01*
Y128700D01*
D02*
G37*
G36*
X228990D02*
Y128402D01*
X228762Y127850D01*
X228340Y127428D01*
X227788Y127200D01*
X227192D01*
X226640Y127428D01*
X226218Y127850D01*
X225990Y128402D01*
Y128700D01*
Y136700D01*
X228990D01*
Y128700D01*
D02*
G37*
G36*
X223990D02*
Y128402D01*
X223762Y127850D01*
X223340Y127428D01*
X222788Y127200D01*
X222192D01*
X221640Y127428D01*
X221218Y127850D01*
X220990Y128402D01*
Y128700D01*
Y136700D01*
X223990D01*
Y128700D01*
D02*
G37*
G36*
X266240Y121450D02*
X257942D01*
X257390Y121678D01*
X256968Y122100D01*
X256740Y122652D01*
Y122950D01*
Y123248D01*
X256968Y123800D01*
X257390Y124222D01*
X257942Y124450D01*
X266240D01*
Y121450D01*
D02*
G37*
G36*
X217590Y124222D02*
X218012Y123800D01*
X218240Y123248D01*
Y122950D01*
Y122652D01*
X218012Y122100D01*
X217590Y121678D01*
X217038Y121450D01*
X208740D01*
Y124450D01*
X217038D01*
X217590Y124222D01*
D02*
G37*
G36*
X266240Y116450D02*
X257942D01*
X257390Y116678D01*
X256968Y117100D01*
X256740Y117652D01*
Y117950D01*
Y118248D01*
X256968Y118800D01*
X257390Y119222D01*
X257942Y119450D01*
X266240D01*
Y116450D01*
D02*
G37*
G36*
X217590Y119222D02*
X218012Y118800D01*
X218240Y118248D01*
Y117950D01*
Y117652D01*
X218012Y117100D01*
X217590Y116678D01*
X217038Y116450D01*
X208740D01*
Y119450D01*
X217038D01*
X217590Y119222D01*
D02*
G37*
G36*
X266240Y111450D02*
X257942D01*
X257390Y111678D01*
X256968Y112100D01*
X256740Y112652D01*
Y112950D01*
Y113248D01*
X256968Y113800D01*
X257390Y114222D01*
X257942Y114450D01*
X258240D01*
Y114450D01*
X266240D01*
Y111450D01*
D02*
G37*
G36*
X216740Y114450D02*
X217038D01*
X217590Y114222D01*
X218012Y113800D01*
X218240Y113248D01*
Y112950D01*
Y112652D01*
X218012Y112100D01*
X217590Y111678D01*
X217038Y111450D01*
X208740D01*
Y114450D01*
X216740Y114450D01*
D02*
G37*
G36*
X266240Y106450D02*
X257942D01*
X257390Y106678D01*
X256968Y107100D01*
X256740Y107652D01*
Y107950D01*
Y108248D01*
X256968Y108800D01*
X257390Y109222D01*
X257942Y109450D01*
X266240D01*
Y106450D01*
D02*
G37*
G36*
X217590Y109222D02*
X218012Y108800D01*
X218240Y108248D01*
Y107950D01*
Y107652D01*
X218012Y107100D01*
X217590Y106678D01*
X217038Y106450D01*
X208740D01*
Y109450D01*
X217038D01*
X217590Y109222D01*
D02*
G37*
G36*
X266240Y101450D02*
X258240Y101450D01*
X257942D01*
X257390Y101678D01*
X256968Y102100D01*
X256740Y102652D01*
Y102950D01*
Y103248D01*
X256968Y103800D01*
X257390Y104222D01*
X257942Y104450D01*
X266240D01*
Y101450D01*
D02*
G37*
G36*
X217590Y104222D02*
X218012Y103800D01*
X218240Y103248D01*
Y102950D01*
Y102652D01*
X218012Y102100D01*
X217590Y101678D01*
X217038Y101450D01*
X216740D01*
Y101450D01*
X208740D01*
Y104450D01*
X217038D01*
X217590Y104222D01*
D02*
G37*
G36*
X266240Y96450D02*
X257942D01*
X257390Y96678D01*
X256968Y97100D01*
X256740Y97652D01*
Y97950D01*
Y98248D01*
X256968Y98800D01*
X257390Y99222D01*
X257942Y99450D01*
X266240D01*
Y96450D01*
D02*
G37*
G36*
X217590Y99222D02*
X218012Y98800D01*
X218240Y98248D01*
Y97950D01*
Y97652D01*
X218012Y97100D01*
X217590Y96678D01*
X217038Y96450D01*
X208740D01*
Y99450D01*
X217038D01*
X217590Y99222D01*
D02*
G37*
G36*
X266240Y91450D02*
X257942D01*
X257390Y91678D01*
X256968Y92100D01*
X256740Y92652D01*
Y92950D01*
Y93248D01*
X256968Y93800D01*
X257390Y94222D01*
X257942Y94450D01*
X266240D01*
Y91450D01*
D02*
G37*
G36*
X217590Y94222D02*
X218012Y93800D01*
X218240Y93248D01*
Y92950D01*
Y92652D01*
X218012Y92100D01*
X217590Y91678D01*
X217038Y91450D01*
X208740D01*
Y94450D01*
X217038D01*
X217590Y94222D01*
D02*
G37*
G36*
X254240Y94700D02*
X250740Y91200D01*
X220740D01*
Y124700D01*
X254240D01*
Y94700D01*
D02*
G37*
G36*
X253340Y88472D02*
X253762Y88050D01*
X253990Y87498D01*
Y87200D01*
Y79200D01*
X250990D01*
Y87200D01*
Y87498D01*
X251218Y88050D01*
X251640Y88472D01*
X252192Y88700D01*
X252788D01*
X253340Y88472D01*
D02*
G37*
G36*
X248340D02*
X248762Y88050D01*
X248990Y87498D01*
Y87200D01*
Y79200D01*
X245990D01*
Y87200D01*
Y87498D01*
X246218Y88050D01*
X246640Y88472D01*
X247192Y88700D01*
X247788D01*
X248340Y88472D01*
D02*
G37*
G36*
X243340D02*
X243762Y88050D01*
X243990Y87498D01*
Y87200D01*
X243990D01*
Y79200D01*
X240990D01*
Y87200D01*
Y87498D01*
X241218Y88050D01*
X241640Y88472D01*
X242192Y88700D01*
X242788D01*
X243340Y88472D01*
D02*
G37*
G36*
X238340D02*
X238762Y88050D01*
X238990Y87498D01*
Y87200D01*
Y79200D01*
X235990D01*
Y87200D01*
Y87498D01*
X236218Y88050D01*
X236640Y88472D01*
X237192Y88700D01*
X237788D01*
X238340Y88472D01*
D02*
G37*
G36*
X233340D02*
X233762Y88050D01*
X233990Y87498D01*
Y87200D01*
Y79200D01*
X230990D01*
X230990Y87200D01*
Y87498D01*
X231218Y88050D01*
X231640Y88472D01*
X232192Y88700D01*
X232788D01*
X233340Y88472D01*
D02*
G37*
G36*
X228340D02*
X228762Y88050D01*
X228990Y87498D01*
Y87200D01*
Y79200D01*
X225990D01*
Y87200D01*
Y87498D01*
X226218Y88050D01*
X226640Y88472D01*
X227192Y88700D01*
X227788D01*
X228340Y88472D01*
D02*
G37*
G36*
X223340D02*
X223762Y88050D01*
X223990Y87498D01*
Y87200D01*
Y79200D01*
X220990D01*
Y87200D01*
Y87498D01*
X221218Y88050D01*
X221640Y88472D01*
X222192Y88700D01*
X222788D01*
X223340Y88472D01*
D02*
G37*
%LPC*%
G36*
X432030Y189230D02*
X422910D01*
Y180110D01*
X423008D01*
X425650Y180818D01*
X428020Y182186D01*
X429954Y184120D01*
X431322Y186490D01*
X432030Y189132D01*
Y189230D01*
D02*
G37*
G36*
X420370D02*
X411250D01*
Y189132D01*
X411958Y186490D01*
X413326Y184120D01*
X415260Y182186D01*
X417630Y180818D01*
X420272Y180110D01*
X420370D01*
Y189230D01*
D02*
G37*
G36*
X344760Y153430D02*
X338290D01*
Y149860D01*
X344760D01*
Y153430D01*
D02*
G37*
G36*
X389740Y154630D02*
X383970D01*
Y149860D01*
X389740D01*
Y154630D01*
D02*
G37*
G36*
X355450Y154697D02*
X353095D01*
X351763Y154432D01*
X350633Y153677D01*
X349878Y152547D01*
X349613Y151215D01*
Y149860D01*
X355450D01*
Y154697D01*
D02*
G37*
G36*
X335750Y153430D02*
X329280D01*
Y149860D01*
X335750D01*
Y153430D01*
D02*
G37*
G36*
X344760Y147320D02*
X338290D01*
Y143750D01*
X344760D01*
Y147320D01*
D02*
G37*
G36*
X335750D02*
X329280D01*
Y143750D01*
X335750D01*
Y147320D01*
D02*
G37*
G36*
X389740D02*
X383970D01*
Y142550D01*
X389740D01*
Y147320D01*
D02*
G37*
G36*
X355450D02*
X349613D01*
Y145965D01*
X349878Y144633D01*
X350633Y143503D01*
X351763Y142748D01*
X353095Y142483D01*
X355450D01*
Y147320D01*
D02*
G37*
G36*
X377150Y139464D02*
Y133280D01*
X382760D01*
X382603Y134472D01*
X381908Y136151D01*
X380802Y137592D01*
X379360Y138699D01*
X377681Y139394D01*
X377150Y139464D01*
D02*
G37*
G36*
X374610Y139464D02*
X374079Y139394D01*
X372400Y138699D01*
X370958Y137592D01*
X369852Y136151D01*
X369157Y134472D01*
X369000Y133280D01*
X374610D01*
Y139464D01*
D02*
G37*
G36*
X360205Y138002D02*
X355600D01*
Y130150D01*
X364452D01*
Y133755D01*
X364128Y135380D01*
X363208Y136758D01*
X361830Y137678D01*
X360205Y138002D01*
D02*
G37*
G36*
X353060D02*
X348455D01*
X346830Y137678D01*
X345452Y136758D01*
X344532Y135380D01*
X344208Y133755D01*
Y130150D01*
X353060D01*
Y138002D01*
D02*
G37*
G36*
X374610Y130740D02*
X369000D01*
X369157Y129548D01*
X369852Y127869D01*
X370958Y126428D01*
X372400Y125322D01*
X374079Y124626D01*
X374610Y124556D01*
Y130740D01*
D02*
G37*
G36*
X382760D02*
X377150D01*
Y124556D01*
X377681Y124626D01*
X379360Y125322D01*
X380802Y126428D01*
X381908Y127869D01*
X382603Y129548D01*
X382760Y130740D01*
D02*
G37*
G36*
X364452Y127610D02*
X355600D01*
Y119758D01*
X360205D01*
X361830Y120082D01*
X363208Y121002D01*
X364128Y122380D01*
X364452Y124005D01*
Y127610D01*
D02*
G37*
G36*
X353060D02*
X344208D01*
Y124005D01*
X344532Y122380D01*
X345452Y121002D01*
X346830Y120082D01*
X348455Y119758D01*
X353060D01*
Y127610D01*
D02*
G37*
G36*
X30480Y162560D02*
X26228D01*
X27013Y160665D01*
X28585Y159093D01*
X30480Y158308D01*
Y162560D01*
D02*
G37*
G36*
X24572D02*
X20320D01*
Y158308D01*
X22215Y159093D01*
X23787Y160665D01*
X24572Y162560D01*
D02*
G37*
G36*
X17780D02*
X13528D01*
X14313Y160665D01*
X15885Y159093D01*
X17780Y158308D01*
Y162560D01*
D02*
G37*
G36*
X13142D02*
X8890D01*
Y158308D01*
X10785Y159093D01*
X12357Y160665D01*
X13142Y162560D01*
D02*
G37*
G36*
X30330Y157237D02*
X27975D01*
X26643Y156972D01*
X25513Y156217D01*
X24758Y155087D01*
X24493Y153755D01*
Y152400D01*
X30330D01*
Y157237D01*
D02*
G37*
G36*
Y149860D02*
X24493D01*
Y148505D01*
X24758Y147173D01*
X25513Y146043D01*
X26643Y145288D01*
X27975Y145023D01*
X30330D01*
Y149860D01*
D02*
G37*
G36*
X23320Y146140D02*
X15550D01*
Y136620D01*
X23320D01*
Y146140D01*
D02*
G37*
G36*
X13010D02*
X5240D01*
Y136620D01*
X13010D01*
Y146140D01*
D02*
G37*
G36*
X38760Y136140D02*
X29740D01*
Y127745D01*
X38760D01*
Y136140D01*
D02*
G37*
G36*
X26320Y111830D02*
X15550D01*
Y101560D01*
X26320D01*
Y111830D01*
D02*
G37*
G36*
Y93640D02*
X15550D01*
Y87370D01*
X26320D01*
Y93640D01*
D02*
G37*
G36*
X50320Y87330D02*
X40880D01*
X31440D01*
Y86390D01*
X29740D01*
Y77995D01*
X40030D01*
X50320D01*
Y83810D01*
Y87330D01*
D02*
G37*
G36*
Y75455D02*
X41300D01*
Y67060D01*
X50320D01*
Y75455D01*
D02*
G37*
G36*
X38760D02*
X29740D01*
Y67060D01*
X38760D01*
Y75455D01*
D02*
G37*
G36*
X46990Y66482D02*
X45095Y65697D01*
X43523Y64125D01*
X42738Y62230D01*
X46990D01*
Y66482D01*
D02*
G37*
G36*
X30818Y65986D02*
Y61733D01*
X35070D01*
X34285Y63629D01*
X32713Y65201D01*
X30818Y65986D01*
D02*
G37*
G36*
X28278D02*
X26382Y65201D01*
X24810Y63629D01*
X24025Y61733D01*
X28278D01*
Y65986D01*
D02*
G37*
G36*
X23320Y66580D02*
X15550D01*
Y57060D01*
X23320D01*
Y66580D01*
D02*
G37*
G36*
X13010D02*
X5240D01*
Y57060D01*
X13010D01*
Y66580D01*
D02*
G37*
G36*
X46990Y59690D02*
X42738D01*
X43523Y57795D01*
X45095Y56223D01*
X46990Y55438D01*
Y59690D01*
D02*
G37*
G36*
X35070Y59193D02*
X30818D01*
Y54941D01*
X32713Y55726D01*
X34285Y57298D01*
X35070Y59193D01*
D02*
G37*
G36*
X28278D02*
X24025D01*
X24810Y57298D01*
X26382Y55726D01*
X28278Y54941D01*
Y59193D01*
D02*
G37*
G36*
X12397Y53479D02*
X10042D01*
X8710Y53214D01*
X7580Y52459D01*
X6825Y51330D01*
X6560Y49997D01*
Y48642D01*
X12397D01*
Y53479D01*
D02*
G37*
G36*
X320960Y153430D02*
X314490D01*
Y149860D01*
X320960D01*
Y153430D01*
D02*
G37*
G36*
X311950D02*
X305480D01*
Y149860D01*
X311950D01*
Y153430D01*
D02*
G37*
G36*
X320960Y147320D02*
X314490D01*
Y143750D01*
X320960D01*
Y147320D01*
D02*
G37*
G36*
X311950D02*
X305480D01*
Y143750D01*
X311950D01*
Y147320D01*
D02*
G37*
G36*
X65500Y139310D02*
X62230D01*
Y135640D01*
X65500D01*
Y139310D01*
D02*
G37*
G36*
X59690D02*
X56420D01*
Y135640D01*
X59690D01*
Y139310D01*
D02*
G37*
G36*
X79767Y137010D02*
X74930D01*
Y131173D01*
X76285D01*
X77617Y131438D01*
X78747Y132193D01*
X79502Y133322D01*
X79767Y134655D01*
Y137010D01*
D02*
G37*
G36*
X72390D02*
X67553D01*
Y134655D01*
X67818Y133322D01*
X68573Y132193D01*
X69703Y131438D01*
X71035Y131173D01*
X72390D01*
Y137010D01*
D02*
G37*
G36*
X65500Y133100D02*
X62230D01*
Y129430D01*
X65500D01*
Y133100D01*
D02*
G37*
G36*
X59690D02*
X56420D01*
Y129430D01*
X59690D01*
Y133100D01*
D02*
G37*
G36*
X400050Y139464D02*
Y133280D01*
X405660D01*
X405503Y134472D01*
X404808Y136151D01*
X403702Y137592D01*
X402260Y138699D01*
X400581Y139394D01*
X400050Y139464D01*
D02*
G37*
G36*
X405660Y130740D02*
X400050D01*
Y124556D01*
X400581Y124626D01*
X402260Y125322D01*
X403702Y126428D01*
X404808Y127869D01*
X405503Y129548D01*
X405660Y130740D01*
D02*
G37*
G36*
X397510D02*
X391900D01*
X392057Y129548D01*
X392752Y127869D01*
X393858Y126428D01*
X395300Y125322D01*
X396979Y124626D01*
X397510Y124556D01*
Y130740D01*
D02*
G37*
G36*
X400509Y119124D02*
Y114872D01*
X404761D01*
X403976Y116767D01*
X402404Y118339D01*
X400509Y119124D01*
D02*
G37*
G36*
X397969D02*
X396073Y118339D01*
X394501Y116767D01*
X393716Y114872D01*
X397969D01*
Y119124D01*
D02*
G37*
G36*
X373479Y112576D02*
Y108324D01*
X377732D01*
X376947Y110219D01*
X375375Y111791D01*
X373479Y112576D01*
D02*
G37*
G36*
X404761Y112332D02*
X400509D01*
Y108080D01*
X402404Y108865D01*
X403976Y110437D01*
X404761Y112332D01*
D02*
G37*
G36*
X397969D02*
X393716D01*
X394501Y110437D01*
X396073Y108865D01*
X397969Y108080D01*
Y112332D01*
D02*
G37*
G36*
X400149Y106226D02*
Y101974D01*
X404402D01*
X403617Y103869D01*
X402045Y105441D01*
X400149Y106226D01*
D02*
G37*
G36*
X397609D02*
X395714Y105441D01*
X394142Y103869D01*
X393357Y101974D01*
X397609D01*
Y106226D01*
D02*
G37*
G36*
X377732Y105784D02*
X373479D01*
Y101531D01*
X375375Y102317D01*
X376947Y103888D01*
X377732Y105784D01*
D02*
G37*
G36*
X370939D02*
X366687D01*
X367472Y103888D01*
X369044Y102317D01*
X370939Y101531D01*
Y105784D01*
D02*
G37*
G36*
X404402Y99434D02*
X400149D01*
Y95181D01*
X402045Y95967D01*
X403617Y97538D01*
X404402Y99434D01*
D02*
G37*
G36*
X397609D02*
X393357D01*
X394142Y97538D01*
X395714Y95967D01*
X397609Y95181D01*
Y99434D01*
D02*
G37*
G36*
X360205Y98632D02*
X355600D01*
Y90780D01*
X364452D01*
Y94385D01*
X364128Y96010D01*
X363208Y97388D01*
X361830Y98308D01*
X360205Y98632D01*
D02*
G37*
G36*
X353060D02*
X348455D01*
X346830Y98308D01*
X345452Y97388D01*
X344532Y96010D01*
X344208Y94385D01*
Y90780D01*
X353060D01*
Y98632D01*
D02*
G37*
G36*
X373479Y94796D02*
Y90544D01*
X377732D01*
X376947Y92439D01*
X375375Y94011D01*
X373479Y94796D01*
D02*
G37*
G36*
X370939D02*
X369044Y94011D01*
X367472Y92439D01*
X366687Y90544D01*
X370939D01*
Y94796D01*
D02*
G37*
G36*
X400304Y93406D02*
Y89154D01*
X404556D01*
X403771Y91049D01*
X402199Y92621D01*
X400304Y93406D01*
D02*
G37*
G36*
X397764D02*
X395869Y92621D01*
X394297Y91049D01*
X393512Y89154D01*
X397764D01*
Y93406D01*
D02*
G37*
G36*
X377732Y88004D02*
X373479D01*
Y83751D01*
X375375Y84537D01*
X376947Y86108D01*
X377732Y88004D01*
D02*
G37*
G36*
X370939D02*
X366687D01*
X367472Y86108D01*
X369044Y84537D01*
X370939Y83751D01*
Y88004D01*
D02*
G37*
G36*
X404556Y86614D02*
X400304D01*
Y82362D01*
X402199Y83147D01*
X403771Y84719D01*
X404556Y86614D01*
D02*
G37*
G36*
X397764D02*
X393512D01*
X394297Y84719D01*
X395869Y83147D01*
X397764Y82362D01*
Y86614D01*
D02*
G37*
G36*
X364452Y88240D02*
X355600D01*
Y80388D01*
X360205D01*
X361830Y80712D01*
X363208Y81632D01*
X364128Y83010D01*
X364452Y84635D01*
Y88240D01*
D02*
G37*
G36*
X410322Y73731D02*
X400050D01*
Y67380D01*
X417209D01*
X417053Y68566D01*
X416357Y70247D01*
X415249Y71690D01*
X413806Y72797D01*
X412126Y73494D01*
X410322Y73731D01*
D02*
G37*
G36*
X397510D02*
X387238D01*
X385434Y73494D01*
X383754Y72797D01*
X382311Y71690D01*
X381203Y70247D01*
X380507Y68566D01*
X380351Y67380D01*
X397510D01*
Y73731D01*
D02*
G37*
G36*
X417209Y64840D02*
X400050D01*
Y58489D01*
X410322D01*
X412126Y58726D01*
X413806Y59422D01*
X415249Y60530D01*
X416357Y61973D01*
X417053Y63654D01*
X417209Y64840D01*
D02*
G37*
G36*
X397510D02*
X380351D01*
X380507Y63654D01*
X381203Y61973D01*
X382311Y60530D01*
X383754Y59422D01*
X385434Y58726D01*
X387238Y58489D01*
X397510D01*
Y64840D01*
D02*
G37*
%LPD*%
D14*
X269466Y107725D02*
X274328Y102863D01*
X264740Y107950D02*
X264965Y107725D01*
X269466D01*
X266646Y112950D02*
X267807Y111789D01*
X274328Y102863D02*
X274956D01*
X273619Y111789D02*
X274464Y110944D01*
X261490Y112950D02*
X266646D01*
X267807Y111789D02*
X273619D01*
X78870Y107442D02*
X79026Y107286D01*
X74898Y108335D02*
X75791Y107442D01*
X79026Y107286D02*
X80835D01*
X75791Y107442D02*
X78870D01*
X80835Y107286D02*
X83632Y110084D01*
X73660Y110240D02*
X74898Y109002D01*
X75791Y103378D02*
X77186D01*
X80835Y103222D02*
X83726Y100330D01*
X77343Y103222D02*
X80835D01*
X83632Y110084D02*
Y110177D01*
X74898Y102485D02*
X75791Y103378D01*
X77186D02*
X77343Y103222D01*
X83726Y100330D02*
X83820D01*
X74898Y108335D02*
Y109002D01*
X50730Y103378D02*
X71529D01*
X41538Y107442D02*
X71529D01*
X50170Y102818D02*
X50730Y103378D01*
X40880Y101600D02*
X42098Y102818D01*
X40880Y108100D02*
X41538Y107442D01*
X42098Y102818D02*
X50170D01*
X71529Y103378D02*
X72422Y102485D01*
X74898Y101818D02*
Y102485D01*
X73660Y100580D02*
X74898Y101818D01*
X72422D02*
X73660Y100580D01*
X72422Y101818D02*
Y102485D01*
Y108335D02*
Y109002D01*
X73660Y110240D01*
X71529Y107442D02*
X72422Y108335D01*
X299720Y96670D02*
Y97670D01*
X244808Y139788D02*
X247490Y137106D01*
X235100Y146050D02*
X236100D01*
X242362Y139788D01*
X244808D01*
X247490Y131950D02*
Y137106D01*
X237715Y136687D02*
X237812Y136784D01*
X235134Y139462D02*
X237812Y136784D01*
X237490Y135200D02*
X237715Y135425D01*
Y136687D01*
X219707Y139462D02*
X235134D01*
X200660Y138580D02*
X218825D01*
X219707Y139462D01*
D16*
X73660Y87380D02*
D03*
Y100580D02*
D03*
X60960Y147570D02*
D03*
Y134370D02*
D03*
X73660Y123440D02*
D03*
Y110240D02*
D03*
D17*
X313220Y148590D02*
D03*
X337020D02*
D03*
D18*
X449580Y132989D02*
D03*
Y113389D02*
D03*
Y96159D02*
D03*
Y76559D02*
D03*
D19*
X112590Y112000D02*
D03*
X184590D02*
D03*
X112590Y142000D02*
D03*
X184590D02*
D03*
X112590Y61200D02*
D03*
X184590D02*
D03*
X112590Y91200D02*
D03*
X184590D02*
D03*
D20*
X311270Y90780D02*
D03*
Y71780D02*
D03*
X331470Y81280D02*
D03*
X311210Y123800D02*
D03*
Y104800D02*
D03*
X331410Y114300D02*
D03*
D21*
X673630Y189100D02*
D03*
X660930D02*
D03*
X648230D02*
D03*
X635530D02*
D03*
X622830D02*
D03*
X610130D02*
D03*
X597430D02*
D03*
X584730D02*
D03*
X572030D02*
D03*
X559330D02*
D03*
X546630D02*
D03*
X533930D02*
D03*
X521230D02*
D03*
X508530D02*
D03*
Y14100D02*
D03*
X521230D02*
D03*
X533930D02*
D03*
X546630D02*
D03*
X559330D02*
D03*
X572030D02*
D03*
X584730D02*
D03*
X597430D02*
D03*
X610130D02*
D03*
X622830D02*
D03*
X635530D02*
D03*
X648230D02*
D03*
X660930D02*
D03*
X673630D02*
D03*
D22*
X496030Y158750D02*
D03*
Y146050D02*
D03*
Y133350D02*
D03*
Y120650D02*
D03*
Y107950D02*
D03*
Y95250D02*
D03*
Y82550D02*
D03*
Y69850D02*
D03*
Y57150D02*
D03*
Y44450D02*
D03*
D23*
X610430Y130600D02*
D03*
Y116600D02*
D03*
Y102600D02*
D03*
X596430Y130600D02*
D03*
Y116600D02*
D03*
Y102600D02*
D03*
X582430Y130600D02*
D03*
Y116600D02*
D03*
Y102600D02*
D03*
D24*
X261490Y92950D02*
D03*
Y97950D02*
D03*
Y102950D02*
D03*
X264740Y107950D02*
D03*
X261490Y112950D02*
D03*
Y117950D02*
D03*
Y122950D02*
D03*
X252490Y131950D02*
D03*
X247490D02*
D03*
X242490D02*
D03*
X237490Y135200D02*
D03*
X232490Y131950D02*
D03*
X227490D02*
D03*
X222490D02*
D03*
X213490Y122950D02*
D03*
Y117950D02*
D03*
Y112950D02*
D03*
X210740Y107950D02*
D03*
X213490Y102950D02*
D03*
Y97950D02*
D03*
Y92950D02*
D03*
X222490Y83950D02*
D03*
X227490D02*
D03*
X232490D02*
D03*
X237490Y81200D02*
D03*
X242490Y83950D02*
D03*
X247490D02*
D03*
X252490D02*
D03*
D25*
X421680Y132010D02*
D03*
D26*
X398780D02*
D03*
X375880D02*
D03*
D27*
X398780Y66110D02*
D03*
D28*
X14280Y135350D02*
D03*
Y67850D02*
D03*
D29*
Y113100D02*
D03*
D30*
Y86100D02*
D03*
D31*
X40030Y126475D02*
D03*
Y76725D02*
D03*
D32*
X40880Y114600D02*
D03*
Y108100D02*
D03*
Y101600D02*
D03*
Y95100D02*
D03*
Y88600D02*
D03*
D33*
X474980Y131420D02*
D03*
Y112420D02*
D03*
X354330Y109880D02*
D03*
Y128880D02*
D03*
Y70510D02*
D03*
Y89510D02*
D03*
D34*
X285750Y120260D02*
D03*
Y103260D02*
D03*
D35*
X476400Y10160D02*
D03*
X463400D02*
D03*
X275440Y134620D02*
D03*
X288440D02*
D03*
X26667Y47372D02*
D03*
X13667D02*
D03*
X44600Y151130D02*
D03*
X31600D02*
D03*
X356720Y148590D02*
D03*
X369720D02*
D03*
X476400Y24130D02*
D03*
X463400D02*
D03*
D36*
X261770Y146050D02*
D03*
X248770D02*
D03*
X443080Y60960D02*
D03*
X456080D02*
D03*
X288440Y146050D02*
D03*
X275440D02*
D03*
X222100D02*
D03*
X235100D02*
D03*
X391010Y148590D02*
D03*
X404010D02*
D03*
D37*
X97790Y117244D02*
D03*
Y104244D02*
D03*
X73660Y138280D02*
D03*
Y151280D02*
D03*
X474980Y95400D02*
D03*
Y82400D02*
D03*
X96520Y63350D02*
D03*
Y76350D02*
D03*
X236220Y55730D02*
D03*
Y68730D02*
D03*
X247650Y55730D02*
D03*
Y68730D02*
D03*
D38*
X299720Y123340D02*
D03*
Y110340D02*
D03*
X200660Y138580D02*
D03*
Y125580D02*
D03*
X299720Y83670D02*
D03*
Y96670D02*
D03*
X97790Y146200D02*
D03*
Y133200D02*
D03*
D42*
X237490Y107950D02*
D03*
D49*
X15240Y190500D02*
D03*
Y12700D02*
D03*
D50*
X40640Y190500D02*
D03*
X66040D02*
D03*
X91440D02*
D03*
X116840D02*
D03*
X142240D02*
D03*
X167640D02*
D03*
X193040D02*
D03*
X218440D02*
D03*
X243840D02*
D03*
X269240D02*
D03*
X294640D02*
D03*
X320040D02*
D03*
X345440D02*
D03*
X370840D02*
D03*
X396240D02*
D03*
X421640D02*
D03*
X40640Y12700D02*
D03*
X66040D02*
D03*
X91440D02*
D03*
X116840D02*
D03*
X142240D02*
D03*
X167640D02*
D03*
X193040D02*
D03*
X218440D02*
D03*
X243840D02*
D03*
X269240D02*
D03*
X294640D02*
D03*
X320040D02*
D03*
X345440D02*
D03*
X370840D02*
D03*
X396240D02*
D03*
X421640D02*
D03*
D51*
X609842Y188813D02*
X610130Y189100D01*
X609842Y175548D02*
Y188813D01*
X521970Y175768D02*
Y188360D01*
X474980Y131420D02*
Y142812D01*
X248920Y146200D02*
Y158463D01*
X261521Y125260D02*
X263652Y127391D01*
Y127667D01*
X261521Y122981D02*
Y125260D01*
X274419Y128369D02*
X274968Y128918D01*
Y134148D01*
X274419Y128120D02*
X274496D01*
X274419Y120749D02*
Y128369D01*
X274968Y134148D02*
X275440Y134620D01*
X298238Y140758D02*
X298613Y141133D01*
X290427Y147037D02*
X291670Y148280D01*
X289427Y147037D02*
X290427D01*
X291670Y160352D02*
X291953Y160635D01*
X291670Y148280D02*
Y160352D01*
X369360Y158972D02*
X369540Y158792D01*
Y148770D02*
X369720Y148590D01*
X369540Y148770D02*
Y158792D01*
X341630Y108712D02*
X353162D01*
X354330Y109880D01*
X424771Y135318D02*
X430530D01*
X424480Y134810D02*
Y135027D01*
X424771Y135318D01*
X437674Y113496D02*
X449474D01*
X449580Y113389D01*
X437567Y113602D02*
X437674Y113496D01*
X464833Y95387D02*
X474967D01*
X466666Y82569D02*
X474811D01*
X474980Y82400D01*
X466497Y82738D02*
X466666Y82569D01*
X464820Y95374D02*
X464833Y95387D01*
X474967D02*
X474980Y95400D01*
X443500Y80339D02*
Y83783D01*
X437113Y90170D02*
X443500Y83783D01*
X435610Y67430D02*
Y82738D01*
X443500Y80339D02*
X447280Y76559D01*
X427990Y90170D02*
X437113D01*
X447280Y76559D02*
X449497D01*
X438079Y12700D02*
X445802Y20422D01*
Y30294D02*
X448528Y33020D01*
X445802Y20422D02*
Y30294D01*
X403574Y29210D02*
X403606Y29242D01*
X406223Y22924D02*
X427990Y44691D01*
X400989Y22924D02*
X406223D01*
X427990Y44691D02*
Y90170D01*
X400093Y23820D02*
X400989Y22924D01*
X377957Y29210D02*
X403574D01*
X77160Y23820D02*
X400093D01*
X66040Y12700D02*
X77160Y23820D01*
X396240Y12700D02*
X398758Y15218D01*
X405108D01*
X434340Y44450D02*
X496030D01*
X405108Y15218D02*
X434340Y44450D01*
X334200Y72967D02*
X377957Y29210D01*
X261420Y59690D02*
X262382D01*
X247650Y55730D02*
X257460D01*
X261420Y59690D01*
X226060Y73850D02*
X226676Y74466D01*
X225022Y60664D02*
X231286D01*
X226676Y74466D02*
X228881D01*
X224536Y61150D02*
X225022Y60664D01*
X228881Y74466D02*
X232490Y78076D01*
X200454Y115062D02*
X200557Y115165D01*
Y125477D02*
X200660Y125580D01*
X200557Y115165D02*
Y125477D01*
X289560Y84074D02*
Y85036D01*
X292950Y88426D02*
Y89524D01*
X294865Y91440D01*
X289560Y85036D02*
X292950Y88426D01*
X285623Y92837D02*
Y103133D01*
X285496Y92710D02*
X285623Y92837D01*
Y103133D02*
X285750Y103260D01*
X345269Y75521D02*
X349319D01*
X342592Y78198D02*
X345269Y75521D01*
X341630Y78198D02*
X342592D01*
X97917Y91567D02*
Y104117D01*
X97790Y104244D02*
X97917Y104117D01*
Y91567D02*
X98044Y91440D01*
X247650Y100330D02*
Y100386D01*
X498600Y159480D02*
X509270D01*
X533400Y175260D02*
Y188570D01*
X247650Y100386D02*
X250244Y102981D01*
X261459D01*
X261490Y102950D01*
X485720Y149280D02*
X492800D01*
X447040Y187960D02*
X485720Y149280D01*
X492800D02*
X496030Y146050D01*
X296750Y134997D02*
X298238Y136485D01*
Y140758D01*
X421680Y132010D02*
X424480Y134810D01*
X597165Y175525D02*
X597430Y175790D01*
X596900Y175260D02*
X597165Y175525D01*
X288817Y134997D02*
X296750D01*
X269443Y120749D02*
X274419D01*
X285261D01*
X285750Y120260D01*
X261490Y117950D02*
X266644D01*
X269443Y120749D01*
X252490Y83950D02*
X275317D01*
X287487Y71780D01*
X117725Y114840D02*
X125730D01*
X171450D02*
X179455D01*
X112590Y112000D02*
X116578Y115988D01*
X117725Y114840D01*
X180602Y115988D02*
X184590Y112000D01*
X179455Y114840D02*
X180602Y115988D01*
X331410Y114300D02*
X331470Y114240D01*
Y102870D02*
Y114240D01*
X496950Y157830D02*
X498600Y159480D01*
X288440Y134620D02*
X288817Y134997D01*
X288440Y146050D02*
X289427Y147037D01*
X496030Y158750D02*
X496950Y157830D01*
X597430Y175790D02*
Y189100D01*
X508400Y189230D02*
X508530Y189100D01*
X497840Y189230D02*
X508400D01*
X521230Y189100D02*
X521970Y188360D01*
X533400Y188570D02*
X533930Y189100D01*
X546630D02*
X547370Y188360D01*
Y175260D02*
Y188360D01*
X559330Y189100D02*
X560070Y188360D01*
Y175260D02*
Y188360D01*
X572030Y189100D02*
X572770Y188360D01*
Y175260D02*
Y188360D01*
X584200Y188570D02*
X584730Y189100D01*
X584200Y175260D02*
Y188570D01*
X622830Y189100D02*
X623570Y188360D01*
Y175260D02*
Y188360D01*
X635530Y189100D02*
X635900Y188730D01*
Y175630D02*
Y188730D01*
X449580Y87299D02*
Y96159D01*
Y87299D02*
X452000Y84879D01*
X457545D01*
X349319Y75521D02*
X354330Y70510D01*
X334200Y72967D02*
Y79550D01*
X332470Y81280D02*
X334200Y79550D01*
X331470Y81280D02*
X332470D01*
X452120Y24130D02*
X463400D01*
X448528Y33020D02*
X501225D01*
X506800Y38595D01*
X421640Y12700D02*
X438079D01*
X452120Y10160D02*
X463400D01*
X506800Y38595D02*
Y50304D01*
X521230Y14100D02*
X521970Y14840D01*
Y27940D01*
X505300Y10160D02*
X508530Y13390D01*
X533400Y14630D02*
Y27750D01*
X435610Y67430D02*
X442080Y60960D01*
X231286Y60664D02*
X232990Y58960D01*
X547370Y14840D02*
Y27750D01*
X533400Y14630D02*
X533930Y14100D01*
X546630D02*
X547370Y14840D01*
X559330Y14100D02*
Y27410D01*
X558800Y27940D02*
X559330Y27410D01*
X442080Y60960D02*
X443080D01*
X233990Y58960D02*
X236220Y56730D01*
X232990Y58960D02*
X233990D01*
X236220Y55730D02*
Y56730D01*
X225458Y47960D02*
X261320D01*
X212218Y61200D02*
X225458Y47960D01*
X278870Y65510D02*
X316625D01*
X261320Y47960D02*
X278870Y65510D01*
X295490Y91440D02*
X299720Y95670D01*
Y96670D01*
X294865Y91440D02*
X295490D01*
X232490Y78076D02*
Y83950D01*
X287487Y71780D02*
X311270D01*
X585470Y14840D02*
Y27940D01*
X610130Y14100D02*
Y27200D01*
X610870Y27940D01*
X572770Y14840D02*
Y27940D01*
X622830Y14100D02*
Y27410D01*
X622300Y27940D02*
X622830Y27410D01*
X660400Y14630D02*
X660930Y14100D01*
X660400Y14630D02*
Y27940D01*
X647700D02*
X648230Y27410D01*
Y14100D02*
Y27410D01*
X635000Y27940D02*
X635530Y27410D01*
Y14100D02*
Y27410D01*
X584730Y14100D02*
X585470Y14840D01*
X572030Y14100D02*
X572770Y14840D01*
X673100Y14630D02*
Y27940D01*
X476400Y10160D02*
X505300D01*
X476400D02*
Y24130D01*
X499260Y53920D02*
X503185D01*
X496030Y57150D02*
X499260Y53920D01*
X503185D02*
X506800Y50304D01*
X673100Y14630D02*
X673630Y14100D01*
Y176000D02*
Y189100D01*
X660930Y175790D02*
Y189100D01*
X647700Y175260D02*
Y188570D01*
X648230Y189100D01*
X316625Y65510D02*
X323080Y71965D01*
X237459Y69969D02*
Y81169D01*
X237490Y81200D01*
X236220Y68730D02*
X237459Y69969D01*
X184590Y61200D02*
X212218D01*
X323080Y71965D02*
Y79792D01*
X324568Y81280D01*
X331470D01*
X97790Y117244D02*
Y132200D01*
X87630Y128270D02*
X88116Y128756D01*
X97790Y132200D02*
Y133200D01*
X95560Y129970D02*
X97790Y132200D01*
X94560Y129970D02*
X95560D01*
X93346Y128756D02*
X94560Y129970D01*
X88116Y128756D02*
X93346D01*
X242570Y74810D02*
X247650Y69730D01*
X242570Y74810D02*
Y81280D01*
X247650Y68730D02*
Y69730D01*
X248770Y146050D02*
X248920Y146200D01*
X222100Y146050D02*
X222445Y146395D01*
Y155997D01*
X311270Y71780D02*
X312270D01*
X318540Y78050D01*
Y109094D01*
X300450Y111070D02*
X316564D01*
X299720Y110340D02*
X300450Y111070D01*
X316564D02*
X318540Y109094D01*
X431679Y148590D02*
X447280Y132989D01*
X449580D01*
X404010Y148590D02*
X431679D01*
X457545Y84879D02*
X460200Y82224D01*
Y64080D02*
Y82224D01*
X456080Y60960D02*
X457080D01*
X460200Y64080D01*
X474980Y95400D02*
Y112420D01*
X261490Y122950D02*
X261521Y122981D01*
X261490Y117950D02*
Y122950D01*
X261770Y146050D02*
X275440D01*
X258540Y138000D02*
Y143820D01*
X252490Y131950D02*
X258540Y138000D01*
Y143820D02*
X260770Y146050D01*
X261770D01*
X112590Y61200D02*
X184590D01*
X112590Y142000D02*
X184590D01*
X104140Y156210D02*
Y156210D01*
X97790Y146200D02*
X99742Y148152D01*
Y151812D01*
X104140Y156210D01*
X105860Y136270D02*
X111590Y142000D01*
X97790Y133200D02*
X103790D01*
X105860Y135270D01*
Y136270D01*
X111590Y142000D02*
X112590D01*
X306390Y86900D02*
X310270Y90780D01*
X299720Y83670D02*
Y84670D01*
X301950Y86900D01*
X306390D01*
X310270Y90780D02*
X311270D01*
X300180Y123800D02*
X311210D01*
X299720Y123340D02*
X300180Y123800D01*
X299720Y97670D02*
X305120Y103070D01*
X309480D01*
X311210Y104800D01*
X185420Y80010D02*
Y90370D01*
X184590Y91200D02*
X185420Y90370D01*
X112590Y91200D02*
X113030Y90760D01*
Y80010D02*
Y90760D01*
X110440Y63350D02*
X112590Y61200D01*
X96520Y63350D02*
X110440D01*
X86435Y76275D02*
X96445D01*
X86360Y76200D02*
X86435Y76275D01*
X96445D02*
X96520Y76350D01*
X73660Y78740D02*
Y87380D01*
X73785Y123315D02*
X81155D01*
X73660Y123440D02*
X73785Y123315D01*
X81155D02*
X81280Y123190D01*
X44525Y151205D02*
Y161215D01*
Y151205D02*
X44600Y151130D01*
X44450Y161290D02*
X44525Y161215D01*
X73660Y148740D02*
Y157480D01*
X60960Y147570D02*
Y154940D01*
X15240Y12700D02*
Y28112D01*
X26667Y39540D01*
Y47372D01*
X13819Y38251D02*
Y47221D01*
X13667Y47372D02*
X13819Y47221D01*
Y38251D02*
X13970Y38100D01*
X40030Y87750D02*
X40880Y88600D01*
D52*
X609842Y175548D02*
D03*
X582598Y130433D02*
D03*
X521970Y175768D02*
D03*
X509270Y159480D02*
D03*
X474980Y142812D02*
D03*
X73637Y159998D02*
D03*
X248920Y158463D02*
D03*
X222445Y155997D02*
D03*
X263652Y127667D02*
D03*
X274956Y102863D02*
D03*
X274464Y110944D02*
D03*
X274496Y128120D02*
D03*
X298613Y141133D02*
D03*
X291953Y160635D02*
D03*
X369360Y158972D02*
D03*
X341630Y108712D02*
D03*
X399239Y113602D02*
D03*
X430530Y135318D02*
D03*
X437567Y113602D02*
D03*
X464820Y95374D02*
D03*
X466497Y82738D02*
D03*
X435610D02*
D03*
X427990Y90170D02*
D03*
X452120Y24130D02*
D03*
X403606Y29242D02*
D03*
X262382Y59690D02*
D03*
X226060Y73850D02*
D03*
X224536Y61150D02*
D03*
X247650Y116078D02*
D03*
X237490D02*
D03*
X200454Y115062D02*
D03*
X227330Y116078D02*
D03*
X289560Y84074D02*
D03*
X285496Y92710D02*
D03*
X341630Y78198D02*
D03*
X83820Y100330D02*
D03*
X83632Y110177D02*
D03*
X247650Y100330D02*
D03*
X227573Y100087D02*
D03*
X237733D02*
D03*
X533400Y175260D02*
D03*
X48260Y60960D02*
D03*
X7620Y163830D02*
D03*
X19050D02*
D03*
X447040Y187960D02*
D03*
X610430Y130600D02*
D03*
Y116600D02*
D03*
X399034Y87884D02*
D03*
X582430Y102600D02*
D03*
X398880Y100704D02*
D03*
X372210Y89274D02*
D03*
X596430Y102600D02*
D03*
X610430D02*
D03*
X372210Y107054D02*
D03*
X98044Y91440D02*
D03*
X125730Y114840D02*
D03*
X171450D02*
D03*
X331470Y102870D02*
D03*
X597165Y175525D02*
D03*
X596430Y130600D02*
D03*
X497840Y189230D02*
D03*
X547370Y175260D02*
D03*
X560070D02*
D03*
X572770D02*
D03*
X584200D02*
D03*
X623570D02*
D03*
X635900Y175630D02*
D03*
X596430Y116600D02*
D03*
X582430D02*
D03*
X452120Y10160D02*
D03*
X521970Y27940D02*
D03*
X533400Y27750D02*
D03*
X547370D02*
D03*
X558800Y27940D02*
D03*
X610183Y28653D02*
D03*
X572770Y27940D02*
D03*
X585470D02*
D03*
X622300D02*
D03*
X660400D02*
D03*
X673100D02*
D03*
X647700D02*
D03*
X635000D02*
D03*
X673630Y176000D02*
D03*
X660930Y175790D02*
D03*
X647700Y175260D02*
D03*
X87630Y128270D02*
D03*
X29548Y60463D02*
D03*
X104140Y156210D02*
D03*
X113030Y80010D02*
D03*
X81280Y123190D02*
D03*
X44450Y161290D02*
D03*
X185420Y80010D02*
D03*
X86360Y76200D02*
D03*
X73660Y78740D02*
D03*
X60960Y154940D02*
D03*
X31750Y163830D02*
D03*
X13970Y38100D02*
D03*
M02*
