G04*
G04 #@! TF.GenerationSoftware,Altium Limited,Altium Designer,23.1.1 (15)*
G04*
G04 Layer_Color=255*
%FSLAX44Y44*%
%MOMM*%
G71*
G04*
G04 #@! TF.SameCoordinates,EB36885D-2DDF-469F-ABB7-EBECF6A50CA0*
G04*
G04*
G04 #@! TF.FilePolarity,Positive*
G04*
G01*
G75*
%ADD16R,0.4000X0.4800*%
%ADD17R,1.0400X0.4600*%
G04:AMPARAMS|DCode=18|XSize=1.01mm|YSize=1.47mm|CornerRadius=0.1263mm|HoleSize=0mm|Usage=FLASHONLY|Rotation=90.000|XOffset=0mm|YOffset=0mm|HoleType=Round|Shape=RoundedRectangle|*
%AMROUNDEDRECTD18*
21,1,1.0100,1.2175,0,0,90.0*
21,1,0.7575,1.4700,0,0,90.0*
1,1,0.2525,0.6088,0.3787*
1,1,0.2525,0.6088,-0.3787*
1,1,0.2525,-0.6088,-0.3787*
1,1,0.2525,-0.6088,0.3787*
%
%ADD18ROUNDEDRECTD18*%
%ADD19R,1.6000X1.4000*%
%ADD20R,0.8000X0.6000*%
%ADD21R,0.9000X1.5000*%
%ADD22R,1.5000X0.9000*%
%ADD23R,0.9000X0.9000*%
%ADD24C,0.2700*%
%ADD25R,0.8721X1.0043*%
G04:AMPARAMS|DCode=26|XSize=1.0043mm|YSize=0.8721mm|CornerRadius=0.4361mm|HoleSize=0mm|Usage=FLASHONLY|Rotation=270.000|XOffset=0mm|YOffset=0mm|HoleType=Round|Shape=RoundedRectangle|*
%AMROUNDEDRECTD26*
21,1,1.0043,0.0000,0,0,270.0*
21,1,0.1322,0.8721,0,0,270.0*
1,1,0.8721,0.0000,-0.0661*
1,1,0.8721,0.0000,0.0661*
1,1,0.8721,0.0000,0.0661*
1,1,0.8721,0.0000,-0.0661*
%
%ADD26ROUNDEDRECTD26*%
G04:AMPARAMS|DCode=27|XSize=1.0043mm|YSize=3.1821mm|CornerRadius=0.4369mm|HoleSize=0mm|Usage=FLASHONLY|Rotation=270.000|XOffset=0mm|YOffset=0mm|HoleType=Round|Shape=RoundedRectangle|*
%AMROUNDEDRECTD27*
21,1,1.0043,2.3084,0,0,270.0*
21,1,0.1306,3.1821,0,0,270.0*
1,1,0.8737,-1.1542,-0.0653*
1,1,0.8737,-1.1542,0.0653*
1,1,0.8737,1.1542,0.0653*
1,1,0.8737,1.1542,-0.0653*
%
%ADD27ROUNDEDRECTD27*%
%ADD28R,1.3000X1.6500*%
%ADD29R,1.9000X1.8000*%
%ADD30R,1.9000X1.0000*%
%ADD31R,1.5500X1.4250*%
%ADD32R,1.3800X0.4500*%
G04:AMPARAMS|DCode=33|XSize=1.5mm|YSize=1.3mm|CornerRadius=0.1625mm|HoleSize=0mm|Usage=FLASHONLY|Rotation=0.000|XOffset=0mm|YOffset=0mm|HoleType=Round|Shape=RoundedRectangle|*
%AMROUNDEDRECTD33*
21,1,1.5000,0.9750,0,0,0.0*
21,1,1.1750,1.3000,0,0,0.0*
1,1,0.3250,0.5875,-0.4875*
1,1,0.3250,-0.5875,-0.4875*
1,1,0.3250,-0.5875,0.4875*
1,1,0.3250,0.5875,0.4875*
%
%ADD33ROUNDEDRECTD33*%
G04:AMPARAMS|DCode=34|XSize=1mm|YSize=1.1mm|CornerRadius=0.125mm|HoleSize=0mm|Usage=FLASHONLY|Rotation=180.000|XOffset=0mm|YOffset=0mm|HoleType=Round|Shape=RoundedRectangle|*
%AMROUNDEDRECTD34*
21,1,1.0000,0.8500,0,0,180.0*
21,1,0.7500,1.1000,0,0,180.0*
1,1,0.2500,-0.3750,0.4250*
1,1,0.2500,0.3750,0.4250*
1,1,0.2500,0.3750,-0.4250*
1,1,0.2500,-0.3750,-0.4250*
%
%ADD34ROUNDEDRECTD34*%
G04:AMPARAMS|DCode=35|XSize=0.7mm|YSize=0.9mm|CornerRadius=0.0875mm|HoleSize=0mm|Usage=FLASHONLY|Rotation=90.000|XOffset=0mm|YOffset=0mm|HoleType=Round|Shape=RoundedRectangle|*
%AMROUNDEDRECTD35*
21,1,0.7000,0.7250,0,0,90.0*
21,1,0.5250,0.9000,0,0,90.0*
1,1,0.1750,0.3625,0.2625*
1,1,0.1750,0.3625,-0.2625*
1,1,0.1750,-0.3625,-0.2625*
1,1,0.1750,-0.3625,0.2625*
%
%ADD35ROUNDEDRECTD35*%
%ADD36R,0.9000X0.7000*%
G04:AMPARAMS|DCode=37|XSize=0.7mm|YSize=0.9mm|CornerRadius=0.0875mm|HoleSize=0mm|Usage=FLASHONLY|Rotation=180.000|XOffset=0mm|YOffset=0mm|HoleType=Round|Shape=RoundedRectangle|*
%AMROUNDEDRECTD37*
21,1,0.7000,0.7250,0,0,180.0*
21,1,0.5250,0.9000,0,0,180.0*
1,1,0.1750,-0.2625,0.3625*
1,1,0.1750,0.2625,0.3625*
1,1,0.1750,0.2625,-0.3625*
1,1,0.1750,-0.2625,-0.3625*
%
%ADD37ROUNDEDRECTD37*%
%ADD38R,0.7000X0.9000*%
%ADD42C,3.0150*%
%ADD49R,1.5700X1.5700*%
%ADD50C,1.5700*%
D16*
X73660Y87380D02*
D03*
Y100580D02*
D03*
X60960Y147570D02*
D03*
Y134370D02*
D03*
X73660Y123440D02*
D03*
Y110240D02*
D03*
D17*
X313220Y148590D02*
D03*
X337020D02*
D03*
D18*
X449580Y132989D02*
D03*
Y113389D02*
D03*
Y96159D02*
D03*
Y76559D02*
D03*
D19*
X112590Y112000D02*
D03*
X184590D02*
D03*
X112590Y142000D02*
D03*
X184590D02*
D03*
X112590Y61200D02*
D03*
X184590D02*
D03*
X112590Y91200D02*
D03*
X184590D02*
D03*
D20*
X311270Y90780D02*
D03*
Y71780D02*
D03*
X331470Y81280D02*
D03*
X311210Y123800D02*
D03*
Y104800D02*
D03*
X331410Y114300D02*
D03*
D21*
X673630Y189100D02*
D03*
X660930D02*
D03*
X648230D02*
D03*
X635530D02*
D03*
X622830D02*
D03*
X610130D02*
D03*
X597430D02*
D03*
X584730D02*
D03*
X572030D02*
D03*
X559330D02*
D03*
X546630D02*
D03*
X533930D02*
D03*
X521230D02*
D03*
X508530D02*
D03*
Y14100D02*
D03*
X521230D02*
D03*
X533930D02*
D03*
X546630D02*
D03*
X559330D02*
D03*
X572030D02*
D03*
X584730D02*
D03*
X597430D02*
D03*
X610130D02*
D03*
X622830D02*
D03*
X635530D02*
D03*
X648230D02*
D03*
X660930D02*
D03*
X673630D02*
D03*
D22*
X496030Y158750D02*
D03*
Y146050D02*
D03*
Y133350D02*
D03*
Y120650D02*
D03*
Y107950D02*
D03*
Y95250D02*
D03*
Y82550D02*
D03*
Y69850D02*
D03*
Y57150D02*
D03*
Y44450D02*
D03*
D23*
X610430Y130600D02*
D03*
Y116600D02*
D03*
Y102600D02*
D03*
X596430Y130600D02*
D03*
Y116600D02*
D03*
Y102600D02*
D03*
X582430Y130600D02*
D03*
Y116600D02*
D03*
Y102600D02*
D03*
D24*
X261490Y92950D02*
D03*
Y97950D02*
D03*
Y102950D02*
D03*
X264740Y107950D02*
D03*
X261490Y112950D02*
D03*
Y117950D02*
D03*
Y122950D02*
D03*
X252490Y131950D02*
D03*
X247490D02*
D03*
X242490D02*
D03*
X237490Y135200D02*
D03*
X232490Y131950D02*
D03*
X227490D02*
D03*
X222490D02*
D03*
X213490Y122950D02*
D03*
Y117950D02*
D03*
Y112950D02*
D03*
X210740Y107950D02*
D03*
X213490Y102950D02*
D03*
Y97950D02*
D03*
Y92950D02*
D03*
X222490Y83950D02*
D03*
X227490D02*
D03*
X232490D02*
D03*
X237490Y81200D02*
D03*
X242490Y83950D02*
D03*
X247490D02*
D03*
X252490D02*
D03*
D25*
X421680Y132010D02*
D03*
D26*
X398780D02*
D03*
X375880D02*
D03*
D27*
X398780Y66110D02*
D03*
D28*
X14280Y135350D02*
D03*
Y67850D02*
D03*
D29*
Y113100D02*
D03*
D30*
Y86100D02*
D03*
D31*
X40030Y126475D02*
D03*
Y76725D02*
D03*
D32*
X40880Y114600D02*
D03*
Y108100D02*
D03*
Y101600D02*
D03*
Y95100D02*
D03*
Y88600D02*
D03*
D33*
X474980Y131420D02*
D03*
Y112420D02*
D03*
X354330Y109880D02*
D03*
Y128880D02*
D03*
Y70510D02*
D03*
Y89510D02*
D03*
D34*
X285750Y120260D02*
D03*
Y103260D02*
D03*
D35*
X476400Y10160D02*
D03*
X463400D02*
D03*
X275440Y134620D02*
D03*
X288440D02*
D03*
X26667Y47372D02*
D03*
X13667D02*
D03*
X44600Y151130D02*
D03*
X31600D02*
D03*
X356720Y148590D02*
D03*
X369720D02*
D03*
X476400Y24130D02*
D03*
X463400D02*
D03*
D36*
X261770Y146050D02*
D03*
X248770D02*
D03*
X443080Y60960D02*
D03*
X456080D02*
D03*
X288440Y146050D02*
D03*
X275440D02*
D03*
X222100D02*
D03*
X235100D02*
D03*
X391010Y148590D02*
D03*
X404010D02*
D03*
D37*
X97790Y117244D02*
D03*
Y104244D02*
D03*
X73660Y138280D02*
D03*
Y151280D02*
D03*
X474980Y95400D02*
D03*
Y82400D02*
D03*
X96520Y63350D02*
D03*
Y76350D02*
D03*
X236220Y55730D02*
D03*
Y68730D02*
D03*
X247650Y55730D02*
D03*
Y68730D02*
D03*
D38*
X299720Y123340D02*
D03*
Y110340D02*
D03*
X200660Y138580D02*
D03*
Y125580D02*
D03*
X299720Y83670D02*
D03*
Y96670D02*
D03*
X97790Y146200D02*
D03*
Y133200D02*
D03*
D42*
X237490Y107950D02*
D03*
D49*
X15240Y190500D02*
D03*
Y12700D02*
D03*
D50*
X40640Y190500D02*
D03*
X66040D02*
D03*
X91440D02*
D03*
X116840D02*
D03*
X142240D02*
D03*
X167640D02*
D03*
X193040D02*
D03*
X218440D02*
D03*
X243840D02*
D03*
X269240D02*
D03*
X294640D02*
D03*
X320040D02*
D03*
X345440D02*
D03*
X370840D02*
D03*
X396240D02*
D03*
X421640D02*
D03*
X40640Y12700D02*
D03*
X66040D02*
D03*
X91440D02*
D03*
X116840D02*
D03*
X142240D02*
D03*
X167640D02*
D03*
X193040D02*
D03*
X218440D02*
D03*
X243840D02*
D03*
X269240D02*
D03*
X294640D02*
D03*
X320040D02*
D03*
X345440D02*
D03*
X370840D02*
D03*
X396240D02*
D03*
X421640D02*
D03*
M02*
