G04*
G04 #@! TF.GenerationSoftware,Altium Limited,Altium Designer,23.1.1 (15)*
G04*
G04 Layer_Color=32768*
%FSLAX44Y44*%
%MOMM*%
G71*
G04*
G04 #@! TF.SameCoordinates,EB36885D-2DDF-469F-ABB7-EBECF6A50CA0*
G04*
G04*
G04 #@! TF.FilePolarity,Positive*
G04*
G01*
G75*
%ADD13C,0.1270*%
%ADD14C,0.1524*%
D13*
X456880Y111889D02*
Y134489D01*
X442280Y111889D02*
X456880D01*
X442280Y134489D02*
X456880D01*
Y111889D02*
Y134489D01*
X442280Y111889D02*
Y134489D01*
X456880D01*
X442280Y111889D02*
Y134489D01*
Y111889D02*
X456880D01*
Y75059D02*
Y97659D01*
X442280Y75059D02*
X456880D01*
X442280Y97659D02*
X456880D01*
Y75059D02*
Y97659D01*
X442280Y75059D02*
Y97659D01*
X456880D01*
X442280Y75059D02*
Y97659D01*
Y75059D02*
X456880D01*
X468430Y111920D02*
Y131920D01*
Y111920D02*
X481530D01*
Y131920D01*
X468430D02*
X481530D01*
X281178Y102997D02*
X290322D01*
X281178D02*
Y120523D01*
X290322D01*
Y102997D02*
Y120523D01*
X464566Y7366D02*
X475234D01*
Y12954D01*
X464566D02*
X475234D01*
X464566Y7366D02*
Y12954D01*
X249936Y143256D02*
X260604D01*
Y148844D01*
X249936D02*
X260604D01*
X249936Y143256D02*
Y148844D01*
X94615Y105029D02*
X100965D01*
X94615D02*
Y116459D01*
X100965D01*
Y105029D02*
Y116459D01*
X360880Y109380D02*
Y129380D01*
X347780D02*
X360880D01*
X347780Y109380D02*
Y129380D01*
Y109380D02*
X360880D01*
Y70010D02*
Y90010D01*
X347780D02*
X360880D01*
X347780Y70010D02*
Y90010D01*
Y70010D02*
X360880D01*
X287655Y131445D02*
Y137795D01*
X276225Y131445D02*
X287655D01*
X276225D02*
Y137795D01*
X287655D01*
X14452Y44197D02*
Y50547D01*
X25882D01*
Y44197D02*
Y50547D01*
X14452Y44197D02*
X25882D01*
X32385Y147955D02*
Y154305D01*
X43815D01*
Y147955D02*
Y154305D01*
X32385Y147955D02*
X43815D01*
X70485Y150495D02*
X76835D01*
Y139065D02*
Y150495D01*
X70485Y139065D02*
X76835D01*
X70485D02*
Y150495D01*
X471805Y83185D02*
X478155D01*
X471805D02*
Y94615D01*
X478155D01*
Y83185D02*
Y94615D01*
X368935Y145415D02*
Y151765D01*
X357505Y145415D02*
X368935D01*
X357505D02*
Y151765D01*
X368935D01*
X93345Y75565D02*
X99695D01*
Y64135D02*
Y75565D01*
X93345Y64135D02*
X99695D01*
X93345D02*
Y75565D01*
X444246Y63754D02*
X454914D01*
X444246Y58166D02*
Y63754D01*
Y58166D02*
X454914D01*
Y63754D01*
X302514Y111506D02*
Y122174D01*
X296926D02*
X302514D01*
X296926Y111506D02*
Y122174D01*
Y111506D02*
X302514D01*
X203454Y126746D02*
Y137414D01*
X197866D02*
X203454D01*
X197866Y126746D02*
Y137414D01*
Y126746D02*
X203454D01*
X296926Y84836D02*
Y95504D01*
Y84836D02*
X302514D01*
Y95504D01*
X296926D02*
X302514D01*
X276606Y143256D02*
X287274D01*
Y148844D01*
X276606D02*
X287274D01*
X276606Y143256D02*
Y148844D01*
X233426Y56896D02*
Y67564D01*
Y56896D02*
X239014D01*
Y67564D01*
X233426D02*
X239014D01*
X244856Y56896D02*
Y67564D01*
Y56896D02*
X250444D01*
Y67564D01*
X244856D02*
X250444D01*
X464566Y21336D02*
X475234D01*
Y26924D01*
X464566D02*
X475234D01*
X464566Y21336D02*
Y26924D01*
X100584Y134366D02*
Y145034D01*
X94996D02*
X100584D01*
X94996Y134366D02*
Y145034D01*
Y134366D02*
X100584D01*
X223266Y148844D02*
X233934D01*
X223266Y143256D02*
Y148844D01*
Y143256D02*
X233934D01*
Y148844D01*
X392176Y151384D02*
X402844D01*
X392176Y145796D02*
Y151384D01*
Y145796D02*
X402844D01*
Y151384D01*
D14*
X488944Y5082D02*
Y12699D01*
X492753D01*
X494022Y11430D01*
Y8890D01*
X492753Y7621D01*
X488944D01*
X491483D02*
X494022Y5082D01*
X496561D02*
X499101D01*
X497831D01*
Y12699D01*
X496561Y11430D01*
X507988Y5082D02*
X502909D01*
X507988Y10160D01*
Y11430D01*
X506718Y12699D01*
X504179D01*
X502909Y11430D01*
X238252Y142240D02*
Y149858D01*
X242061D01*
X243330Y148588D01*
Y146049D01*
X242061Y144779D01*
X238252D01*
X240791D02*
X243330Y142240D01*
X245870Y143510D02*
X247139Y142240D01*
X249678D01*
X250948Y143510D01*
Y148588D01*
X249678Y149858D01*
X247139D01*
X245870Y148588D01*
Y147318D01*
X247139Y146049D01*
X250948D01*
X466598Y64770D02*
Y57153D01*
X462789D01*
X461520Y58422D01*
Y60961D01*
X462789Y62231D01*
X466598D01*
X464059D02*
X461520Y64770D01*
X458980Y58422D02*
X457711Y57153D01*
X455172D01*
X453902Y58422D01*
Y59692D01*
X455172Y60961D01*
X456441D01*
X455172D01*
X453902Y62231D01*
Y63500D01*
X455172Y64770D01*
X457711D01*
X458980Y63500D01*
X303530Y99822D02*
X295912D01*
Y103631D01*
X297182Y104900D01*
X299721D01*
X300991Y103631D01*
Y99822D01*
Y102361D02*
X303530Y104900D01*
Y111248D02*
X295912D01*
X299721Y107439D01*
Y112518D01*
X204470Y115062D02*
X196852D01*
Y118871D01*
X198122Y120140D01*
X200661D01*
X201931Y118871D01*
Y115062D01*
Y117601D02*
X204470Y120140D01*
X196852Y127758D02*
Y122680D01*
X200661D01*
X199392Y125219D01*
Y126488D01*
X200661Y127758D01*
X203200D01*
X204470Y126488D01*
Y123949D01*
X203200Y122680D01*
X295910Y107188D02*
X303528D01*
Y103379D01*
X302258Y102110D01*
X299719D01*
X298449Y103379D01*
Y107188D01*
Y104649D02*
X295910Y102110D01*
X303528Y94492D02*
X302258Y97031D01*
X299719Y99571D01*
X297180D01*
X295910Y98301D01*
Y95762D01*
X297180Y94492D01*
X298449D01*
X299719Y95762D01*
Y99571D01*
X264922Y142240D02*
Y149858D01*
X268731D01*
X270000Y148588D01*
Y146049D01*
X268731Y144779D01*
X264922D01*
X267461D02*
X270000Y142240D01*
X272540Y149858D02*
X277618D01*
Y148588D01*
X272540Y143510D01*
Y142240D01*
X232411Y68578D02*
X240029D01*
Y64769D01*
X238759Y63500D01*
X236220D01*
X234950Y64769D01*
Y68578D01*
Y66039D02*
X232411Y63500D01*
X238759Y60960D02*
X240029Y59691D01*
Y57152D01*
X238759Y55882D01*
X237490D01*
X236220Y57152D01*
X234950Y55882D01*
X233681D01*
X232411Y57152D01*
Y59691D01*
X233681Y60960D01*
X234950D01*
X236220Y59691D01*
X237490Y60960D01*
X238759D01*
X236220Y59691D02*
Y57152D01*
X243841Y73022D02*
X251459D01*
Y69213D01*
X250189Y67944D01*
X247650D01*
X246380Y69213D01*
Y73022D01*
Y70483D02*
X243841Y67944D01*
Y65404D02*
Y62865D01*
Y64135D01*
X251459D01*
X250189Y65404D01*
Y59056D02*
X251459Y57787D01*
Y55248D01*
X250189Y53978D01*
X245111D01*
X243841Y55248D01*
Y57787D01*
X245111Y59056D01*
X250189D01*
X491483Y19052D02*
Y26669D01*
X495292D01*
X496561Y25400D01*
Y22861D01*
X495292Y21591D01*
X491483D01*
X494022D02*
X496561Y19052D01*
X499101D02*
X501640D01*
X500370D01*
Y26669D01*
X499101Y25400D01*
X505448Y19052D02*
X507988D01*
X506718D01*
Y26669D01*
X505448Y25400D01*
X101600Y122682D02*
X93982D01*
Y126491D01*
X95252Y127760D01*
X97791D01*
X99061Y126491D01*
Y122682D01*
Y125221D02*
X101600Y127760D01*
Y130300D02*
Y132839D01*
Y131569D01*
X93982D01*
X95252Y130300D01*
Y136648D02*
X93982Y137917D01*
Y140456D01*
X95252Y141726D01*
X96522D01*
X97791Y140456D01*
Y139187D01*
Y140456D01*
X99061Y141726D01*
X100330D01*
X101600Y140456D01*
Y137917D01*
X100330Y136648D01*
X245618Y149860D02*
Y142242D01*
X241809D01*
X240540Y143512D01*
Y146051D01*
X241809Y147321D01*
X245618D01*
X243079D02*
X240540Y149860D01*
X238001D02*
X235461D01*
X236731D01*
Y142242D01*
X238001Y143512D01*
X414528Y152400D02*
Y144782D01*
X410719D01*
X409450Y146052D01*
Y148591D01*
X410719Y149861D01*
X414528D01*
X411989D02*
X409450Y152400D01*
X401832D02*
X406911D01*
X401832Y147322D01*
Y146052D01*
X403102Y144782D01*
X405641D01*
X406911Y146052D01*
M02*
