G04*
G04 #@! TF.GenerationSoftware,Altium Limited,Altium Designer,23.1.1 (15)*
G04*
G04 Layer_Color=8388736*
%FSLAX44Y44*%
%MOMM*%
G71*
G04*
G04 #@! TF.SameCoordinates,EB36885D-2DDF-469F-ABB7-EBECF6A50CA0*
G04*
G04*
G04 #@! TF.FilePolarity,Negative*
G04*
G01*
G75*
%ADD19R,1.6000X1.4000*%
%ADD20R,0.8000X0.6000*%
%ADD21R,0.9000X1.5000*%
%ADD22R,1.5000X0.9000*%
%ADD23R,0.9000X0.9000*%
%ADD24C,0.2700*%
%ADD25R,0.8721X1.0043*%
G04:AMPARAMS|DCode=26|XSize=1.0043mm|YSize=0.8721mm|CornerRadius=0.4361mm|HoleSize=0mm|Usage=FLASHONLY|Rotation=270.000|XOffset=0mm|YOffset=0mm|HoleType=Round|Shape=RoundedRectangle|*
%AMROUNDEDRECTD26*
21,1,1.0043,0.0000,0,0,270.0*
21,1,0.1322,0.8721,0,0,270.0*
1,1,0.8721,0.0000,-0.0661*
1,1,0.8721,0.0000,0.0661*
1,1,0.8721,0.0000,0.0661*
1,1,0.8721,0.0000,-0.0661*
%
%ADD26ROUNDEDRECTD26*%
G04:AMPARAMS|DCode=27|XSize=1.0043mm|YSize=3.1821mm|CornerRadius=0.4369mm|HoleSize=0mm|Usage=FLASHONLY|Rotation=270.000|XOffset=0mm|YOffset=0mm|HoleType=Round|Shape=RoundedRectangle|*
%AMROUNDEDRECTD27*
21,1,1.0043,2.3084,0,0,270.0*
21,1,0.1306,3.1821,0,0,270.0*
1,1,0.8737,-1.1542,-0.0653*
1,1,0.8737,-1.1542,0.0653*
1,1,0.8737,1.1542,0.0653*
1,1,0.8737,1.1542,-0.0653*
%
%ADD27ROUNDEDRECTD27*%
%ADD28R,1.3000X1.6500*%
%ADD29R,1.9000X1.8000*%
%ADD30R,1.9000X1.0000*%
%ADD31R,1.5500X1.4250*%
%ADD32R,1.3800X0.4500*%
%ADD39R,0.6032X0.6832*%
%ADD40R,1.2432X0.6632*%
G04:AMPARAMS|DCode=41|XSize=1.2132mm|YSize=1.6732mm|CornerRadius=0.2279mm|HoleSize=0mm|Usage=FLASHONLY|Rotation=90.000|XOffset=0mm|YOffset=0mm|HoleType=Round|Shape=RoundedRectangle|*
%AMROUNDEDRECTD41*
21,1,1.2132,1.2175,0,0,90.0*
21,1,0.7575,1.6732,0,0,90.0*
1,1,0.4557,0.6088,0.3787*
1,1,0.4557,0.6088,-0.3787*
1,1,0.4557,-0.6088,-0.3787*
1,1,0.4557,-0.6088,0.3787*
%
%ADD41ROUNDEDRECTD41*%
%ADD42C,3.0150*%
G04:AMPARAMS|DCode=43|XSize=1.7032mm|YSize=1.5032mm|CornerRadius=0.2641mm|HoleSize=0mm|Usage=FLASHONLY|Rotation=0.000|XOffset=0mm|YOffset=0mm|HoleType=Round|Shape=RoundedRectangle|*
%AMROUNDEDRECTD43*
21,1,1.7032,0.9750,0,0,0.0*
21,1,1.1750,1.5032,0,0,0.0*
1,1,0.5282,0.5875,-0.4875*
1,1,0.5282,-0.5875,-0.4875*
1,1,0.5282,-0.5875,0.4875*
1,1,0.5282,0.5875,0.4875*
%
%ADD43ROUNDEDRECTD43*%
G04:AMPARAMS|DCode=44|XSize=1.2032mm|YSize=1.3032mm|CornerRadius=0.2266mm|HoleSize=0mm|Usage=FLASHONLY|Rotation=180.000|XOffset=0mm|YOffset=0mm|HoleType=Round|Shape=RoundedRectangle|*
%AMROUNDEDRECTD44*
21,1,1.2032,0.8500,0,0,180.0*
21,1,0.7500,1.3032,0,0,180.0*
1,1,0.4532,-0.3750,0.4250*
1,1,0.4532,0.3750,0.4250*
1,1,0.4532,0.3750,-0.4250*
1,1,0.4532,-0.3750,-0.4250*
%
%ADD44ROUNDEDRECTD44*%
G04:AMPARAMS|DCode=45|XSize=0.9032mm|YSize=1.1032mm|CornerRadius=0.1891mm|HoleSize=0mm|Usage=FLASHONLY|Rotation=90.000|XOffset=0mm|YOffset=0mm|HoleType=Round|Shape=RoundedRectangle|*
%AMROUNDEDRECTD45*
21,1,0.9032,0.7250,0,0,90.0*
21,1,0.5250,1.1032,0,0,90.0*
1,1,0.3782,0.3625,0.2625*
1,1,0.3782,0.3625,-0.2625*
1,1,0.3782,-0.3625,-0.2625*
1,1,0.3782,-0.3625,0.2625*
%
%ADD45ROUNDEDRECTD45*%
%ADD46R,1.1032X0.9032*%
G04:AMPARAMS|DCode=47|XSize=0.9032mm|YSize=1.1032mm|CornerRadius=0.1891mm|HoleSize=0mm|Usage=FLASHONLY|Rotation=180.000|XOffset=0mm|YOffset=0mm|HoleType=Round|Shape=RoundedRectangle|*
%AMROUNDEDRECTD47*
21,1,0.9032,0.7250,0,0,180.0*
21,1,0.5250,1.1032,0,0,180.0*
1,1,0.3782,-0.2625,0.3625*
1,1,0.3782,0.2625,0.3625*
1,1,0.3782,0.2625,-0.3625*
1,1,0.3782,-0.2625,-0.3625*
%
%ADD47ROUNDEDRECTD47*%
%ADD48R,0.9032X1.1032*%
%ADD49R,1.5700X1.5700*%
%ADD50C,1.5700*%
G36*
X253990Y128700D02*
Y128402D01*
X253762Y127850D01*
X253340Y127428D01*
X252788Y127200D01*
X252192D01*
X251640Y127428D01*
X251218Y127850D01*
X250990Y128402D01*
Y128700D01*
Y136700D01*
X253990D01*
Y128700D01*
D02*
G37*
G36*
X248990D02*
Y128402D01*
X248762Y127850D01*
X248340Y127428D01*
X247788Y127200D01*
X247192D01*
X246640Y127428D01*
X246218Y127850D01*
X245990Y128402D01*
Y128700D01*
Y136700D01*
X248990D01*
Y128700D01*
D02*
G37*
G36*
X243990D02*
Y128402D01*
X243762Y127850D01*
X243340Y127428D01*
X242788Y127200D01*
X242192D01*
X241640Y127428D01*
X241218Y127850D01*
X240990Y128402D01*
Y128700D01*
Y136700D01*
X243990D01*
X243990Y128700D01*
D02*
G37*
G36*
X238990D02*
Y128402D01*
X238762Y127850D01*
X238340Y127428D01*
X237788Y127200D01*
X237192D01*
X236640Y127428D01*
X236218Y127850D01*
X235990Y128402D01*
Y128700D01*
Y136700D01*
X238990D01*
Y128700D01*
D02*
G37*
G36*
X233990D02*
Y128402D01*
X233762Y127850D01*
X233340Y127428D01*
X232788Y127200D01*
X232192D01*
X231640Y127428D01*
X231218Y127850D01*
X230990Y128402D01*
Y128700D01*
X230990D01*
Y136700D01*
X233990D01*
Y128700D01*
D02*
G37*
G36*
X228990D02*
Y128402D01*
X228762Y127850D01*
X228340Y127428D01*
X227788Y127200D01*
X227192D01*
X226640Y127428D01*
X226218Y127850D01*
X225990Y128402D01*
Y128700D01*
Y136700D01*
X228990D01*
Y128700D01*
D02*
G37*
G36*
X223990D02*
Y128402D01*
X223762Y127850D01*
X223340Y127428D01*
X222788Y127200D01*
X222192D01*
X221640Y127428D01*
X221218Y127850D01*
X220990Y128402D01*
Y128700D01*
Y136700D01*
X223990D01*
Y128700D01*
D02*
G37*
G36*
X266240Y121450D02*
X257942D01*
X257390Y121678D01*
X256968Y122100D01*
X256740Y122652D01*
Y122950D01*
Y123248D01*
X256968Y123800D01*
X257390Y124222D01*
X257942Y124450D01*
X266240D01*
Y121450D01*
D02*
G37*
G36*
X217590Y124222D02*
X218012Y123800D01*
X218240Y123248D01*
Y122950D01*
Y122652D01*
X218012Y122100D01*
X217590Y121678D01*
X217038Y121450D01*
X208740D01*
Y124450D01*
X217038D01*
X217590Y124222D01*
D02*
G37*
G36*
X266240Y116450D02*
X257942D01*
X257390Y116678D01*
X256968Y117100D01*
X256740Y117652D01*
Y117950D01*
Y118248D01*
X256968Y118800D01*
X257390Y119222D01*
X257942Y119450D01*
X266240D01*
Y116450D01*
D02*
G37*
G36*
X217590Y119222D02*
X218012Y118800D01*
X218240Y118248D01*
Y117950D01*
Y117652D01*
X218012Y117100D01*
X217590Y116678D01*
X217038Y116450D01*
X208740D01*
Y119450D01*
X217038D01*
X217590Y119222D01*
D02*
G37*
G36*
X266240Y111450D02*
X257942D01*
X257390Y111678D01*
X256968Y112100D01*
X256740Y112652D01*
Y112950D01*
Y113248D01*
X256968Y113800D01*
X257390Y114222D01*
X257942Y114450D01*
X258240D01*
Y114450D01*
X266240D01*
Y111450D01*
D02*
G37*
G36*
X216740Y114450D02*
X217038D01*
X217590Y114222D01*
X218012Y113800D01*
X218240Y113248D01*
Y112950D01*
Y112652D01*
X218012Y112100D01*
X217590Y111678D01*
X217038Y111450D01*
X208740D01*
Y114450D01*
X216740Y114450D01*
D02*
G37*
G36*
X266240Y106450D02*
X257942D01*
X257390Y106678D01*
X256968Y107100D01*
X256740Y107652D01*
Y107950D01*
Y108248D01*
X256968Y108800D01*
X257390Y109222D01*
X257942Y109450D01*
X266240D01*
Y106450D01*
D02*
G37*
G36*
X217590Y109222D02*
X218012Y108800D01*
X218240Y108248D01*
Y107950D01*
Y107652D01*
X218012Y107100D01*
X217590Y106678D01*
X217038Y106450D01*
X208740D01*
Y109450D01*
X217038D01*
X217590Y109222D01*
D02*
G37*
G36*
X266240Y101450D02*
X258240Y101450D01*
X257942D01*
X257390Y101678D01*
X256968Y102100D01*
X256740Y102652D01*
Y102950D01*
Y103248D01*
X256968Y103800D01*
X257390Y104222D01*
X257942Y104450D01*
X266240D01*
Y101450D01*
D02*
G37*
G36*
X217590Y104222D02*
X218012Y103800D01*
X218240Y103248D01*
Y102950D01*
Y102652D01*
X218012Y102100D01*
X217590Y101678D01*
X217038Y101450D01*
X216740D01*
Y101450D01*
X208740D01*
Y104450D01*
X217038D01*
X217590Y104222D01*
D02*
G37*
G36*
X266240Y96450D02*
X257942D01*
X257390Y96678D01*
X256968Y97100D01*
X256740Y97652D01*
Y97950D01*
Y98248D01*
X256968Y98800D01*
X257390Y99222D01*
X257942Y99450D01*
X266240D01*
Y96450D01*
D02*
G37*
G36*
X217590Y99222D02*
X218012Y98800D01*
X218240Y98248D01*
Y97950D01*
Y97652D01*
X218012Y97100D01*
X217590Y96678D01*
X217038Y96450D01*
X208740D01*
Y99450D01*
X217038D01*
X217590Y99222D01*
D02*
G37*
G36*
X266240Y91450D02*
X257942D01*
X257390Y91678D01*
X256968Y92100D01*
X256740Y92652D01*
Y92950D01*
Y93248D01*
X256968Y93800D01*
X257390Y94222D01*
X257942Y94450D01*
X266240D01*
Y91450D01*
D02*
G37*
G36*
X217590Y94222D02*
X218012Y93800D01*
X218240Y93248D01*
Y92950D01*
Y92652D01*
X218012Y92100D01*
X217590Y91678D01*
X217038Y91450D01*
X208740D01*
Y94450D01*
X217038D01*
X217590Y94222D01*
D02*
G37*
G36*
X254240Y94700D02*
X250740Y91200D01*
X220740D01*
Y124700D01*
X254240D01*
Y94700D01*
D02*
G37*
G36*
X253340Y88472D02*
X253762Y88050D01*
X253990Y87498D01*
Y87200D01*
Y79200D01*
X250990D01*
Y87200D01*
Y87498D01*
X251218Y88050D01*
X251640Y88472D01*
X252192Y88700D01*
X252788D01*
X253340Y88472D01*
D02*
G37*
G36*
X248340D02*
X248762Y88050D01*
X248990Y87498D01*
Y87200D01*
Y79200D01*
X245990D01*
Y87200D01*
Y87498D01*
X246218Y88050D01*
X246640Y88472D01*
X247192Y88700D01*
X247788D01*
X248340Y88472D01*
D02*
G37*
G36*
X243340D02*
X243762Y88050D01*
X243990Y87498D01*
Y87200D01*
X243990D01*
Y79200D01*
X240990D01*
Y87200D01*
Y87498D01*
X241218Y88050D01*
X241640Y88472D01*
X242192Y88700D01*
X242788D01*
X243340Y88472D01*
D02*
G37*
G36*
X238340D02*
X238762Y88050D01*
X238990Y87498D01*
Y87200D01*
Y79200D01*
X235990D01*
Y87200D01*
Y87498D01*
X236218Y88050D01*
X236640Y88472D01*
X237192Y88700D01*
X237788D01*
X238340Y88472D01*
D02*
G37*
G36*
X233340D02*
X233762Y88050D01*
X233990Y87498D01*
Y87200D01*
Y79200D01*
X230990D01*
X230990Y87200D01*
Y87498D01*
X231218Y88050D01*
X231640Y88472D01*
X232192Y88700D01*
X232788D01*
X233340Y88472D01*
D02*
G37*
G36*
X228340D02*
X228762Y88050D01*
X228990Y87498D01*
Y87200D01*
Y79200D01*
X225990D01*
Y87200D01*
Y87498D01*
X226218Y88050D01*
X226640Y88472D01*
X227192Y88700D01*
X227788D01*
X228340Y88472D01*
D02*
G37*
G36*
X223340D02*
X223762Y88050D01*
X223990Y87498D01*
Y87200D01*
Y79200D01*
X220990D01*
Y87200D01*
Y87498D01*
X221218Y88050D01*
X221640Y88472D01*
X222192Y88700D01*
X222788D01*
X223340Y88472D01*
D02*
G37*
D19*
X112590Y112000D02*
D03*
X184590D02*
D03*
X112590Y142000D02*
D03*
X184590D02*
D03*
X112590Y61200D02*
D03*
X184590D02*
D03*
X112590Y91200D02*
D03*
X184590D02*
D03*
D20*
X311270Y90780D02*
D03*
Y71780D02*
D03*
X331470Y81280D02*
D03*
X311210Y123800D02*
D03*
Y104800D02*
D03*
X331410Y114300D02*
D03*
D21*
X673630Y189100D02*
D03*
X660930D02*
D03*
X648230D02*
D03*
X635530D02*
D03*
X622830D02*
D03*
X610130D02*
D03*
X597430D02*
D03*
X584730D02*
D03*
X572030D02*
D03*
X559330D02*
D03*
X546630D02*
D03*
X533930D02*
D03*
X521230D02*
D03*
X508530D02*
D03*
Y14100D02*
D03*
X521230D02*
D03*
X533930D02*
D03*
X546630D02*
D03*
X559330D02*
D03*
X572030D02*
D03*
X584730D02*
D03*
X597430D02*
D03*
X610130D02*
D03*
X622830D02*
D03*
X635530D02*
D03*
X648230D02*
D03*
X660930D02*
D03*
X673630D02*
D03*
D22*
X496030Y158750D02*
D03*
Y146050D02*
D03*
Y133350D02*
D03*
Y120650D02*
D03*
Y107950D02*
D03*
Y95250D02*
D03*
Y82550D02*
D03*
Y69850D02*
D03*
Y57150D02*
D03*
Y44450D02*
D03*
D23*
X610430Y130600D02*
D03*
Y116600D02*
D03*
Y102600D02*
D03*
X596430Y130600D02*
D03*
Y116600D02*
D03*
Y102600D02*
D03*
X582430Y130600D02*
D03*
Y116600D02*
D03*
Y102600D02*
D03*
D24*
X261490Y92950D02*
D03*
Y97950D02*
D03*
Y102950D02*
D03*
X264740Y107950D02*
D03*
X261490Y112950D02*
D03*
Y117950D02*
D03*
Y122950D02*
D03*
X252490Y131950D02*
D03*
X247490D02*
D03*
X242490D02*
D03*
X237490Y135200D02*
D03*
X232490Y131950D02*
D03*
X227490D02*
D03*
X222490D02*
D03*
X213490Y122950D02*
D03*
Y117950D02*
D03*
Y112950D02*
D03*
X210740Y107950D02*
D03*
X213490Y102950D02*
D03*
Y97950D02*
D03*
Y92950D02*
D03*
X222490Y83950D02*
D03*
X227490D02*
D03*
X232490D02*
D03*
X237490Y81200D02*
D03*
X242490Y83950D02*
D03*
X247490D02*
D03*
X252490D02*
D03*
D25*
X421680Y132010D02*
D03*
D26*
X398780D02*
D03*
X375880D02*
D03*
D27*
X398780Y66110D02*
D03*
D28*
X14280Y135350D02*
D03*
Y67850D02*
D03*
D29*
Y113100D02*
D03*
D30*
Y86100D02*
D03*
D31*
X40030Y126475D02*
D03*
Y76725D02*
D03*
D32*
X40880Y114600D02*
D03*
Y108100D02*
D03*
Y101600D02*
D03*
Y95100D02*
D03*
Y88600D02*
D03*
D39*
X73660Y87380D02*
D03*
Y100580D02*
D03*
X60960Y147570D02*
D03*
Y134370D02*
D03*
X73660Y123440D02*
D03*
Y110240D02*
D03*
D40*
X313220Y148590D02*
D03*
X337020D02*
D03*
D41*
X449580Y132989D02*
D03*
Y113389D02*
D03*
Y96159D02*
D03*
Y76559D02*
D03*
D42*
X237490Y107950D02*
D03*
D43*
X474980Y131420D02*
D03*
Y112420D02*
D03*
X354330Y109880D02*
D03*
Y128880D02*
D03*
Y70510D02*
D03*
Y89510D02*
D03*
D44*
X285750Y120260D02*
D03*
Y103260D02*
D03*
D45*
X476400Y10160D02*
D03*
X463400D02*
D03*
X275440Y134620D02*
D03*
X288440D02*
D03*
X26667Y47372D02*
D03*
X13667D02*
D03*
X44600Y151130D02*
D03*
X31600D02*
D03*
X356720Y148590D02*
D03*
X369720D02*
D03*
X476400Y24130D02*
D03*
X463400D02*
D03*
D46*
X261770Y146050D02*
D03*
X248770D02*
D03*
X443080Y60960D02*
D03*
X456080D02*
D03*
X288440Y146050D02*
D03*
X275440D02*
D03*
X222100D02*
D03*
X235100D02*
D03*
X391010Y148590D02*
D03*
X404010D02*
D03*
D47*
X97790Y117244D02*
D03*
Y104244D02*
D03*
X73660Y138280D02*
D03*
Y151280D02*
D03*
X474980Y95400D02*
D03*
Y82400D02*
D03*
X96520Y63350D02*
D03*
Y76350D02*
D03*
X236220Y55730D02*
D03*
Y68730D02*
D03*
X247650Y55730D02*
D03*
Y68730D02*
D03*
D48*
X299720Y123340D02*
D03*
Y110340D02*
D03*
X200660Y138580D02*
D03*
Y125580D02*
D03*
X299720Y83670D02*
D03*
Y96670D02*
D03*
X97790Y146200D02*
D03*
Y133200D02*
D03*
D49*
X15240Y190500D02*
D03*
Y12700D02*
D03*
D50*
X40640Y190500D02*
D03*
X66040D02*
D03*
X91440D02*
D03*
X116840D02*
D03*
X142240D02*
D03*
X167640D02*
D03*
X193040D02*
D03*
X218440D02*
D03*
X243840D02*
D03*
X269240D02*
D03*
X294640D02*
D03*
X320040D02*
D03*
X345440D02*
D03*
X370840D02*
D03*
X396240D02*
D03*
X421640D02*
D03*
X40640Y12700D02*
D03*
X66040D02*
D03*
X91440D02*
D03*
X116840D02*
D03*
X142240D02*
D03*
X167640D02*
D03*
X193040D02*
D03*
X218440D02*
D03*
X243840D02*
D03*
X269240D02*
D03*
X294640D02*
D03*
X320040D02*
D03*
X345440D02*
D03*
X370840D02*
D03*
X396240D02*
D03*
X421640D02*
D03*
M02*
