G04*
G04 #@! TF.GenerationSoftware,Altium Limited,Altium Designer,23.1.1 (15)*
G04*
G04 Layer_Physical_Order=3*
G04 Layer_Color=16440176*
%FSLAX44Y44*%
%MOMM*%
G71*
G04*
G04 #@! TF.SameCoordinates,EB36885D-2DDF-469F-ABB7-EBECF6A50CA0*
G04*
G04*
G04 #@! TF.FilePolarity,Positive*
G04*
G01*
G75*
%ADD49R,1.5700X1.5700*%
%ADD50C,1.5700*%
%ADD52C,0.6096*%
G36*
X683210Y2590D02*
X426368D01*
X426028Y3860D01*
X427688Y4818D01*
X429522Y6652D01*
X430819Y8898D01*
X431490Y11403D01*
Y13997D01*
X430819Y16502D01*
X429522Y18748D01*
X427688Y20582D01*
X425442Y21879D01*
X422937Y22550D01*
X420343D01*
X417838Y21879D01*
X415592Y20582D01*
X413758Y18748D01*
X412461Y16502D01*
X411790Y13997D01*
Y11403D01*
X412461Y8898D01*
X413758Y6652D01*
X415592Y4818D01*
X417252Y3860D01*
X416912Y2590D01*
X400968D01*
X400628Y3860D01*
X402288Y4818D01*
X404122Y6652D01*
X405419Y8898D01*
X406090Y11403D01*
Y13997D01*
X405419Y16502D01*
X404122Y18748D01*
X402288Y20582D01*
X400042Y21879D01*
X397537Y22550D01*
X394943D01*
X392438Y21879D01*
X390192Y20582D01*
X388358Y18748D01*
X387061Y16502D01*
X386390Y13997D01*
Y11403D01*
X387061Y8898D01*
X388358Y6652D01*
X390192Y4818D01*
X391852Y3860D01*
X391512Y2590D01*
X375568D01*
X375228Y3860D01*
X376888Y4818D01*
X378722Y6652D01*
X380019Y8898D01*
X380690Y11403D01*
Y13997D01*
X380019Y16502D01*
X378722Y18748D01*
X376888Y20582D01*
X374642Y21879D01*
X372137Y22550D01*
X369543D01*
X367038Y21879D01*
X364792Y20582D01*
X362958Y18748D01*
X361661Y16502D01*
X360990Y13997D01*
Y11403D01*
X361661Y8898D01*
X362958Y6652D01*
X364792Y4818D01*
X366452Y3860D01*
X366112Y2590D01*
X350168D01*
X349828Y3860D01*
X351488Y4818D01*
X353322Y6652D01*
X354619Y8898D01*
X355290Y11403D01*
Y13997D01*
X354619Y16502D01*
X353322Y18748D01*
X351488Y20582D01*
X349242Y21879D01*
X346737Y22550D01*
X344143D01*
X341638Y21879D01*
X339392Y20582D01*
X337558Y18748D01*
X336261Y16502D01*
X335590Y13997D01*
Y11403D01*
X336261Y8898D01*
X337558Y6652D01*
X339392Y4818D01*
X341052Y3860D01*
X340712Y2590D01*
X324768D01*
X324428Y3860D01*
X326088Y4818D01*
X327922Y6652D01*
X329219Y8898D01*
X329890Y11403D01*
Y13997D01*
X329219Y16502D01*
X327922Y18748D01*
X326088Y20582D01*
X323842Y21879D01*
X321337Y22550D01*
X318743D01*
X316238Y21879D01*
X313992Y20582D01*
X312158Y18748D01*
X310861Y16502D01*
X310190Y13997D01*
Y11403D01*
X310861Y8898D01*
X312158Y6652D01*
X313992Y4818D01*
X315652Y3860D01*
X315312Y2590D01*
X299368D01*
X299028Y3860D01*
X300688Y4818D01*
X302522Y6652D01*
X303819Y8898D01*
X304490Y11403D01*
Y13997D01*
X303819Y16502D01*
X302522Y18748D01*
X300688Y20582D01*
X298442Y21879D01*
X295937Y22550D01*
X293343D01*
X290838Y21879D01*
X288592Y20582D01*
X286758Y18748D01*
X285461Y16502D01*
X284790Y13997D01*
Y11403D01*
X285461Y8898D01*
X286758Y6652D01*
X288592Y4818D01*
X290252Y3860D01*
X289912Y2590D01*
X273968D01*
X273628Y3860D01*
X275288Y4818D01*
X277122Y6652D01*
X278419Y8898D01*
X279090Y11403D01*
Y13997D01*
X278419Y16502D01*
X277122Y18748D01*
X275288Y20582D01*
X273042Y21879D01*
X270537Y22550D01*
X267943D01*
X265438Y21879D01*
X263192Y20582D01*
X261358Y18748D01*
X260061Y16502D01*
X259390Y13997D01*
Y11403D01*
X260061Y8898D01*
X261358Y6652D01*
X263192Y4818D01*
X264852Y3860D01*
X264512Y2590D01*
X248568D01*
X248228Y3860D01*
X249888Y4818D01*
X251722Y6652D01*
X253019Y8898D01*
X253690Y11403D01*
Y13997D01*
X253019Y16502D01*
X251722Y18748D01*
X249888Y20582D01*
X247642Y21879D01*
X245137Y22550D01*
X242543D01*
X240038Y21879D01*
X237792Y20582D01*
X235958Y18748D01*
X234661Y16502D01*
X233990Y13997D01*
Y11403D01*
X234661Y8898D01*
X235958Y6652D01*
X237792Y4818D01*
X239452Y3860D01*
X239112Y2590D01*
X223168D01*
X222828Y3860D01*
X224488Y4818D01*
X226322Y6652D01*
X227619Y8898D01*
X228290Y11403D01*
Y13997D01*
X227619Y16502D01*
X226322Y18748D01*
X224488Y20582D01*
X222242Y21879D01*
X219737Y22550D01*
X217143D01*
X214638Y21879D01*
X212392Y20582D01*
X210558Y18748D01*
X209261Y16502D01*
X208590Y13997D01*
Y11403D01*
X209261Y8898D01*
X210558Y6652D01*
X212392Y4818D01*
X214052Y3860D01*
X213712Y2590D01*
X197768D01*
X197428Y3860D01*
X199088Y4818D01*
X200922Y6652D01*
X202219Y8898D01*
X202890Y11403D01*
Y13997D01*
X202219Y16502D01*
X200922Y18748D01*
X199088Y20582D01*
X196842Y21879D01*
X194337Y22550D01*
X191743D01*
X189238Y21879D01*
X186992Y20582D01*
X185158Y18748D01*
X183861Y16502D01*
X183190Y13997D01*
Y11403D01*
X183861Y8898D01*
X185158Y6652D01*
X186992Y4818D01*
X188652Y3860D01*
X188312Y2590D01*
X172368D01*
X172028Y3860D01*
X173688Y4818D01*
X175522Y6652D01*
X176819Y8898D01*
X177490Y11403D01*
Y13997D01*
X176819Y16502D01*
X175522Y18748D01*
X173688Y20582D01*
X171442Y21879D01*
X168937Y22550D01*
X166343D01*
X163838Y21879D01*
X161592Y20582D01*
X159758Y18748D01*
X158461Y16502D01*
X157790Y13997D01*
Y11403D01*
X158461Y8898D01*
X159758Y6652D01*
X161592Y4818D01*
X163252Y3860D01*
X162912Y2590D01*
X146968D01*
X146628Y3860D01*
X148288Y4818D01*
X150122Y6652D01*
X151419Y8898D01*
X152090Y11403D01*
Y13997D01*
X151419Y16502D01*
X150122Y18748D01*
X148288Y20582D01*
X146042Y21879D01*
X143537Y22550D01*
X140943D01*
X138438Y21879D01*
X136192Y20582D01*
X134358Y18748D01*
X133061Y16502D01*
X132390Y13997D01*
Y11403D01*
X133061Y8898D01*
X134358Y6652D01*
X136192Y4818D01*
X137852Y3860D01*
X137512Y2590D01*
X121568D01*
X121228Y3860D01*
X122888Y4818D01*
X124722Y6652D01*
X126019Y8898D01*
X126690Y11403D01*
Y13997D01*
X126019Y16502D01*
X124722Y18748D01*
X122888Y20582D01*
X120642Y21879D01*
X118137Y22550D01*
X115543D01*
X113038Y21879D01*
X110792Y20582D01*
X108958Y18748D01*
X107661Y16502D01*
X106990Y13997D01*
Y11403D01*
X107661Y8898D01*
X108958Y6652D01*
X110792Y4818D01*
X112452Y3860D01*
X112112Y2590D01*
X96168D01*
X95828Y3860D01*
X97488Y4818D01*
X99322Y6652D01*
X100619Y8898D01*
X101290Y11403D01*
Y13997D01*
X100619Y16502D01*
X99322Y18748D01*
X97488Y20582D01*
X95242Y21879D01*
X92737Y22550D01*
X90143D01*
X87638Y21879D01*
X85392Y20582D01*
X83558Y18748D01*
X82261Y16502D01*
X81590Y13997D01*
Y11403D01*
X82261Y8898D01*
X83558Y6652D01*
X85392Y4818D01*
X87052Y3860D01*
X86712Y2590D01*
X70768D01*
X70428Y3860D01*
X72088Y4818D01*
X73922Y6652D01*
X75219Y8898D01*
X75890Y11403D01*
Y13997D01*
X75219Y16502D01*
X73922Y18748D01*
X72088Y20582D01*
X69842Y21879D01*
X67337Y22550D01*
X64743D01*
X62238Y21879D01*
X59992Y20582D01*
X58158Y18748D01*
X56861Y16502D01*
X56190Y13997D01*
Y11403D01*
X56861Y8898D01*
X58158Y6652D01*
X59992Y4818D01*
X61652Y3860D01*
X61312Y2590D01*
X45368D01*
X45028Y3860D01*
X46688Y4818D01*
X48522Y6652D01*
X49819Y8898D01*
X50490Y11403D01*
Y13997D01*
X49819Y16502D01*
X48522Y18748D01*
X46688Y20582D01*
X44442Y21879D01*
X41937Y22550D01*
X39343D01*
X36838Y21879D01*
X34592Y20582D01*
X32758Y18748D01*
X31461Y16502D01*
X30790Y13997D01*
Y11403D01*
X31461Y8898D01*
X32758Y6652D01*
X34592Y4818D01*
X36252Y3860D01*
X35912Y2590D01*
X25630D01*
Y11430D01*
X4850D01*
Y2590D01*
X2590D01*
Y159925D01*
X3860Y160451D01*
X4760Y159551D01*
X6616Y158782D01*
X8624D01*
X10480Y159551D01*
X11899Y160970D01*
X12668Y162826D01*
Y164834D01*
X11899Y166689D01*
X10480Y168109D01*
X8624Y168878D01*
X6616D01*
X4760Y168109D01*
X3860Y167209D01*
X2590Y167735D01*
Y200610D01*
X4228D01*
X5390Y200350D01*
X5390Y199340D01*
Y180650D01*
X25090D01*
Y199340D01*
X25090Y200350D01*
X26252Y200610D01*
X34832D01*
X35172Y199340D01*
X34260Y198814D01*
X32326Y196880D01*
X30958Y194510D01*
X30250Y191868D01*
Y191770D01*
X51030D01*
Y191868D01*
X50322Y194510D01*
X48954Y196880D01*
X47020Y198814D01*
X46108Y199340D01*
X46448Y200610D01*
X61312D01*
X61652Y199340D01*
X59992Y198382D01*
X58158Y196548D01*
X56861Y194302D01*
X56190Y191797D01*
Y189203D01*
X56861Y186698D01*
X58158Y184452D01*
X59992Y182618D01*
X62238Y181321D01*
X64743Y180650D01*
X67337D01*
X69842Y181321D01*
X72088Y182618D01*
X73922Y184452D01*
X75219Y186698D01*
X75890Y189203D01*
Y191797D01*
X75219Y194302D01*
X73922Y196548D01*
X72088Y198382D01*
X70428Y199340D01*
X70768Y200610D01*
X86712D01*
X87052Y199340D01*
X85392Y198382D01*
X83558Y196548D01*
X82261Y194302D01*
X81590Y191797D01*
Y189203D01*
X82261Y186698D01*
X83558Y184452D01*
X85392Y182618D01*
X87638Y181321D01*
X90143Y180650D01*
X92737D01*
X95242Y181321D01*
X97488Y182618D01*
X99322Y184452D01*
X100619Y186698D01*
X101290Y189203D01*
Y191797D01*
X100619Y194302D01*
X99322Y196548D01*
X97488Y198382D01*
X95828Y199340D01*
X96168Y200610D01*
X112112D01*
X112452Y199340D01*
X110792Y198382D01*
X108958Y196548D01*
X107661Y194302D01*
X106990Y191797D01*
Y189203D01*
X107661Y186698D01*
X108958Y184452D01*
X110792Y182618D01*
X113038Y181321D01*
X115543Y180650D01*
X118137D01*
X120642Y181321D01*
X122888Y182618D01*
X124722Y184452D01*
X126019Y186698D01*
X126690Y189203D01*
Y191797D01*
X126019Y194302D01*
X124722Y196548D01*
X122888Y198382D01*
X121228Y199340D01*
X121568Y200610D01*
X137512D01*
X137852Y199340D01*
X136192Y198382D01*
X134358Y196548D01*
X133061Y194302D01*
X132390Y191797D01*
Y189203D01*
X133061Y186698D01*
X134358Y184452D01*
X136192Y182618D01*
X138438Y181321D01*
X140943Y180650D01*
X143537D01*
X146042Y181321D01*
X148288Y182618D01*
X150122Y184452D01*
X151419Y186698D01*
X152090Y189203D01*
Y191797D01*
X151419Y194302D01*
X150122Y196548D01*
X148288Y198382D01*
X146628Y199340D01*
X146968Y200610D01*
X162912D01*
X163252Y199340D01*
X161592Y198382D01*
X159758Y196548D01*
X158461Y194302D01*
X157790Y191797D01*
Y189203D01*
X158461Y186698D01*
X159758Y184452D01*
X161592Y182618D01*
X163838Y181321D01*
X166343Y180650D01*
X168937D01*
X171442Y181321D01*
X173688Y182618D01*
X175522Y184452D01*
X176819Y186698D01*
X177490Y189203D01*
Y191797D01*
X176819Y194302D01*
X175522Y196548D01*
X173688Y198382D01*
X172028Y199340D01*
X172368Y200610D01*
X188312D01*
X188652Y199340D01*
X186992Y198382D01*
X185158Y196548D01*
X183861Y194302D01*
X183190Y191797D01*
Y189203D01*
X183861Y186698D01*
X185158Y184452D01*
X186992Y182618D01*
X189238Y181321D01*
X191743Y180650D01*
X194337D01*
X196842Y181321D01*
X199088Y182618D01*
X200922Y184452D01*
X202219Y186698D01*
X202890Y189203D01*
Y191797D01*
X202219Y194302D01*
X200922Y196548D01*
X199088Y198382D01*
X197428Y199340D01*
X197768Y200610D01*
X213712D01*
X214052Y199340D01*
X212392Y198382D01*
X210558Y196548D01*
X209261Y194302D01*
X208590Y191797D01*
Y189203D01*
X209261Y186698D01*
X210558Y184452D01*
X212392Y182618D01*
X214638Y181321D01*
X217143Y180650D01*
X219737D01*
X222242Y181321D01*
X224488Y182618D01*
X226322Y184452D01*
X227619Y186698D01*
X228290Y189203D01*
Y191797D01*
X227619Y194302D01*
X226322Y196548D01*
X224488Y198382D01*
X222828Y199340D01*
X223168Y200610D01*
X239112D01*
X239452Y199340D01*
X237792Y198382D01*
X235958Y196548D01*
X234661Y194302D01*
X233990Y191797D01*
Y189203D01*
X234661Y186698D01*
X235958Y184452D01*
X237792Y182618D01*
X240038Y181321D01*
X242543Y180650D01*
X245137D01*
X247642Y181321D01*
X249888Y182618D01*
X251722Y184452D01*
X253019Y186698D01*
X253690Y189203D01*
Y191797D01*
X253019Y194302D01*
X251722Y196548D01*
X249888Y198382D01*
X248228Y199340D01*
X248568Y200610D01*
X264512D01*
X264852Y199340D01*
X263192Y198382D01*
X261358Y196548D01*
X260061Y194302D01*
X259390Y191797D01*
Y189203D01*
X260061Y186698D01*
X261358Y184452D01*
X263192Y182618D01*
X265438Y181321D01*
X267943Y180650D01*
X270537D01*
X273042Y181321D01*
X275288Y182618D01*
X277122Y184452D01*
X278419Y186698D01*
X279090Y189203D01*
Y191797D01*
X278419Y194302D01*
X277122Y196548D01*
X275288Y198382D01*
X273628Y199340D01*
X273968Y200610D01*
X289912D01*
X290252Y199340D01*
X288592Y198382D01*
X286758Y196548D01*
X285461Y194302D01*
X284790Y191797D01*
Y189203D01*
X285461Y186698D01*
X286758Y184452D01*
X288592Y182618D01*
X290838Y181321D01*
X293343Y180650D01*
X295937D01*
X298442Y181321D01*
X300688Y182618D01*
X302522Y184452D01*
X303819Y186698D01*
X304490Y189203D01*
Y191797D01*
X303819Y194302D01*
X302522Y196548D01*
X300688Y198382D01*
X299028Y199340D01*
X299368Y200610D01*
X315312D01*
X315652Y199340D01*
X313992Y198382D01*
X312158Y196548D01*
X310861Y194302D01*
X310190Y191797D01*
Y189203D01*
X310861Y186698D01*
X312158Y184452D01*
X313992Y182618D01*
X316238Y181321D01*
X318743Y180650D01*
X321337D01*
X323842Y181321D01*
X326088Y182618D01*
X327922Y184452D01*
X329219Y186698D01*
X329890Y189203D01*
Y191797D01*
X329219Y194302D01*
X327922Y196548D01*
X326088Y198382D01*
X324428Y199340D01*
X324768Y200610D01*
X340712D01*
X341052Y199340D01*
X339392Y198382D01*
X337558Y196548D01*
X336261Y194302D01*
X335590Y191797D01*
Y189203D01*
X336261Y186698D01*
X337558Y184452D01*
X339392Y182618D01*
X341638Y181321D01*
X344143Y180650D01*
X346737D01*
X349242Y181321D01*
X351488Y182618D01*
X353322Y184452D01*
X354619Y186698D01*
X355290Y189203D01*
Y191797D01*
X354619Y194302D01*
X353322Y196548D01*
X351488Y198382D01*
X349828Y199340D01*
X350168Y200610D01*
X366112D01*
X366452Y199340D01*
X364792Y198382D01*
X362958Y196548D01*
X361661Y194302D01*
X360990Y191797D01*
Y189203D01*
X361661Y186698D01*
X362958Y184452D01*
X364792Y182618D01*
X367038Y181321D01*
X369543Y180650D01*
X372137D01*
X374642Y181321D01*
X376888Y182618D01*
X378722Y184452D01*
X380019Y186698D01*
X380690Y189203D01*
Y191797D01*
X380019Y194302D01*
X378722Y196548D01*
X376888Y198382D01*
X375228Y199340D01*
X375568Y200610D01*
X391512D01*
X391852Y199340D01*
X390192Y198382D01*
X388358Y196548D01*
X387061Y194302D01*
X386390Y191797D01*
Y189203D01*
X387061Y186698D01*
X388358Y184452D01*
X390192Y182618D01*
X392438Y181321D01*
X394943Y180650D01*
X397537D01*
X400042Y181321D01*
X402288Y182618D01*
X404122Y184452D01*
X405419Y186698D01*
X406090Y189203D01*
Y191797D01*
X405419Y194302D01*
X404122Y196548D01*
X402288Y198382D01*
X400628Y199340D01*
X400968Y200610D01*
X416912D01*
X417252Y199340D01*
X415592Y198382D01*
X413758Y196548D01*
X412461Y194302D01*
X411790Y191797D01*
Y189203D01*
X412461Y186698D01*
X413758Y184452D01*
X415592Y182618D01*
X417838Y181321D01*
X420343Y180650D01*
X422937D01*
X425442Y181321D01*
X427688Y182618D01*
X429522Y184452D01*
X430819Y186698D01*
X431490Y189203D01*
Y191797D01*
X430819Y194302D01*
X429522Y196548D01*
X427688Y198382D01*
X426028Y199340D01*
X426368Y200610D01*
X683210D01*
Y2590D01*
D02*
G37*
%LPC*%
G36*
X498844Y194278D02*
X496836D01*
X494981Y193510D01*
X493560Y192090D01*
X492792Y190234D01*
Y188226D01*
X493560Y186371D01*
X494981Y184951D01*
X496836Y184182D01*
X498844D01*
X500700Y184951D01*
X502119Y186371D01*
X502888Y188226D01*
Y190234D01*
X502119Y192090D01*
X500700Y193510D01*
X498844Y194278D01*
D02*
G37*
G36*
X448044Y193008D02*
X446036D01*
X444180Y192239D01*
X442761Y190819D01*
X441992Y188964D01*
Y186956D01*
X442761Y185100D01*
X444180Y183680D01*
X446036Y182912D01*
X448044D01*
X449899Y183680D01*
X451320Y185100D01*
X452088Y186956D01*
Y188964D01*
X451320Y190819D01*
X449899Y192239D01*
X448044Y193008D01*
D02*
G37*
G36*
X51030Y189230D02*
X41910D01*
Y180110D01*
X42008D01*
X44650Y180818D01*
X47020Y182186D01*
X48954Y184120D01*
X50322Y186490D01*
X51030Y189132D01*
Y189230D01*
D02*
G37*
G36*
X39370D02*
X30250D01*
Y189132D01*
X30958Y186490D01*
X32326Y184120D01*
X34260Y182186D01*
X36630Y180818D01*
X39272Y180110D01*
X39370D01*
Y189230D01*
D02*
G37*
G36*
X662200Y181312D02*
Y177060D01*
X666452D01*
X665667Y178955D01*
X664095Y180527D01*
X662200Y181312D01*
D02*
G37*
G36*
X659660D02*
X657765Y180527D01*
X656193Y178955D01*
X655408Y177060D01*
X659660D01*
Y181312D01*
D02*
G37*
G36*
X674634Y181048D02*
X672626D01*
X670770Y180280D01*
X669351Y178860D01*
X668582Y177004D01*
Y174996D01*
X669351Y173141D01*
X670770Y171721D01*
X672626Y170952D01*
X674634D01*
X676489Y171721D01*
X677909Y173141D01*
X678678Y174996D01*
Y177004D01*
X677909Y178860D01*
X676489Y180280D01*
X674634Y181048D01*
D02*
G37*
G36*
X522974Y180816D02*
X520966D01*
X519110Y180047D01*
X517691Y178627D01*
X516922Y176772D01*
Y174764D01*
X517691Y172908D01*
X519110Y171488D01*
X520966Y170720D01*
X522974D01*
X524829Y171488D01*
X526250Y172908D01*
X527018Y174764D01*
Y176772D01*
X526250Y178627D01*
X524829Y180047D01*
X522974Y180816D01*
D02*
G37*
G36*
X636904Y180678D02*
X634896D01*
X633041Y179909D01*
X631620Y178489D01*
X630852Y176634D01*
Y174626D01*
X631620Y172771D01*
X633041Y171350D01*
X634896Y170582D01*
X636904D01*
X638759Y171350D01*
X640180Y172771D01*
X640948Y174626D01*
Y176634D01*
X640180Y178489D01*
X638759Y179909D01*
X636904Y180678D01*
D02*
G37*
G36*
X610847Y180595D02*
X608838D01*
X606983Y179827D01*
X605563Y178407D01*
X604795Y176552D01*
Y174543D01*
X605563Y172688D01*
X606983Y171268D01*
X608838Y170499D01*
X610847D01*
X612702Y171268D01*
X614122Y172688D01*
X614891Y174543D01*
Y176552D01*
X614122Y178407D01*
X612702Y179827D01*
X610847Y180595D01*
D02*
G37*
G36*
X598169Y180573D02*
X596161D01*
X594305Y179804D01*
X592886Y178384D01*
X592117Y176529D01*
Y174521D01*
X592886Y172666D01*
X594305Y171245D01*
X596161Y170477D01*
X598169D01*
X600024Y171245D01*
X601445Y172666D01*
X602213Y174521D01*
Y176529D01*
X601445Y178384D01*
X600024Y179804D01*
X598169Y180573D01*
D02*
G37*
G36*
X666452Y174520D02*
X662200D01*
Y170268D01*
X664095Y171053D01*
X665667Y172625D01*
X666452Y174520D01*
D02*
G37*
G36*
X659660D02*
X655408D01*
X656193Y172625D01*
X657765Y171053D01*
X659660Y170268D01*
Y174520D01*
D02*
G37*
G36*
X648704Y180308D02*
X646696D01*
X644840Y179540D01*
X643420Y178120D01*
X642652Y176264D01*
Y174256D01*
X643420Y172400D01*
X644840Y170980D01*
X646696Y170212D01*
X648704D01*
X650559Y170980D01*
X651980Y172400D01*
X652748Y174256D01*
Y176264D01*
X651980Y178120D01*
X650559Y179540D01*
X648704Y180308D01*
D02*
G37*
G36*
X624574D02*
X622566D01*
X620710Y179540D01*
X619291Y178120D01*
X618522Y176264D01*
Y174256D01*
X619291Y172400D01*
X620710Y170980D01*
X622566Y170212D01*
X624574D01*
X626429Y170980D01*
X627850Y172400D01*
X628618Y174256D01*
Y176264D01*
X627850Y178120D01*
X626429Y179540D01*
X624574Y180308D01*
D02*
G37*
G36*
X585204D02*
X583196D01*
X581340Y179540D01*
X579921Y178120D01*
X579152Y176264D01*
Y174256D01*
X579921Y172400D01*
X581340Y170980D01*
X583196Y170212D01*
X585204D01*
X587060Y170980D01*
X588479Y172400D01*
X589248Y174256D01*
Y176264D01*
X588479Y178120D01*
X587060Y179540D01*
X585204Y180308D01*
D02*
G37*
G36*
X573774D02*
X571766D01*
X569911Y179540D01*
X568490Y178120D01*
X567722Y176264D01*
Y174256D01*
X568490Y172400D01*
X569911Y170980D01*
X571766Y170212D01*
X573774D01*
X575630Y170980D01*
X577049Y172400D01*
X577818Y174256D01*
Y176264D01*
X577049Y178120D01*
X575630Y179540D01*
X573774Y180308D01*
D02*
G37*
G36*
X561074D02*
X559066D01*
X557211Y179540D01*
X555790Y178120D01*
X555022Y176264D01*
Y174256D01*
X555790Y172400D01*
X557211Y170980D01*
X559066Y170212D01*
X561074D01*
X562929Y170980D01*
X564350Y172400D01*
X565118Y174256D01*
Y176264D01*
X564350Y178120D01*
X562929Y179540D01*
X561074Y180308D01*
D02*
G37*
G36*
X548374D02*
X546366D01*
X544510Y179540D01*
X543091Y178120D01*
X542322Y176264D01*
Y174256D01*
X543091Y172400D01*
X544510Y170980D01*
X546366Y170212D01*
X548374D01*
X550229Y170980D01*
X551650Y172400D01*
X552418Y174256D01*
Y176264D01*
X551650Y178120D01*
X550229Y179540D01*
X548374Y180308D01*
D02*
G37*
G36*
X534404D02*
X532396D01*
X530541Y179540D01*
X529120Y178120D01*
X528352Y176264D01*
Y174256D01*
X529120Y172400D01*
X530541Y170980D01*
X532396Y170212D01*
X534404D01*
X536259Y170980D01*
X537679Y172400D01*
X538448Y174256D01*
Y176264D01*
X537679Y178120D01*
X536259Y179540D01*
X534404Y180308D01*
D02*
G37*
G36*
X45720Y166812D02*
Y162560D01*
X49972D01*
X49187Y164455D01*
X47615Y166027D01*
X45720Y166812D01*
D02*
G37*
G36*
X43180D02*
X41285Y166027D01*
X39713Y164455D01*
X38928Y162560D01*
X43180D01*
Y166812D01*
D02*
G37*
G36*
X293223Y166157D02*
Y161905D01*
X297475D01*
X296690Y163800D01*
X295118Y165372D01*
X293223Y166157D01*
D02*
G37*
G36*
X290683D02*
X288788Y165372D01*
X287216Y163800D01*
X286431Y161905D01*
X290683D01*
Y166157D01*
D02*
G37*
G36*
X32754Y168878D02*
X30746D01*
X28891Y168109D01*
X27471Y166689D01*
X26702Y164834D01*
Y162826D01*
X27471Y160970D01*
X28891Y159551D01*
X30746Y158782D01*
X32754D01*
X34609Y159551D01*
X36030Y160970D01*
X36798Y162826D01*
Y164834D01*
X36030Y166689D01*
X34609Y168109D01*
X32754Y168878D01*
D02*
G37*
G36*
X20054D02*
X18046D01*
X16191Y168109D01*
X14770Y166689D01*
X14002Y164834D01*
Y162826D01*
X14770Y160970D01*
X16191Y159551D01*
X18046Y158782D01*
X20054D01*
X21909Y159551D01*
X23330Y160970D01*
X24098Y162826D01*
Y164834D01*
X23330Y166689D01*
X21909Y168109D01*
X20054Y168878D01*
D02*
G37*
G36*
X105410Y161732D02*
Y157480D01*
X109662D01*
X108877Y159375D01*
X107305Y160947D01*
X105410Y161732D01*
D02*
G37*
G36*
X102870D02*
X100975Y160947D01*
X99403Y159375D01*
X98618Y157480D01*
X102870D01*
Y161732D01*
D02*
G37*
G36*
X223715Y161520D02*
Y157268D01*
X227968D01*
X227183Y159163D01*
X225611Y160735D01*
X223715Y161520D01*
D02*
G37*
G36*
X221175D02*
X219280Y160735D01*
X217708Y159163D01*
X216923Y157268D01*
X221175D01*
Y161520D01*
D02*
G37*
G36*
X49972Y160020D02*
X45720D01*
Y155768D01*
X47615Y156553D01*
X49187Y158125D01*
X49972Y160020D01*
D02*
G37*
G36*
X43180D02*
X38928D01*
X39713Y158125D01*
X41285Y156553D01*
X43180Y155768D01*
Y160020D01*
D02*
G37*
G36*
X297475Y159365D02*
X293223D01*
Y155113D01*
X295118Y155898D01*
X296690Y157470D01*
X297475Y159365D01*
D02*
G37*
G36*
X290683D02*
X286431D01*
X287216Y157470D01*
X288788Y155898D01*
X290683Y155113D01*
Y159365D01*
D02*
G37*
G36*
X74642Y165046D02*
X72633D01*
X70778Y164277D01*
X69358Y162857D01*
X68590Y161002D01*
Y158993D01*
X69358Y157138D01*
X70778Y155718D01*
X72633Y154950D01*
X74642D01*
X76497Y155718D01*
X77917Y157138D01*
X78685Y158993D01*
Y161002D01*
X77917Y162857D01*
X76497Y164277D01*
X74642Y165046D01*
D02*
G37*
G36*
X510274Y164528D02*
X508266D01*
X506410Y163759D01*
X504991Y162339D01*
X504222Y160484D01*
Y158476D01*
X504991Y156621D01*
X506410Y155201D01*
X508266Y154432D01*
X510274D01*
X512130Y155201D01*
X513549Y156621D01*
X514318Y158476D01*
Y160484D01*
X513549Y162339D01*
X512130Y163759D01*
X510274Y164528D01*
D02*
G37*
G36*
X370364Y164020D02*
X368355D01*
X366500Y163251D01*
X365080Y161831D01*
X364312Y159976D01*
Y157968D01*
X365080Y156112D01*
X366500Y154692D01*
X368355Y153924D01*
X370364D01*
X372219Y154692D01*
X373639Y156112D01*
X374408Y157968D01*
Y159976D01*
X373639Y161831D01*
X372219Y163251D01*
X370364Y164020D01*
D02*
G37*
G36*
X249924Y163511D02*
X247916D01*
X246061Y162743D01*
X244641Y161322D01*
X243872Y159467D01*
Y157459D01*
X244641Y155604D01*
X246061Y154184D01*
X247916Y153415D01*
X249924D01*
X251779Y154184D01*
X253200Y155604D01*
X253968Y157459D01*
Y159467D01*
X253200Y161322D01*
X251779Y162743D01*
X249924Y163511D01*
D02*
G37*
G36*
X109662Y154940D02*
X105410D01*
Y150688D01*
X107305Y151473D01*
X108877Y153045D01*
X109662Y154940D01*
D02*
G37*
G36*
X102870D02*
X98618D01*
X99403Y153045D01*
X100975Y151473D01*
X102870Y150688D01*
Y154940D01*
D02*
G37*
G36*
X227968Y154727D02*
X223715D01*
Y150475D01*
X225611Y151260D01*
X227183Y152832D01*
X227968Y154727D01*
D02*
G37*
G36*
X221175D02*
X216923D01*
X217708Y152832D01*
X219280Y151260D01*
X221175Y150475D01*
Y154727D01*
D02*
G37*
G36*
X61964Y159988D02*
X59956D01*
X58101Y159220D01*
X56680Y157800D01*
X55912Y155944D01*
Y153936D01*
X56680Y152080D01*
X58101Y150660D01*
X59956Y149892D01*
X61964D01*
X63819Y150660D01*
X65240Y152080D01*
X66008Y153936D01*
Y155944D01*
X65240Y157800D01*
X63819Y159220D01*
X61964Y159988D01*
D02*
G37*
G36*
X475984Y147860D02*
X473976D01*
X472121Y147092D01*
X470700Y145672D01*
X469932Y143816D01*
Y141808D01*
X470700Y139953D01*
X472121Y138532D01*
X473976Y137764D01*
X475984D01*
X477840Y138532D01*
X479259Y139953D01*
X480028Y141808D01*
Y143816D01*
X479259Y145672D01*
X477840Y147092D01*
X475984Y147860D01*
D02*
G37*
G36*
X299618Y146181D02*
X297609D01*
X295754Y145413D01*
X294334Y143993D01*
X293566Y142138D01*
Y140129D01*
X294334Y138274D01*
X295754Y136854D01*
X297609Y136086D01*
X299618D01*
X301473Y136854D01*
X302893Y138274D01*
X303661Y140129D01*
Y142138D01*
X302893Y143993D01*
X301473Y145413D01*
X299618Y146181D01*
D02*
G37*
G36*
X273225Y133642D02*
X271330Y132857D01*
X269758Y131285D01*
X269615Y130940D01*
X268253Y130969D01*
X266817Y132404D01*
X264922Y133189D01*
Y127667D01*
Y122145D01*
X266817Y122930D01*
X268389Y124502D01*
X268533Y124848D01*
X269895Y124818D01*
X271330Y123383D01*
X273225Y122598D01*
Y128120D01*
Y133642D01*
D02*
G37*
G36*
X431534Y140366D02*
X429526D01*
X427671Y139598D01*
X426250Y138177D01*
X425482Y136322D01*
Y134314D01*
X426250Y132458D01*
X427671Y131039D01*
X429526Y130270D01*
X431534D01*
X433390Y131039D01*
X434809Y132458D01*
X435578Y134314D01*
Y136322D01*
X434809Y138177D01*
X433390Y139598D01*
X431534Y140366D01*
D02*
G37*
G36*
X275765Y133642D02*
Y129390D01*
X280018D01*
X279233Y131285D01*
X277661Y132857D01*
X275765Y133642D01*
D02*
G37*
G36*
X262382Y133189D02*
X260487Y132404D01*
X258915Y130832D01*
X258130Y128937D01*
X262382D01*
Y133189D01*
D02*
G37*
G36*
X611434Y135648D02*
X609426D01*
X607570Y134880D01*
X606151Y133459D01*
X605382Y131604D01*
Y129596D01*
X606151Y127740D01*
X607570Y126320D01*
X609426Y125552D01*
X611434D01*
X613289Y126320D01*
X614710Y127740D01*
X615478Y129596D01*
Y131604D01*
X614710Y133459D01*
X613289Y134880D01*
X611434Y135648D01*
D02*
G37*
G36*
X597434D02*
X595426D01*
X593571Y134880D01*
X592150Y133459D01*
X591382Y131604D01*
Y129596D01*
X592150Y127740D01*
X593571Y126320D01*
X595426Y125552D01*
X597434D01*
X599290Y126320D01*
X600709Y127740D01*
X601478Y129596D01*
Y131604D01*
X600709Y133459D01*
X599290Y134880D01*
X597434Y135648D01*
D02*
G37*
G36*
X583602Y135480D02*
X581593D01*
X579738Y134712D01*
X578318Y133292D01*
X577550Y131437D01*
Y129428D01*
X578318Y127573D01*
X579738Y126153D01*
X581593Y125385D01*
X583602D01*
X585457Y126153D01*
X586877Y127573D01*
X587645Y129428D01*
Y131437D01*
X586877Y133292D01*
X585457Y134712D01*
X583602Y135480D01*
D02*
G37*
G36*
X280018Y126850D02*
X275765D01*
Y122598D01*
X277661Y123383D01*
X279233Y124955D01*
X280018Y126850D01*
D02*
G37*
G36*
X262382Y126397D02*
X258130D01*
X258915Y124502D01*
X260487Y122930D01*
X262382Y122145D01*
Y126397D01*
D02*
G37*
G36*
X248654Y121126D02*
X246646D01*
X244790Y120358D01*
X243370Y118938D01*
X243257Y118664D01*
X241883D01*
X241770Y118938D01*
X240350Y120358D01*
X238494Y121126D01*
X236486D01*
X234631Y120358D01*
X233211Y118938D01*
X233097Y118664D01*
X231723D01*
X231609Y118938D01*
X230189Y120358D01*
X228334Y121126D01*
X226326D01*
X224471Y120358D01*
X223050Y118938D01*
X222282Y117082D01*
Y115074D01*
X223050Y113218D01*
X224471Y111798D01*
X226326Y111030D01*
X228334D01*
X230189Y111798D01*
X231609Y113218D01*
X231723Y113492D01*
X233097D01*
X233211Y113218D01*
X234631Y111798D01*
X236486Y111030D01*
X238494D01*
X240350Y111798D01*
X241770Y113218D01*
X241883Y113492D01*
X243257D01*
X243370Y113218D01*
X244790Y111798D01*
X246646Y111030D01*
X248654D01*
X250509Y111798D01*
X251929Y113218D01*
X252698Y115074D01*
Y117082D01*
X251929Y118938D01*
X250509Y120358D01*
X248654Y121126D01*
D02*
G37*
G36*
X88634Y133318D02*
X86626D01*
X84770Y132549D01*
X83350Y131130D01*
X82582Y129274D01*
Y128437D01*
X82284Y128238D01*
X80276D01*
X78421Y127470D01*
X77000Y126049D01*
X76232Y124194D01*
Y122186D01*
X77000Y120330D01*
X78421Y118911D01*
X80276Y118142D01*
X82284D01*
X84139Y118911D01*
X85560Y120330D01*
X86328Y122186D01*
Y123023D01*
X86626Y123222D01*
X88634D01*
X90490Y123990D01*
X91910Y125410D01*
X92678Y127266D01*
Y129274D01*
X91910Y131130D01*
X90490Y132549D01*
X88634Y133318D01*
D02*
G37*
G36*
X400509Y119124D02*
Y114872D01*
X404761D01*
X403976Y116767D01*
X402404Y118339D01*
X400509Y119124D01*
D02*
G37*
G36*
X397969D02*
X396073Y118339D01*
X394501Y116767D01*
X393716Y114872D01*
X397969D01*
Y119124D01*
D02*
G37*
G36*
X611434Y121648D02*
X609426D01*
X607570Y120879D01*
X606151Y119459D01*
X605382Y117604D01*
Y115596D01*
X606151Y113741D01*
X607570Y112320D01*
X609426Y111552D01*
X611434D01*
X613289Y112320D01*
X614710Y113741D01*
X615478Y115596D01*
Y117604D01*
X614710Y119459D01*
X613289Y120879D01*
X611434Y121648D01*
D02*
G37*
G36*
X597434D02*
X595426D01*
X593571Y120879D01*
X592150Y119459D01*
X591382Y117604D01*
Y115596D01*
X592150Y113741D01*
X593571Y112320D01*
X595426Y111552D01*
X597434D01*
X599290Y112320D01*
X600709Y113741D01*
X601478Y115596D01*
Y117604D01*
X600709Y119459D01*
X599290Y120879D01*
X597434Y121648D01*
D02*
G37*
G36*
X583434D02*
X581426D01*
X579571Y120879D01*
X578150Y119459D01*
X577382Y117604D01*
Y115596D01*
X578150Y113741D01*
X579571Y112320D01*
X581426Y111552D01*
X583434D01*
X585289Y112320D01*
X586710Y113741D01*
X587478Y115596D01*
Y117604D01*
X586710Y119459D01*
X585289Y120879D01*
X583434Y121648D01*
D02*
G37*
G36*
X201458Y120110D02*
X199450D01*
X197595Y119341D01*
X196175Y117921D01*
X195406Y116066D01*
Y114058D01*
X196175Y112203D01*
X197595Y110782D01*
X199450Y110014D01*
X201458D01*
X203314Y110782D01*
X204734Y112203D01*
X205502Y114058D01*
Y116066D01*
X204734Y117921D01*
X203314Y119341D01*
X201458Y120110D01*
D02*
G37*
G36*
X172454Y119888D02*
X170446D01*
X168591Y119120D01*
X167171Y117699D01*
X166402Y115844D01*
Y113836D01*
X167171Y111980D01*
X168591Y110561D01*
X170446Y109792D01*
X172454D01*
X174310Y110561D01*
X175730Y111980D01*
X176498Y113836D01*
Y115844D01*
X175730Y117699D01*
X174310Y119120D01*
X172454Y119888D01*
D02*
G37*
G36*
X126734D02*
X124726D01*
X122871Y119120D01*
X121451Y117699D01*
X120682Y115844D01*
Y113836D01*
X121451Y111980D01*
X122871Y110561D01*
X124726Y109792D01*
X126734D01*
X128589Y110561D01*
X130009Y111980D01*
X130778Y113836D01*
Y115844D01*
X130009Y117699D01*
X128589Y119120D01*
X126734Y119888D01*
D02*
G37*
G36*
X438571Y118650D02*
X436563D01*
X434708Y117881D01*
X433288Y116461D01*
X432519Y114606D01*
Y112598D01*
X433288Y110743D01*
X434708Y109323D01*
X436563Y108554D01*
X438571D01*
X440427Y109323D01*
X441847Y110743D01*
X442615Y112598D01*
Y114606D01*
X441847Y116461D01*
X440427Y117881D01*
X438571Y118650D01*
D02*
G37*
G36*
X373479Y112576D02*
Y108324D01*
X377732D01*
X376947Y110219D01*
X375375Y111791D01*
X373479Y112576D01*
D02*
G37*
G36*
X370939D02*
X369044Y111791D01*
X367472Y110219D01*
X366687Y108324D01*
X370939D01*
Y112576D01*
D02*
G37*
G36*
X404761Y112332D02*
X400509D01*
Y108080D01*
X402404Y108865D01*
X403976Y110437D01*
X404761Y112332D01*
D02*
G37*
G36*
X397969D02*
X393716D01*
X394501Y110437D01*
X396073Y108865D01*
X397969Y108080D01*
Y112332D01*
D02*
G37*
G36*
X342634Y113760D02*
X340626D01*
X338770Y112992D01*
X337351Y111572D01*
X336582Y109716D01*
Y107708D01*
X337351Y105852D01*
X338770Y104432D01*
X340626Y103664D01*
X342634D01*
X344490Y104432D01*
X345910Y105852D01*
X346678Y107708D01*
Y109716D01*
X345910Y111572D01*
X344490Y112992D01*
X342634Y113760D01*
D02*
G37*
G36*
X248654Y105378D02*
X246646D01*
X244790Y104609D01*
X243370Y103189D01*
X243276Y102962D01*
X241929Y103029D01*
X240592Y104367D01*
X238737Y105135D01*
X236729D01*
X234874Y104367D01*
X233454Y102947D01*
X233340Y102673D01*
X231966D01*
X231852Y102947D01*
X230432Y104367D01*
X228577Y105135D01*
X226569D01*
X224713Y104367D01*
X223293Y102947D01*
X222525Y101091D01*
Y99083D01*
X223293Y97227D01*
X224713Y95808D01*
X226569Y95039D01*
X228577D01*
X230432Y95808D01*
X231852Y97227D01*
X231966Y97501D01*
X233340D01*
X233454Y97227D01*
X234874Y95808D01*
X236729Y95039D01*
X238737D01*
X240592Y95808D01*
X242013Y97227D01*
X242107Y97455D01*
X243453Y97388D01*
X244790Y96051D01*
X246646Y95282D01*
X248654D01*
X250509Y96051D01*
X251929Y97471D01*
X252698Y99326D01*
Y101334D01*
X251929Y103189D01*
X250509Y104609D01*
X248654Y105378D01*
D02*
G37*
G36*
X400149Y106226D02*
Y101974D01*
X404402D01*
X403617Y103869D01*
X402045Y105441D01*
X400149Y106226D01*
D02*
G37*
G36*
X397609D02*
X395714Y105441D01*
X394142Y103869D01*
X393357Y101974D01*
X397609D01*
Y106226D01*
D02*
G37*
G36*
X377732Y105784D02*
X373479D01*
Y101531D01*
X375375Y102317D01*
X376947Y103888D01*
X377732Y105784D01*
D02*
G37*
G36*
X370939D02*
X366687D01*
X367472Y103888D01*
X369044Y102317D01*
X370939Y101531D01*
Y105784D01*
D02*
G37*
G36*
X332474Y107918D02*
X330466D01*
X328610Y107149D01*
X327191Y105730D01*
X326422Y103874D01*
Y101866D01*
X327191Y100010D01*
X328610Y98590D01*
X330466Y97822D01*
X332474D01*
X334329Y98590D01*
X335750Y100010D01*
X336518Y101866D01*
Y103874D01*
X335750Y105730D01*
X334329Y107149D01*
X332474Y107918D01*
D02*
G37*
G36*
X275468Y115992D02*
X273459D01*
X271604Y115224D01*
X270184Y113804D01*
X269416Y111948D01*
Y109940D01*
X270184Y108085D01*
X270715Y107553D01*
X270716Y105762D01*
X270677Y105723D01*
X269908Y103867D01*
Y101859D01*
X270677Y100004D01*
X272097Y98583D01*
X273952Y97815D01*
X275960D01*
X277816Y98583D01*
X279236Y100004D01*
X280004Y101859D01*
Y103867D01*
X279236Y105723D01*
X278704Y106254D01*
X278703Y108045D01*
X278743Y108085D01*
X279512Y109940D01*
Y111948D01*
X278743Y113804D01*
X277323Y115224D01*
X275468Y115992D01*
D02*
G37*
G36*
X611434Y107648D02*
X609426D01*
X607570Y106880D01*
X606151Y105459D01*
X605382Y103604D01*
Y101596D01*
X606151Y99740D01*
X607570Y98321D01*
X609426Y97552D01*
X611434D01*
X613289Y98321D01*
X614710Y99740D01*
X615478Y101596D01*
Y103604D01*
X614710Y105459D01*
X613289Y106880D01*
X611434Y107648D01*
D02*
G37*
G36*
X597434D02*
X595426D01*
X593571Y106880D01*
X592150Y105459D01*
X591382Y103604D01*
Y101596D01*
X592150Y99740D01*
X593571Y98321D01*
X595426Y97552D01*
X597434D01*
X599290Y98321D01*
X600709Y99740D01*
X601478Y101596D01*
Y103604D01*
X600709Y105459D01*
X599290Y106880D01*
X597434Y107648D01*
D02*
G37*
G36*
X583434D02*
X581426D01*
X579571Y106880D01*
X578150Y105459D01*
X577382Y103604D01*
Y101596D01*
X578150Y99740D01*
X579571Y98321D01*
X581426Y97552D01*
X583434D01*
X585289Y98321D01*
X586710Y99740D01*
X587478Y101596D01*
Y103604D01*
X586710Y105459D01*
X585289Y106880D01*
X583434Y107648D01*
D02*
G37*
G36*
X466090Y100896D02*
Y96644D01*
X470342D01*
X469557Y98539D01*
X467985Y100111D01*
X466090Y100896D01*
D02*
G37*
G36*
X463550D02*
X461655Y100111D01*
X460083Y98539D01*
X459298Y96644D01*
X463550D01*
Y100896D01*
D02*
G37*
G36*
X84637Y115225D02*
X82628D01*
X80773Y114457D01*
X79353Y113037D01*
X78584Y111182D01*
Y109173D01*
X79353Y107318D01*
X80773Y105898D01*
X80889Y105850D01*
X80845Y104494D01*
X79541Y103189D01*
X78772Y101334D01*
Y99326D01*
X79541Y97471D01*
X80961Y96051D01*
X82816Y95282D01*
X84824D01*
X86679Y96051D01*
X88099Y97471D01*
X88868Y99326D01*
Y101334D01*
X88099Y103189D01*
X86679Y104609D01*
X86563Y104658D01*
X86608Y106014D01*
X87912Y107318D01*
X88680Y109173D01*
Y111182D01*
X87912Y113037D01*
X86492Y114457D01*
X84637Y115225D01*
D02*
G37*
G36*
X404402Y99434D02*
X400149D01*
Y95181D01*
X402045Y95967D01*
X403617Y97538D01*
X404402Y99434D01*
D02*
G37*
G36*
X397609D02*
X393357D01*
X394142Y97538D01*
X395714Y95967D01*
X397609Y95181D01*
Y99434D01*
D02*
G37*
G36*
X373479Y94796D02*
Y90544D01*
X377732D01*
X376947Y92439D01*
X375375Y94011D01*
X373479Y94796D01*
D02*
G37*
G36*
X370939D02*
X369044Y94011D01*
X367472Y92439D01*
X366687Y90544D01*
X370939D01*
Y94796D01*
D02*
G37*
G36*
X470342Y94104D02*
X466090D01*
Y89852D01*
X467985Y90637D01*
X469557Y92209D01*
X470342Y94104D01*
D02*
G37*
G36*
X463550D02*
X459298D01*
X460083Y92209D01*
X461655Y90637D01*
X463550Y89852D01*
Y94104D01*
D02*
G37*
G36*
X400304Y93406D02*
Y89154D01*
X404556D01*
X403771Y91049D01*
X402199Y92621D01*
X400304Y93406D01*
D02*
G37*
G36*
X397764D02*
X395869Y92621D01*
X394297Y91049D01*
X393512Y89154D01*
X397764D01*
Y93406D01*
D02*
G37*
G36*
X99048Y96488D02*
X97040D01*
X95184Y95719D01*
X93764Y94299D01*
X92996Y92444D01*
Y90436D01*
X93764Y88581D01*
X95184Y87161D01*
X97040Y86392D01*
X99048D01*
X100904Y87161D01*
X102324Y88581D01*
X103092Y90436D01*
Y92444D01*
X102324Y94299D01*
X100904Y95719D01*
X99048Y96488D01*
D02*
G37*
G36*
X436880Y88260D02*
Y84008D01*
X441132D01*
X440347Y85903D01*
X438775Y87475D01*
X436880Y88260D01*
D02*
G37*
G36*
X428994Y95218D02*
X426986D01*
X425131Y94450D01*
X423711Y93029D01*
X422942Y91174D01*
Y89166D01*
X423711Y87310D01*
X425131Y85891D01*
X426986Y85122D01*
X428994D01*
X429212Y85212D01*
X430184Y84240D01*
X430088Y84008D01*
X434340D01*
Y88260D01*
X433975Y88109D01*
X433003Y89081D01*
X433038Y89166D01*
Y91174D01*
X432270Y93029D01*
X430849Y94450D01*
X428994Y95218D01*
D02*
G37*
G36*
X377732Y88004D02*
X373479D01*
Y83751D01*
X375375Y84537D01*
X376947Y86108D01*
X377732Y88004D01*
D02*
G37*
G36*
X370939D02*
X366687D01*
X367472Y86108D01*
X369044Y84537D01*
X370939Y83751D01*
Y88004D01*
D02*
G37*
G36*
X404556Y86614D02*
X400304D01*
Y82362D01*
X402199Y83147D01*
X403771Y84719D01*
X404556Y86614D01*
D02*
G37*
G36*
X397764D02*
X393512D01*
X394297Y84719D01*
X395869Y83147D01*
X397764Y82362D01*
Y86614D01*
D02*
G37*
G36*
X286500Y97758D02*
X284492D01*
X282637Y96989D01*
X281217Y95569D01*
X280448Y93714D01*
Y91706D01*
X281217Y89851D01*
X282637Y88431D01*
X284339Y87725D01*
X284538Y87558D01*
X285056Y86392D01*
X284512Y85078D01*
Y83070D01*
X285280Y81215D01*
X286700Y79795D01*
X288556Y79026D01*
X290564D01*
X292419Y79795D01*
X293839Y81215D01*
X294608Y83070D01*
Y85078D01*
X293839Y86933D01*
X292419Y88354D01*
X290717Y89059D01*
X290518Y89226D01*
X290000Y90392D01*
X290544Y91706D01*
Y93714D01*
X289776Y95569D01*
X288356Y96989D01*
X286500Y97758D01*
D02*
G37*
G36*
X467501Y87786D02*
X465493D01*
X463638Y87017D01*
X462217Y85597D01*
X461449Y83742D01*
Y81734D01*
X462217Y79879D01*
X463638Y78458D01*
X465493Y77690D01*
X467501D01*
X469356Y78458D01*
X470776Y79879D01*
X471545Y81734D01*
Y83742D01*
X470776Y85597D01*
X469356Y87017D01*
X467501Y87786D01*
D02*
G37*
G36*
X441132Y81468D02*
X436880D01*
Y77216D01*
X438775Y78001D01*
X440347Y79573D01*
X441132Y81468D01*
D02*
G37*
G36*
X434340D02*
X430088D01*
X430873Y79573D01*
X432445Y78001D01*
X434340Y77216D01*
Y81468D01*
D02*
G37*
G36*
X186424Y85058D02*
X184416D01*
X182561Y84290D01*
X181140Y82870D01*
X180372Y81014D01*
Y79006D01*
X181140Y77151D01*
X182561Y75731D01*
X184416Y74962D01*
X186424D01*
X188279Y75731D01*
X189699Y77151D01*
X190468Y79006D01*
Y81014D01*
X189699Y82870D01*
X188279Y84290D01*
X186424Y85058D01*
D02*
G37*
G36*
X114034D02*
X112026D01*
X110170Y84290D01*
X108750Y82870D01*
X107982Y81014D01*
Y79006D01*
X108750Y77151D01*
X110170Y75731D01*
X112026Y74962D01*
X114034D01*
X115890Y75731D01*
X117310Y77151D01*
X118078Y79006D01*
Y81014D01*
X117310Y82870D01*
X115890Y84290D01*
X114034Y85058D01*
D02*
G37*
G36*
X74664Y83788D02*
X72656D01*
X70800Y83020D01*
X69380Y81600D01*
X68612Y79744D01*
Y77736D01*
X69380Y75880D01*
X70800Y74461D01*
X72656Y73692D01*
X74664D01*
X76519Y74461D01*
X77940Y75880D01*
X78708Y77736D01*
Y79744D01*
X77940Y81600D01*
X76519Y83020D01*
X74664Y83788D01*
D02*
G37*
G36*
X342634Y83246D02*
X340626D01*
X338770Y82478D01*
X337351Y81057D01*
X336582Y79202D01*
Y77194D01*
X337351Y75339D01*
X338770Y73918D01*
X340626Y73150D01*
X342634D01*
X344490Y73918D01*
X345910Y75339D01*
X346678Y77194D01*
Y79202D01*
X345910Y81057D01*
X344490Y82478D01*
X342634Y83246D01*
D02*
G37*
G36*
X87364Y81248D02*
X85356D01*
X83500Y80479D01*
X82080Y79060D01*
X81312Y77204D01*
Y75196D01*
X82080Y73341D01*
X83500Y71920D01*
X85356Y71152D01*
X87364D01*
X89220Y71920D01*
X90639Y73341D01*
X91408Y75196D01*
Y77204D01*
X90639Y79060D01*
X89220Y80479D01*
X87364Y81248D01*
D02*
G37*
G36*
X227064Y78898D02*
X225056D01*
X223200Y78130D01*
X221780Y76709D01*
X221012Y74854D01*
Y72846D01*
X221780Y70991D01*
X223200Y69570D01*
X225056Y68802D01*
X227064D01*
X228920Y69570D01*
X230340Y70991D01*
X231108Y72846D01*
Y74854D01*
X230340Y76709D01*
X228920Y78130D01*
X227064Y78898D01*
D02*
G37*
G36*
X225540Y66198D02*
X223532D01*
X221677Y65430D01*
X220257Y64009D01*
X219488Y62154D01*
Y60146D01*
X220257Y58291D01*
X221677Y56870D01*
X223532Y56102D01*
X225540D01*
X227395Y56870D01*
X228815Y58291D01*
X229584Y60146D01*
Y62154D01*
X228815Y64009D01*
X227395Y65430D01*
X225540Y66198D01*
D02*
G37*
G36*
X49264Y66008D02*
X47256D01*
X45401Y65240D01*
X43980Y63819D01*
X43212Y61964D01*
Y59956D01*
X43980Y58101D01*
X45401Y56680D01*
X47256Y55912D01*
X49264D01*
X51119Y56680D01*
X52540Y58101D01*
X53308Y59956D01*
Y61964D01*
X52540Y63819D01*
X51119Y65240D01*
X49264Y66008D01*
D02*
G37*
G36*
X30552Y65511D02*
X28544D01*
X26688Y64743D01*
X25268Y63323D01*
X24500Y61467D01*
Y59459D01*
X25268Y57604D01*
X26688Y56184D01*
X28544Y55415D01*
X30552D01*
X32407Y56184D01*
X33827Y57604D01*
X34596Y59459D01*
Y61467D01*
X33827Y63323D01*
X32407Y64743D01*
X30552Y65511D01*
D02*
G37*
G36*
X263386Y64738D02*
X261378D01*
X259522Y63969D01*
X258102Y62550D01*
X257334Y60694D01*
Y58686D01*
X258102Y56831D01*
X259522Y55410D01*
X261378Y54642D01*
X263386D01*
X265242Y55410D01*
X266661Y56831D01*
X267430Y58686D01*
Y60694D01*
X266661Y62550D01*
X265242Y63969D01*
X263386Y64738D01*
D02*
G37*
G36*
X14974Y43148D02*
X12966D01*
X11111Y42379D01*
X9690Y40960D01*
X8922Y39104D01*
Y37096D01*
X9690Y35240D01*
X11111Y33821D01*
X12966Y33052D01*
X14974D01*
X16830Y33821D01*
X18249Y35240D01*
X19018Y37096D01*
Y39104D01*
X18249Y40960D01*
X16830Y42379D01*
X14974Y43148D01*
D02*
G37*
G36*
X404610Y34290D02*
X402602D01*
X400746Y33521D01*
X399327Y32102D01*
X398558Y30246D01*
Y28238D01*
X399327Y26383D01*
X400746Y24962D01*
X402602Y24194D01*
X404610D01*
X406465Y24962D01*
X407886Y26383D01*
X408654Y28238D01*
Y30246D01*
X407886Y32102D01*
X406465Y33521D01*
X404610Y34290D01*
D02*
G37*
G36*
X611187Y33701D02*
X609179D01*
X607323Y32932D01*
X605903Y31512D01*
X605135Y29657D01*
Y27649D01*
X605903Y25793D01*
X607323Y24373D01*
X609179Y23605D01*
X611187D01*
X613042Y24373D01*
X614462Y25793D01*
X615231Y27649D01*
Y29657D01*
X614462Y31512D01*
X613042Y32932D01*
X611187Y33701D01*
D02*
G37*
G36*
X674104Y32988D02*
X672096D01*
X670240Y32220D01*
X668820Y30800D01*
X668052Y28944D01*
Y26936D01*
X668820Y25080D01*
X670240Y23661D01*
X672096Y22892D01*
X674104D01*
X675959Y23661D01*
X677380Y25080D01*
X678148Y26936D01*
Y28944D01*
X677380Y30800D01*
X675959Y32220D01*
X674104Y32988D01*
D02*
G37*
G36*
X661404D02*
X659396D01*
X657541Y32220D01*
X656121Y30800D01*
X655352Y28944D01*
Y26936D01*
X656121Y25080D01*
X657541Y23661D01*
X659396Y22892D01*
X661404D01*
X663260Y23661D01*
X664679Y25080D01*
X665448Y26936D01*
Y28944D01*
X664679Y30800D01*
X663260Y32220D01*
X661404Y32988D01*
D02*
G37*
G36*
X648704D02*
X646696D01*
X644840Y32220D01*
X643420Y30800D01*
X642652Y28944D01*
Y26936D01*
X643420Y25080D01*
X644840Y23661D01*
X646696Y22892D01*
X648704D01*
X650559Y23661D01*
X651980Y25080D01*
X652748Y26936D01*
Y28944D01*
X651980Y30800D01*
X650559Y32220D01*
X648704Y32988D01*
D02*
G37*
G36*
X636004D02*
X633996D01*
X632141Y32220D01*
X630720Y30800D01*
X629952Y28944D01*
Y26936D01*
X630720Y25080D01*
X632141Y23661D01*
X633996Y22892D01*
X636004D01*
X637859Y23661D01*
X639280Y25080D01*
X640048Y26936D01*
Y28944D01*
X639280Y30800D01*
X637859Y32220D01*
X636004Y32988D01*
D02*
G37*
G36*
X623304D02*
X621296D01*
X619440Y32220D01*
X618021Y30800D01*
X617252Y28944D01*
Y26936D01*
X618021Y25080D01*
X619440Y23661D01*
X621296Y22892D01*
X623304D01*
X625159Y23661D01*
X626580Y25080D01*
X627348Y26936D01*
Y28944D01*
X626580Y30800D01*
X625159Y32220D01*
X623304Y32988D01*
D02*
G37*
G36*
X586474D02*
X584466D01*
X582611Y32220D01*
X581190Y30800D01*
X580422Y28944D01*
Y26936D01*
X581190Y25080D01*
X582611Y23661D01*
X584466Y22892D01*
X586474D01*
X588330Y23661D01*
X589749Y25080D01*
X590518Y26936D01*
Y28944D01*
X589749Y30800D01*
X588330Y32220D01*
X586474Y32988D01*
D02*
G37*
G36*
X573774D02*
X571766D01*
X569911Y32220D01*
X568490Y30800D01*
X567722Y28944D01*
Y26936D01*
X568490Y25080D01*
X569911Y23661D01*
X571766Y22892D01*
X573774D01*
X575630Y23661D01*
X577049Y25080D01*
X577818Y26936D01*
Y28944D01*
X577049Y30800D01*
X575630Y32220D01*
X573774Y32988D01*
D02*
G37*
G36*
X559804D02*
X557796D01*
X555941Y32220D01*
X554520Y30800D01*
X553752Y28944D01*
Y26936D01*
X554520Y25080D01*
X555941Y23661D01*
X557796Y22892D01*
X559804D01*
X561660Y23661D01*
X563079Y25080D01*
X563848Y26936D01*
Y28944D01*
X563079Y30800D01*
X561660Y32220D01*
X559804Y32988D01*
D02*
G37*
G36*
X522974D02*
X520966D01*
X519110Y32220D01*
X517691Y30800D01*
X516922Y28944D01*
Y26936D01*
X517691Y25080D01*
X519110Y23661D01*
X520966Y22892D01*
X522974D01*
X524829Y23661D01*
X526250Y25080D01*
X527018Y26936D01*
Y28944D01*
X526250Y30800D01*
X524829Y32220D01*
X522974Y32988D01*
D02*
G37*
G36*
X548374Y32798D02*
X546366D01*
X544510Y32030D01*
X543091Y30610D01*
X542322Y28754D01*
Y26746D01*
X543091Y24891D01*
X544510Y23470D01*
X546366Y22702D01*
X548374D01*
X550229Y23470D01*
X551650Y24891D01*
X552418Y26746D01*
Y28754D01*
X551650Y30610D01*
X550229Y32030D01*
X548374Y32798D01*
D02*
G37*
G36*
X534404D02*
X532396D01*
X530541Y32030D01*
X529120Y30610D01*
X528352Y28754D01*
Y26746D01*
X529120Y24891D01*
X530541Y23470D01*
X532396Y22702D01*
X534404D01*
X536259Y23470D01*
X537679Y24891D01*
X538448Y26746D01*
Y28754D01*
X537679Y30610D01*
X536259Y32030D01*
X534404Y32798D01*
D02*
G37*
G36*
X453124Y29178D02*
X451116D01*
X449260Y28410D01*
X447840Y26990D01*
X447072Y25134D01*
Y23126D01*
X447840Y21270D01*
X449260Y19850D01*
X451116Y19082D01*
X453124D01*
X454980Y19850D01*
X456399Y21270D01*
X457168Y23126D01*
Y25134D01*
X456399Y26990D01*
X454980Y28410D01*
X453124Y29178D01*
D02*
G37*
G36*
X25630Y23090D02*
X16510D01*
Y13970D01*
X25630D01*
Y23090D01*
D02*
G37*
G36*
X13970D02*
X4850D01*
Y13970D01*
X13970D01*
Y23090D01*
D02*
G37*
G36*
X453124Y15208D02*
X451116D01*
X449260Y14440D01*
X447840Y13019D01*
X447072Y11164D01*
Y9156D01*
X447840Y7301D01*
X449260Y5881D01*
X451116Y5112D01*
X453124D01*
X454980Y5881D01*
X456399Y7301D01*
X457168Y9156D01*
Y11164D01*
X456399Y13019D01*
X454980Y14440D01*
X453124Y15208D01*
D02*
G37*
%LPD*%
D49*
X15240Y190500D02*
D03*
Y12700D02*
D03*
D50*
X40640Y190500D02*
D03*
X66040D02*
D03*
X91440D02*
D03*
X116840D02*
D03*
X142240D02*
D03*
X167640D02*
D03*
X193040D02*
D03*
X218440D02*
D03*
X243840D02*
D03*
X269240D02*
D03*
X294640D02*
D03*
X320040D02*
D03*
X345440D02*
D03*
X370840D02*
D03*
X396240D02*
D03*
X421640D02*
D03*
X40640Y12700D02*
D03*
X66040D02*
D03*
X91440D02*
D03*
X116840D02*
D03*
X142240D02*
D03*
X167640D02*
D03*
X193040D02*
D03*
X218440D02*
D03*
X243840D02*
D03*
X269240D02*
D03*
X294640D02*
D03*
X320040D02*
D03*
X345440D02*
D03*
X370840D02*
D03*
X396240D02*
D03*
X421640D02*
D03*
D52*
X609842Y175548D02*
D03*
X582598Y130433D02*
D03*
X521970Y175768D02*
D03*
X509270Y159480D02*
D03*
X474980Y142812D02*
D03*
X73637Y159998D02*
D03*
X248920Y158463D02*
D03*
X222445Y155997D02*
D03*
X263652Y127667D02*
D03*
X274956Y102863D02*
D03*
X274464Y110944D02*
D03*
X274496Y128120D02*
D03*
X298613Y141133D02*
D03*
X291953Y160635D02*
D03*
X369360Y158972D02*
D03*
X341630Y108712D02*
D03*
X399239Y113602D02*
D03*
X430530Y135318D02*
D03*
X437567Y113602D02*
D03*
X464820Y95374D02*
D03*
X466497Y82738D02*
D03*
X435610D02*
D03*
X427990Y90170D02*
D03*
X452120Y24130D02*
D03*
X403606Y29242D02*
D03*
X262382Y59690D02*
D03*
X226060Y73850D02*
D03*
X224536Y61150D02*
D03*
X247650Y116078D02*
D03*
X237490D02*
D03*
X200454Y115062D02*
D03*
X227330Y116078D02*
D03*
X289560Y84074D02*
D03*
X285496Y92710D02*
D03*
X341630Y78198D02*
D03*
X83820Y100330D02*
D03*
X83632Y110177D02*
D03*
X247650Y100330D02*
D03*
X227573Y100087D02*
D03*
X237733D02*
D03*
X533400Y175260D02*
D03*
X48260Y60960D02*
D03*
X7620Y163830D02*
D03*
X19050D02*
D03*
X447040Y187960D02*
D03*
X610430Y130600D02*
D03*
Y116600D02*
D03*
X399034Y87884D02*
D03*
X582430Y102600D02*
D03*
X398880Y100704D02*
D03*
X372210Y89274D02*
D03*
X596430Y102600D02*
D03*
X610430D02*
D03*
X372210Y107054D02*
D03*
X98044Y91440D02*
D03*
X125730Y114840D02*
D03*
X171450D02*
D03*
X331470Y102870D02*
D03*
X597165Y175525D02*
D03*
X596430Y130600D02*
D03*
X497840Y189230D02*
D03*
X547370Y175260D02*
D03*
X560070D02*
D03*
X572770D02*
D03*
X584200D02*
D03*
X623570D02*
D03*
X635900Y175630D02*
D03*
X596430Y116600D02*
D03*
X582430D02*
D03*
X452120Y10160D02*
D03*
X521970Y27940D02*
D03*
X533400Y27750D02*
D03*
X547370D02*
D03*
X558800Y27940D02*
D03*
X610183Y28653D02*
D03*
X572770Y27940D02*
D03*
X585470D02*
D03*
X622300D02*
D03*
X660400D02*
D03*
X673100D02*
D03*
X647700D02*
D03*
X635000D02*
D03*
X673630Y176000D02*
D03*
X660930Y175790D02*
D03*
X647700Y175260D02*
D03*
X87630Y128270D02*
D03*
X29548Y60463D02*
D03*
X104140Y156210D02*
D03*
X113030Y80010D02*
D03*
X81280Y123190D02*
D03*
X44450Y161290D02*
D03*
X185420Y80010D02*
D03*
X86360Y76200D02*
D03*
X73660Y78740D02*
D03*
X60960Y154940D02*
D03*
X31750Y163830D02*
D03*
X13970Y38100D02*
D03*
M02*
